<?xml version="1.0" encoding="UTF-8"?>
<svg xmlns="http://www.w3.org/2000/svg"
     xmlns:xlink="http://www.w3.org/1999/xlink"
     xmlns:gadfly="http://www.gadflyjl.org/ns"
     version="1.2"
     width="203.2mm" height="203.2mm" viewBox="0 0 203.2 203.2"
     stroke="none"
     fill="#000000"
     stroke-width="0.3"
     font-size="3.88"
>
<g class="plotroot xscalable yscalable" id="img-03fd9847-1">
  <g font-size="3.88" font-family="'PT Sans','Helvetica Neue','Helvetica',sans-serif" fill="#564A55" stroke="#000000" stroke-opacity="0.000" id="img-03fd9847-2">
    <text x="158.04" y="191.59" text-anchor="middle" dy="0.6em">Value</text>
  </g>
  <g class="guide xlabels" font-size="2.82" font-family="'PT Sans Caption','Helvetica Neue','Helvetica',sans-serif" fill="#6C606B" id="img-03fd9847-3">
    <text x="119.58" y="184.91" text-anchor="middle" dy="0.6em">-3.7483332</text>
    <text x="138.24" y="184.91" text-anchor="middle" dy="0.6em">-3.7483332</text>
    <text x="157.74" y="184.91" text-anchor="middle" dy="0.6em">-3.7483332</text>
    <text x="176.39" y="184.91" text-anchor="middle" dy="0.6em">-3.7483332</text>
    <text x="195.9" y="184.91" text-anchor="middle" dy="0.6em">-3.7483332</text>
  </g>
<g clip-path="url(#img-03fd9847-4)">
  <g id="img-03fd9847-5">
    <g pointer-events="visible" opacity="1" fill="#000000" fill-opacity="0.000" stroke="#000000" stroke-opacity="0.000" class="guide background" id="img-03fd9847-6">
      <rect x="117.88" y="146.08" width="80.32" height="37.84"/>
    </g>
    <g class="guide ygridlines xfixed" stroke-dasharray="0.5,0.5" stroke-width="0.2" stroke="#D0D0E0" id="img-03fd9847-7">
      <path fill="none" d="M117.88,165 L 198.2 165"/>
    </g>
    <g class="guide xgridlines yfixed" stroke-dasharray="0.5,0.5" stroke-width="0.2" stroke="#D0D0E0" id="img-03fd9847-8">
      <path fill="none" d="M119.58,146.08 L 119.58 183.91"/>
      <path fill="none" d="M138.24,146.08 L 138.24 183.91"/>
      <path fill="none" d="M157.74,146.08 L 157.74 183.91"/>
      <path fill="none" d="M176.39,146.08 L 176.39 183.91"/>
      <path fill="none" d="M195.9,146.08 L 195.9 183.91"/>
    </g>
    <g class="plotpanel" id="img-03fd9847-9">
      <g stroke-width="0.3" fill="#000000" fill-opacity="0.000" class="geometry color_1" stroke-dasharray="none" stroke="#00BFFF" id="img-03fd9847-10">
        <path fill="none" d="M136.54,165 L 136.54 165 136.54 165 137.39 165 137.39 165 137.39 165 137.39 165 138.24 165 138.24 165 138.24 165 138.24 165 139.08 165 139.08 165 139.08 165 139.08 165 139.93 165 139.93 165 139.93 165 139.93 165 140.78 165 140.78 165 140.78 165 140.78 165 141.63 165 141.63 165 141.63 165 141.63 165 142.48 165 142.48 165 142.48 165 142.48 165 143.32 165 143.32 165 143.32 165 143.32 165 144.17 165 144.17 165 144.17 165 144.17 165 144.17 165 145.02 165 145.02 165 145.02 165 145.02 165 145.87 165 145.87 165 145.87 165 145.87 165 146.72 165 146.72 165 146.72 165 146.72 165 147.56 165 147.56 165 147.56 165 147.56 165 148.41 165 148.41 165 148.41 165 148.41 165 149.26 165 149.26 165 149.26 165 149.26 165 150.11 165 150.11 165 150.11 165 150.11 165 150.95 165 150.95 165 150.95 165 150.95 165 151.8 165 151.8 165 151.8 165 151.8 165 151.8 165 152.65 165 152.65 165 152.65 165 152.65 165 153.5 165 153.5 165 153.5 165 153.5 165 154.35 165 154.35 165 154.35 165 154.35 165 155.19 165 155.19 165 155.19 165 155.19 165 156.04 165 156.04 165 156.04 165 156.04 165 156.89 165 156.89 165 156.89 165 156.89 165 157.74 165 157.74 165 157.74 165 157.74 165 158.59 165 158.59 165 158.59 165 158.59 165 159.43 165 159.43 165 159.43 165 159.43 165 159.43 165 160.28 165 160.28 165 160.28 165 160.28 165 161.13 165 161.13 165 161.13 165 161.13 165 161.98 165 161.98 165 161.98 165 161.98 165 162.83 165 162.83 165 162.83 165 162.83 165 163.67 165 163.67 165 163.67 165 163.67 165 164.52 165 164.52 165 164.52 165 164.52 165 165.37 165 165.37 165 165.37 165 165.37 165 166.22 165 166.22 165 166.22 165 166.22 165 166.22 165 167.07 165 167.07 165 167.07 165 167.07 165 167.91 165 167.91 165 167.91 165 167.91 165 168.76 165 168.76 165 168.76 165 168.76 165 169.61 165 169.61 165 169.61 165 169.61 165 170.46 165 170.46 165 170.46 165 170.46 165 171.31 165 171.31 165 171.31 165 171.31 165 172.15 165 172.15 165 172.15 165 172.15 165 173 165 173 165 173 165 173 165 173.85 165 173.85 165 173.85 165 173.85 165 173.85 165 174.7 165 174.7 165 174.7 165 174.7 165 175.55 165 175.55 165 175.55 165 175.55 165 176.39 165 176.39 165 176.39 165 176.39 165 177.24 165 177.24 165 177.24 165 177.24 165 178.09 165 178.09 165 178.09 165 178.09 165 178.94 165 178.94 165 178.94 165 178.94 165 179.78 165 179.78 165 179.78 165 179.78 165 180.63 165 180.63 165 180.63 165 180.63 165 181.48 165 181.48 165 181.48 165 181.48 165 181.48 165 182.33 165 182.33 165 182.33 165 182.33 165 183.18 165 183.18 165 183.18 165 183.18 165 184.02 165 184.02 165 184.02 165 184.02 165 184.87 165 184.87 165 184.87 165 184.87 165 185.72 165 185.72 165 185.72 165 185.72 165 186.57 165 186.57 165 186.57 165 186.57 165 187.42 165 187.42 165 187.42 165 187.42 165 188.26 165 188.26 165 188.26 165 188.26 165 189.11 165 189.11 165 189.11 165"/>
      </g>
    </g>
  </g>
</g>
  <g class="guide ylabels" font-size="2.82" font-family="'PT Sans Caption','Helvetica Neue','Helvetica',sans-serif" fill="#6C606B" id="img-03fd9847-11">
    <text x="116.88" y="165" text-anchor="end" dy="0.35em">0</text>
  </g>
  <g font-size="3.88" font-family="'PT Sans','Helvetica Neue','Helvetica',sans-serif" fill="#564A55" stroke="#000000" stroke-opacity="0.000" id="img-03fd9847-12">
    <text x="110.41" y="163" text-anchor="middle" dy="0.35em" transform="rotate(-90, 110.41, 165)">Density</text>
  </g>
  <g font-size="3.88" font-family="'PT Sans','Helvetica Neue','Helvetica',sans-serif" fill="#564A55" stroke="#000000" stroke-opacity="0.000" id="img-03fd9847-13">
    <text x="158.04" y="140.47" text-anchor="middle" dy="0.6em">le</text>
  </g>
</g>
<g class="plotroot xscalable yscalable" id="img-03fd9847-14">
  <g font-size="3.88" font-family="'PT Sans','Helvetica Neue','Helvetica',sans-serif" fill="#564A55" stroke="#000000" stroke-opacity="0.000" id="img-03fd9847-15">
    <text x="63.19" y="191.59" text-anchor="middle" dy="0.6em">Iteration</text>
  </g>
  <g class="guide xlabels" font-size="2.82" font-family="'PT Sans Caption','Helvetica Neue','Helvetica',sans-serif" fill="#6C606B" id="img-03fd9847-16">
    <text x="31.78" y="184.91" text-anchor="middle" dy="0.6em">0</text>
    <text x="63.19" y="184.91" text-anchor="middle" dy="0.6em">500</text>
    <text x="94.6" y="184.91" text-anchor="middle" dy="0.6em">1000</text>
  </g>
<g clip-path="url(#img-03fd9847-17)">
  <g id="img-03fd9847-18">
    <g pointer-events="visible" opacity="1" fill="#000000" fill-opacity="0.000" stroke="#000000" stroke-opacity="0.000" class="guide background" id="img-03fd9847-19">
      <rect x="29.78" y="146.08" width="66.82" height="37.84"/>
    </g>
    <g class="guide ygridlines xfixed" stroke-dasharray="0.5,0.5" stroke-width="0.2" stroke="#D0D0E0" id="img-03fd9847-20">
      <path fill="none" d="M29.78,165 L 96.6 165"/>
    </g>
    <g class="guide xgridlines yfixed" stroke-dasharray="0.5,0.5" stroke-width="0.2" stroke="#D0D0E0" id="img-03fd9847-21">
      <path fill="none" d="M31.78,146.08 L 31.78 183.91"/>
      <path fill="none" d="M63.19,146.08 L 63.19 183.91"/>
      <path fill="none" d="M94.6,146.08 L 94.6 183.91"/>
    </g>
    <g class="plotpanel" id="img-03fd9847-22">
      <g stroke-width="0.3" fill="#000000" fill-opacity="0.000" class="geometry color_1" stroke-dasharray="none" stroke="#00BFFF" id="img-03fd9847-23">
        <path fill="none" d="M31.85,165 L 31.91 165 31.97 165 32.04 165 32.1 165 32.16 165 32.22 165 32.29 165 32.35 165 32.41 165 32.48 165 32.54 165 32.6 165 32.66 165 32.73 165 32.79 165 32.85 165 32.92 165 32.98 165 33.04 165 33.1 165 33.17 165 33.23 165 33.29 165 33.36 165 33.42 165 33.48 165 33.54 165 33.61 165 33.67 165 33.73 165 33.8 165 33.86 165 33.92 165 33.98 165 34.05 165 34.11 165 34.17 165 34.23 165 34.3 165 34.36 165 34.42 165 34.49 165 34.55 165 34.61 165 34.67 165 34.74 165 34.8 165 34.86 165 34.93 165 34.99 165 35.05 165 35.11 165 35.18 165 35.24 165 35.3 165 35.37 165 35.43 165 35.49 165 35.55 165 35.62 165 35.68 165 35.74 165 35.81 165 35.87 165 35.93 165 35.99 165 36.06 165 36.12 165 36.18 165 36.24 165 36.31 165 36.37 165 36.43 165 36.5 165 36.56 165 36.62 165 36.68 165 36.75 165 36.81 165 36.87 165 36.94 165 37 165 37.06 165 37.12 165 37.19 165 37.25 165 37.31 165 37.38 165 37.44 165 37.5 165 37.56 165 37.63 165 37.69 165 37.75 165 37.82 165 37.88 165 37.94 165 38 165 38.07 165 38.13 165 38.19 165 38.25 165 38.32 165 38.38 165 38.44 165 38.51 165 38.57 165 38.63 165 38.69 165 38.76 165 38.82 165 38.88 165 38.95 165 39.01 165 39.07 165 39.13 165 39.2 165 39.26 165 39.32 165 39.39 165 39.45 165 39.51 165 39.57 165 39.64 165 39.7 165 39.76 165 39.83 165 39.89 165 39.95 165 40.01 165 40.08 165 40.14 165 40.2 165 40.27 165 40.33 165 40.39 165 40.45 165 40.52 165 40.58 165 40.64 165 40.7 165 40.77 165 40.83 165 40.89 165 40.96 165 41.02 165 41.08 165 41.14 165 41.21 165 41.27 165 41.33 165 41.4 165 41.46 165 41.52 165 41.58 165 41.65 165 41.71 165 41.77 165 41.84 165 41.9 165 41.96 165 42.02 165 42.09 165 42.15 165 42.21 165 42.28 165 42.34 165 42.4 165 42.46 165 42.53 165 42.59 165 42.65 165 42.71 165 42.78 165 42.84 165 42.9 165 42.97 165 43.03 165 43.09 165 43.15 165 43.22 165 43.28 165 43.34 165 43.41 165 43.47 165 43.53 165 43.59 165 43.66 165 43.72 165 43.78 165 43.85 165 43.91 165 43.97 165 44.03 165 44.1 165 44.16 165 44.22 165 44.29 165 44.35 165 44.41 165 44.47 165 44.54 165 44.6 165 44.66 165 44.72 165 44.79 165 44.85 165 44.91 165 44.98 165 45.04 165 45.1 165 45.16 165 45.23 165 45.29 165 45.35 165 45.42 165 45.48 165 45.54 165 45.6 165 45.67 165 45.73 165 45.79 165 45.86 165 45.92 165 45.98 165 46.04 165 46.11 165 46.17 165 46.23 165 46.3 165 46.36 165 46.42 165 46.48 165 46.55 165 46.61 165 46.67 165 46.73 165 46.8 165 46.86 165 46.92 165 46.99 165 47.05 165 47.11 165 47.17 165 47.24 165 47.3 165 47.36 165 47.43 165 47.49 165 47.55 165 47.61 165 47.68 165 47.74 165 47.8 165 47.87 165 47.93 165 47.99 165 48.05 165 48.12 165 48.18 165 48.24 165 48.31 165 48.37 165 48.43 165 48.49 165 48.56 165 48.62 165 48.68 165 48.75 165 48.81 165 48.87 165 48.93 165 49 165 49.06 165 49.12 165 49.18 165 49.25 165 49.31 165 49.37 165 49.44 165 49.5 165 49.56 165 49.62 165 49.69 165 49.75 165 49.81 165 49.88 165 49.94 165 50 165 50.06 165 50.13 165 50.19 165 50.25 165 50.32 165 50.38 165 50.44 165 50.5 165 50.57 165 50.63 165 50.69 165 50.76 165 50.82 165 50.88 165 50.94 165 51.01 165 51.07 165 51.13 165 51.19 165 51.26 165 51.32 165 51.38 165 51.45 165 51.51 165 51.57 165 51.63 165 51.7 165 51.76 165 51.82 165 51.89 165 51.95 165 52.01 165 52.07 165 52.14 165 52.2 165 52.26 165 52.33 165 52.39 165 52.45 165 52.51 165 52.58 165 52.64 165 52.7 165 52.77 165 52.83 165 52.89 165 52.95 165 53.02 165 53.08 165 53.14 165 53.2 165 53.27 165 53.33 165 53.39 165 53.46 165 53.52 165 53.58 165 53.64 165 53.71 165 53.77 165 53.83 165 53.9 165 53.96 165 54.02 165 54.08 165 54.15 165 54.21 165 54.27 165 54.34 165 54.4 165 54.46 165 54.52 165 54.59 165 54.65 165 54.71 165 54.78 165 54.84 165 54.9 165 54.96 165 55.03 165 55.09 165 55.15 165 55.21 165 55.28 165 55.34 165 55.4 165 55.47 165 55.53 165 55.59 165 55.65 165 55.72 165 55.78 165 55.84 165 55.91 165 55.97 165 56.03 165 56.09 165 56.16 165 56.22 165 56.28 165 56.35 165 56.41 165 56.47 165 56.53 165 56.6 165 56.66 165 56.72 165 56.79 165 56.85 165 56.91 165 56.97 165 57.04 165 57.1 165 57.16 165 57.23 165 57.29 165 57.35 165 57.41 165 57.48 165 57.54 165 57.6 165 57.66 165 57.73 165 57.79 165 57.85 165 57.92 165 57.98 165 58.04 165 58.1 165 58.17 165 58.23 165 58.29 165 58.36 165 58.42 165 58.48 165 58.54 165 58.61 165 58.67 165 58.73 165 58.8 165 58.86 165 58.92 165 58.98 165 59.05 165 59.11 165 59.17 165 59.24 165 59.3 165 59.36 165 59.42 165 59.49 165 59.55 165 59.61 165 59.67 165 59.74 165 59.8 165 59.86 165 59.93 165 59.99 165 60.05 165 60.11 165 60.18 165 60.24 165 60.3 165 60.37 165 60.43 165 60.49 165 60.55 165 60.62 165 60.68 165 60.74 165 60.81 165 60.87 165 60.93 165 60.99 165 61.06 165 61.12 165 61.18 165 61.25 165 61.31 165 61.37 165 61.43 165 61.5 165 61.56 165 61.62 165 61.68 165 61.75 165 61.81 165 61.87 165 61.94 165 62 165 62.06 165 62.12 165 62.19 165 62.25 165 62.31 165 62.38 165 62.44 165 62.5 165 62.56 165 62.63 165 62.69 165 62.75 165 62.82 165 62.88 165 62.94 165 63 165 63.07 165 63.13 165 63.19 165 63.26 165 63.32 165 63.38 165 63.44 165 63.51 165 63.57 165 63.63 165 63.7 165 63.76 165 63.82 165 63.88 165 63.95 165 64.01 165 64.07 165 64.13 165 64.2 165 64.26 165 64.32 165 64.39 165 64.45 165 64.51 165 64.57 165 64.64 165 64.7 165 64.76 165 64.83 165 64.89 165 64.95 165 65.01 165 65.08 165 65.14 165 65.2 165 65.27 165 65.33 165 65.39 165 65.45 165 65.52 165 65.58 165 65.64 165 65.71 165 65.77 165 65.83 165 65.89 165 65.96 165 66.02 165 66.08 165 66.14 165 66.21 165 66.27 165 66.33 165 66.4 165 66.46 165 66.52 165 66.58 165 66.65 165 66.71 165 66.77 165 66.84 165 66.9 165 66.96 165 67.02 165 67.09 165 67.15 165 67.21 165 67.28 165 67.34 165 67.4 165 67.46 165 67.53 165 67.59 165 67.65 165 67.72 165 67.78 165 67.84 165 67.9 165 67.97 165 68.03 165 68.09 165 68.15 165 68.22 165 68.28 165 68.34 165 68.41 165 68.47 165 68.53 165 68.59 165 68.66 165 68.72 165 68.78 165 68.85 165 68.91 165 68.97 165 69.03 165 69.1 165 69.16 165 69.22 165 69.29 165 69.35 165 69.41 165 69.47 165 69.54 165 69.6 165 69.66 165 69.73 165 69.79 165 69.85 165 69.91 165 69.98 165 70.04 165 70.1 165 70.16 165 70.23 165 70.29 165 70.35 165 70.42 165 70.48 165 70.54 165 70.6 165 70.67 165 70.73 165 70.79 165 70.86 165 70.92 165 70.98 165 71.04 165 71.11 165 71.17 165 71.23 165 71.3 165 71.36 165 71.42 165 71.48 165 71.55 165 71.61 165 71.67 165 71.74 165 71.8 165 71.86 165 71.92 165 71.99 165 72.05 165 72.11 165 72.18 165 72.24 165 72.3 165 72.36 165 72.43 165 72.49 165 72.55 165 72.61 165 72.68 165 72.74 165 72.8 165 72.87 165 72.93 165 72.99 165 73.05 165 73.12 165 73.18 165 73.24 165 73.31 165 73.37 165 73.43 165 73.49 165 73.56 165 73.62 165 73.68 165 73.75 165 73.81 165 73.87 165 73.93 165 74 165 74.06 165 74.12 165 74.19 165 74.25 165 74.31 165 74.37 165 74.44 165 74.5 165 74.56 165 74.62 165 74.69 165 74.75 165 74.81 165 74.88 165 74.94 165 75 165 75.06 165 75.13 165 75.19 165 75.25 165 75.32 165 75.38 165 75.44 165 75.5 165 75.57 165 75.63 165 75.69 165 75.76 165 75.82 165 75.88 165 75.94 165 76.01 165 76.07 165 76.13 165 76.2 165 76.26 165 76.32 165 76.38 165 76.45 165 76.51 165 76.57 165 76.63 165 76.7 165 76.76 165 76.82 165 76.89 165 76.95 165 77.01 165 77.07 165 77.14 165 77.2 165 77.26 165 77.33 165 77.39 165 77.45 165 77.51 165 77.58 165 77.64 165 77.7 165 77.77 165 77.83 165 77.89 165 77.95 165 78.02 165 78.08 165 78.14 165 78.21 165 78.27 165 78.33 165 78.39 165 78.46 165 78.52 165 78.58 165 78.64 165 78.71 165 78.77 165 78.83 165 78.9 165 78.96 165 79.02 165 79.08 165 79.15 165 79.21 165 79.27 165 79.34 165 79.4 165 79.46 165 79.52 165 79.59 165 79.65 165 79.71 165 79.78 165 79.84 165 79.9 165 79.96 165 80.03 165 80.09 165 80.15 165 80.22 165 80.28 165 80.34 165 80.4 165 80.47 165 80.53 165 80.59 165 80.66 165 80.72 165 80.78 165 80.84 165 80.91 165 80.97 165 81.03 165 81.09 165 81.16 165 81.22 165 81.28 165 81.35 165 81.41 165 81.47 165 81.53 165 81.6 165 81.66 165 81.72 165 81.79 165 81.85 165 81.91 165 81.97 165 82.04 165 82.1 165 82.16 165 82.23 165 82.29 165 82.35 165 82.41 165 82.48 165 82.54 165 82.6 165 82.67 165 82.73 165 82.79 165 82.85 165 82.92 165 82.98 165 83.04 165 83.1 165 83.17 165 83.23 165 83.29 165 83.36 165 83.42 165 83.48 165 83.54 165 83.61 165 83.67 165 83.73 165 83.8 165 83.86 165 83.92 165 83.98 165 84.05 165 84.11 165 84.17 165 84.24 165 84.3 165 84.36 165 84.42 165 84.49 165 84.55 165 84.61 165 84.68 165 84.74 165 84.8 165 84.86 165 84.93 165 84.99 165 85.05 165 85.11 165 85.18 165 85.24 165 85.3 165 85.37 165 85.43 165 85.49 165 85.55 165 85.62 165 85.68 165 85.74 165 85.81 165 85.87 165 85.93 165 85.99 165 86.06 165 86.12 165 86.18 165 86.25 165 86.31 165 86.37 165 86.43 165 86.5 165 86.56 165 86.62 165 86.69 165 86.75 165 86.81 165 86.87 165 86.94 165 87 165 87.06 165 87.13 165 87.19 165 87.25 165 87.31 165 87.38 165 87.44 165 87.5 165 87.56 165 87.63 165 87.69 165 87.75 165 87.82 165 87.88 165 87.94 165 88 165 88.07 165 88.13 165 88.19 165 88.26 165 88.32 165 88.38 165 88.44 165 88.51 165 88.57 165 88.63 165 88.7 165 88.76 165 88.82 165 88.88 165 88.95 165 89.01 165 89.07 165 89.14 165 89.2 165 89.26 165 89.32 165 89.39 165 89.45 165 89.51 165 89.57 165 89.64 165 89.7 165 89.76 165 89.83 165 89.89 165 89.95 165 90.01 165 90.08 165 90.14 165 90.2 165 90.27 165 90.33 165 90.39 165 90.45 165 90.52 165 90.58 165 90.64 165 90.71 165 90.77 165 90.83 165 90.89 165 90.96 165 91.02 165 91.08 165 91.15 165 91.21 165 91.27 165 91.33 165 91.4 165 91.46 165 91.52 165 91.58 165 91.65 165 91.71 165 91.77 165 91.84 165 91.9 165 91.96 165 92.02 165 92.09 165 92.15 165 92.21 165 92.28 165 92.34 165 92.4 165 92.46 165 92.53 165 92.59 165 92.65 165 92.72 165 92.78 165 92.84 165 92.9 165 92.97 165 93.03 165 93.09 165 93.16 165 93.22 165 93.28 165 93.34 165 93.41 165 93.47 165 93.53 165 93.59 165 93.66 165 93.72 165 93.78 165 93.85 165 93.91 165 93.97 165 94.03 165 94.1 165 94.16 165 94.22 165 94.29 165 94.35 165 94.41 165 94.47 165 94.54 165 94.6 165"/>
      </g>
    </g>
  </g>
</g>
  <g class="guide ylabels" font-size="2.82" font-family="'PT Sans Caption','Helvetica Neue','Helvetica',sans-serif" fill="#6C606B" id="img-03fd9847-24">
    <text x="28.78" y="165" text-anchor="end" dy="0.35em">-3.7483332</text>
  </g>
  <g font-size="3.88" font-family="'PT Sans','Helvetica Neue','Helvetica',sans-serif" fill="#564A55" stroke="#000000" stroke-opacity="0.000" id="img-03fd9847-25">
    <text x="8.81" y="163" text-anchor="middle" dy="0.35em" transform="rotate(-90, 8.81, 165)">Value</text>
  </g>
  <g font-size="3.88" font-family="'PT Sans','Helvetica Neue','Helvetica',sans-serif" fill="#564A55" stroke="#000000" stroke-opacity="0.000" id="img-03fd9847-26">
    <text x="63.19" y="140.47" text-anchor="middle" dy="0.6em">le</text>
  </g>
</g>
<g class="plotroot xscalable yscalable" id="img-03fd9847-27">
  <g font-size="3.88" font-family="'PT Sans','Helvetica Neue','Helvetica',sans-serif" fill="#564A55" stroke="#000000" stroke-opacity="0.000" id="img-03fd9847-28">
    <text x="159.22" y="123.85" text-anchor="middle" dy="0.6em">Value</text>
  </g>
  <g class="guide xlabels" font-size="2.82" font-family="'PT Sans Caption','Helvetica Neue','Helvetica',sans-serif" fill="#6C606B" id="img-03fd9847-29">
    <text x="122.23" y="117.18" text-anchor="middle" dy="0.6em">-1</text>
    <text x="131.48" y="117.18" text-anchor="middle" dy="0.6em">0</text>
    <text x="140.72" y="117.18" text-anchor="middle" dy="0.6em">1</text>
    <text x="149.97" y="117.18" text-anchor="middle" dy="0.6em">2</text>
    <text x="159.22" y="117.18" text-anchor="middle" dy="0.6em">3</text>
    <text x="168.46" y="117.18" text-anchor="middle" dy="0.6em">4</text>
    <text x="177.71" y="117.18" text-anchor="middle" dy="0.6em">5</text>
    <text x="186.95" y="117.18" text-anchor="middle" dy="0.6em">6</text>
    <text x="196.2" y="117.18" text-anchor="middle" dy="0.6em">7</text>
  </g>
<g clip-path="url(#img-03fd9847-30)">
  <g id="img-03fd9847-31">
    <g pointer-events="visible" opacity="1" fill="#000000" fill-opacity="0.000" stroke="#000000" stroke-opacity="0.000" class="guide background" id="img-03fd9847-32">
      <rect x="120.23" y="78.34" width="77.97" height="37.84"/>
    </g>
    <g class="guide ygridlines xfixed" stroke-dasharray="0.5,0.5" stroke-width="0.2" stroke="#D0D0E0" id="img-03fd9847-33">
      <path fill="none" d="M120.23,114.18 L 198.2 114.18"/>
      <path fill="none" d="M120.23,105.72 L 198.2 105.72"/>
      <path fill="none" d="M120.23,97.26 L 198.2 97.26"/>
      <path fill="none" d="M120.23,88.8 L 198.2 88.8"/>
      <path fill="none" d="M120.23,80.34 L 198.2 80.34"/>
    </g>
    <g class="guide xgridlines yfixed" stroke-dasharray="0.5,0.5" stroke-width="0.2" stroke="#D0D0E0" id="img-03fd9847-34">
      <path fill="none" d="M122.23,78.34 L 122.23 116.18"/>
      <path fill="none" d="M131.48,78.34 L 131.48 116.18"/>
      <path fill="none" d="M140.72,78.34 L 140.72 116.18"/>
      <path fill="none" d="M149.97,78.34 L 149.97 116.18"/>
      <path fill="none" d="M159.22,78.34 L 159.22 116.18"/>
      <path fill="none" d="M168.46,78.34 L 168.46 116.18"/>
      <path fill="none" d="M177.71,78.34 L 177.71 116.18"/>
      <path fill="none" d="M186.95,78.34 L 186.95 116.18"/>
      <path fill="none" d="M196.2,78.34 L 196.2 116.18"/>
    </g>
    <g class="plotpanel" id="img-03fd9847-35">
      <g stroke-width="0.3" fill="#000000" fill-opacity="0.000" class="geometry color_1" stroke-dasharray="none" stroke="#00BFFF" id="img-03fd9847-36">
        <path fill="none" d="M129.63,114.18 L 129.89 114.18 130.15 114.18 130.41 114.18 130.66 114.18 130.92 114.17 131.18 114.17 131.44 114.16 131.7 114.15 131.95 114.13 132.21 114.1 132.47 114.06 132.73 114 132.98 113.92 133.24 113.81 133.5 113.65 133.76 113.45 134.02 113.19 134.27 112.85 134.53 112.43 134.79 111.92 135.05 111.31 135.31 110.6 135.56 109.78 135.82 108.85 136.08 107.83 136.34 106.73 136.59 105.56 136.85 104.35 137.11 103.12 137.37 101.9 137.63 100.72 137.88 99.59 138.14 98.55 138.4 97.59 138.66 96.74 138.92 96 139.17 95.36 139.43 94.81 139.69 94.34 139.95 93.93 140.2 93.55 140.46 93.2 140.72 92.85 140.98 92.49 141.24 92.11 141.49 91.71 141.75 91.28 142.01 90.83 142.27 90.37 142.53 89.93 142.78 89.51 143.04 89.15 143.3 88.86 143.56 88.66 143.81 88.57 144.07 88.61 144.33 88.77 144.59 89.07 144.85 89.49 145.1 90.03 145.36 90.67 145.62 91.39 145.88 92.17 146.14 92.99 146.39 93.83 146.65 94.67 146.91 95.51 147.17 96.32 147.42 97.1 147.68 97.85 147.94 98.56 148.2 99.23 148.46 99.86 148.71 100.45 148.97 100.99 149.23 101.49 149.49 101.94 149.75 102.35 150 102.71 150.26 103.02 150.52 103.3 150.78 103.54 151.03 103.76 151.29 103.95 151.55 104.11 151.81 104.27 152.07 104.41 152.32 104.54 152.58 104.66 152.84 104.77 153.1 104.88 153.36 104.98 153.61 105.08 153.87 105.18 154.13 105.28 154.39 105.38 154.64 105.5 154.9 105.64 155.16 105.79 155.42 105.97 155.68 106.18 155.93 106.41 156.19 106.66 156.45 106.93 156.71 107.21 156.97 107.5 157.22 107.79 157.48 108.08 157.74 108.35 158 108.6 158.25 108.84 158.51 109.05 158.77 109.25 159.03 109.43 159.29 109.6 159.54 109.76 159.8 109.91 160.06 110.06 160.32 110.2 160.58 110.35 160.83 110.49 161.09 110.63 161.35 110.77 161.61 110.9 161.86 111.04 162.12 111.17 162.38 111.29 162.64 111.42 162.9 111.53 163.15 111.64 163.41 111.74 163.67 111.83 163.93 111.92 164.19 111.99 164.44 112.06 164.7 112.11 164.96 112.15 165.22 112.18 165.47 112.2 165.73 112.21 165.99 112.21 166.25 112.21 166.51 112.2 166.76 112.19 167.02 112.19 167.28 112.19 167.54 112.19 167.8 112.21 168.05 112.23 168.31 112.27 168.57 112.31 168.83 112.36 169.08 112.41 169.34 112.47 169.6 112.53 169.86 112.6 170.12 112.66 170.37 112.71 170.63 112.76 170.89 112.81 171.15 112.84 171.41 112.86 171.66 112.86 171.92 112.86 172.18 112.84 172.44 112.81 172.69 112.77 172.95 112.73 173.21 112.68 173.47 112.63 173.73 112.59 173.98 112.54 174.24 112.51 174.5 112.48 174.76 112.47 175.02 112.46 175.27 112.47 175.53 112.49 175.79 112.52 176.05 112.56 176.31 112.61 176.56 112.67 176.82 112.73 177.08 112.8 177.34 112.87 177.59 112.94 177.85 113.01 178.11 113.08 178.37 113.15 178.63 113.22 178.88 113.28 179.14 113.34 179.4 113.4 179.66 113.46 179.92 113.51 180.17 113.56 180.43 113.6 180.69 113.64 180.95 113.67 181.2 113.69 181.46 113.71 181.72 113.72 181.98 113.73 182.24 113.73 182.49 113.73 182.75 113.72 183.01 113.71 183.27 113.7 183.53 113.68 183.78 113.67 184.04 113.65 184.3 113.64 184.56 113.62 184.81 113.61 185.07 113.6 185.33 113.59 185.59 113.58 185.85 113.58 186.1 113.58 186.36 113.59 186.62 113.6 186.88 113.61 187.14 113.63 187.39 113.66 187.65 113.69 187.91 113.73 188.17 113.77 188.42 113.81 188.68 113.85 188.94 113.89 189.2 113.93 189.46 113.97 189.71 114.01 189.97 114.04 190.23 114.07 190.49 114.09 190.75 114.11 191 114.13 191.26 114.14 191.52 114.15 191.78 114.16 192.03 114.17 192.29 114.17 192.55 114.17 192.81 114.18 193.07 114.18 193.32 114.18 193.58 114.18 193.84 114.18 194.1 114.18 194.36 114.18 194.61 114.18 194.87 114.18 195.13 114.18 195.39 114.18"/>
      </g>
    </g>
  </g>
</g>
  <g class="guide ylabels" font-size="2.82" font-family="'PT Sans Caption','Helvetica Neue','Helvetica',sans-serif" fill="#6C606B" id="img-03fd9847-37">
    <text x="119.23" y="114.18" text-anchor="end" dy="0.35em">0.0</text>
    <text x="119.23" y="105.72" text-anchor="end" dy="0.35em">0.2</text>
    <text x="119.23" y="97.26" text-anchor="end" dy="0.35em">0.4</text>
    <text x="119.23" y="88.8" text-anchor="end" dy="0.35em">0.6</text>
    <text x="119.23" y="80.34" text-anchor="end" dy="0.35em">0.8</text>
  </g>
  <g font-size="3.88" font-family="'PT Sans','Helvetica Neue','Helvetica',sans-serif" fill="#564A55" stroke="#000000" stroke-opacity="0.000" id="img-03fd9847-38">
    <text x="110.41" y="95.26" text-anchor="middle" dy="0.35em" transform="rotate(-90, 110.41, 97.26)">Density</text>
  </g>
  <g font-size="3.88" font-family="'PT Sans','Helvetica Neue','Helvetica',sans-serif" fill="#564A55" stroke="#000000" stroke-opacity="0.000" id="img-03fd9847-39">
    <text x="159.22" y="72.73" text-anchor="middle" dy="0.6em">s</text>
  </g>
</g>
<g class="plotroot xscalable yscalable" id="img-03fd9847-40">
  <g font-size="3.88" font-family="'PT Sans','Helvetica Neue','Helvetica',sans-serif" fill="#564A55" stroke="#000000" stroke-opacity="0.000" id="img-03fd9847-41">
    <text x="57.28" y="123.85" text-anchor="middle" dy="0.6em">Iteration</text>
  </g>
  <g class="guide xlabels" font-size="2.82" font-family="'PT Sans Caption','Helvetica Neue','Helvetica',sans-serif" fill="#6C606B" id="img-03fd9847-42">
    <text x="19.96" y="117.18" text-anchor="middle" dy="0.6em">0</text>
    <text x="57.28" y="117.18" text-anchor="middle" dy="0.6em">500</text>
    <text x="94.6" y="117.18" text-anchor="middle" dy="0.6em">1000</text>
  </g>
<g clip-path="url(#img-03fd9847-43)">
  <g id="img-03fd9847-44">
    <g pointer-events="visible" opacity="1" fill="#000000" fill-opacity="0.000" stroke="#000000" stroke-opacity="0.000" class="guide background" id="img-03fd9847-45">
      <rect x="17.96" y="78.34" width="78.64" height="37.84"/>
    </g>
    <g class="guide ygridlines xfixed" stroke-dasharray="0.5,0.5" stroke-width="0.2" stroke="#D0D0E0" id="img-03fd9847-46">
      <path fill="none" d="M17.96,114.18 L 96.6 114.18"/>
      <path fill="none" d="M17.96,102.9 L 96.6 102.9"/>
      <path fill="none" d="M17.96,91.62 L 96.6 91.62"/>
      <path fill="none" d="M17.96,80.34 L 96.6 80.34"/>
    </g>
    <g class="guide xgridlines yfixed" stroke-dasharray="0.5,0.5" stroke-width="0.2" stroke="#D0D0E0" id="img-03fd9847-47">
      <path fill="none" d="M19.96,78.34 L 19.96 116.18"/>
      <path fill="none" d="M57.28,78.34 L 57.28 116.18"/>
      <path fill="none" d="M94.6,78.34 L 94.6 116.18"/>
    </g>
    <g class="plotpanel" id="img-03fd9847-48">
      <g stroke-width="0.3" fill="#000000" fill-opacity="0.000" class="geometry color_1" stroke-dasharray="none" stroke="#00BFFF" id="img-03fd9847-49">
        <path fill="none" d="M20.03,110.37 L 20.11 110.37 20.18 110.37 20.26 81.43 20.33 110.65 20.41 110.65 20.48 110.65 20.56 112.16 20.63 112.16 20.7 112.16 20.78 112.16 20.85 110.47 20.93 110.47 21 110.47 21.08 110.47 21.15 105.9 21.23 109.8 21.3 109.8 21.38 109.8 21.45 107.27 21.53 107.27 21.6 111.43 21.68 111.43 21.75 111.43 21.82 109.69 21.9 110.65 21.97 110.65 22.05 110.65 22.12 110.65 22.2 108.92 22.27 112.06 22.35 112.06 22.42 112.06 22.5 112.06 22.57 108.83 22.65 109.73 22.72 109.73 22.79 109.73 22.87 111.98 22.94 112.5 23.02 111.19 23.09 111.19 23.17 111.19 23.24 111.7 23.32 111.7 23.39 111.7 23.47 92.92 23.54 107.44 23.62 107.44 23.69 105.65 23.77 110.79 23.84 110.79 23.91 110.81 23.99 110.81 24.06 109.61 24.14 109.61 24.21 109.24 24.29 104.58 24.36 110.18 24.44 103.58 24.51 111.21 24.59 110.85 24.66 109.86 24.74 100.76 24.81 109.24 24.88 109.24 24.96 108.04 25.03 112.13 25.11 109.3 25.18 108.62 25.26 108.62 25.33 108.3 25.41 110.35 25.48 111.95 25.56 111.95 25.63 111.95 25.71 111.95 25.78 105.02 25.86 112.95 25.93 109.71 26 109.71 26.08 109.71 26.15 110.77 26.23 110.77 26.3 110.77 26.38 110.77 26.45 111.01 26.53 111.01 26.6 104.04 26.68 111.04 26.75 111.04 26.83 111.04 26.9 111.04 26.97 110.01 27.05 110.01 27.12 103.66 27.2 109.26 27.27 109.26 27.35 109.26 27.42 110.09 27.5 110.09 27.57 110.09 27.65 101.14 27.72 110.39 27.8 110.39 27.87 109 27.94 109.44 28.02 108.18 28.09 101.73 28.17 112.85 28.24 112.85 28.32 112.85 28.39 112.85 28.47 112.85 28.54 112.85 28.62 112.85 28.69 112.85 28.77 112.85 28.84 112.85 28.92 107.17 28.99 107.17 29.06 98.74 29.14 111.86 29.21 103.13 29.29 110.9 29.36 112.47 29.44 111.59 29.51 109.81 29.59 112.1 29.66 112.1 29.74 105.84 29.81 109.02 29.89 95.79 29.96 112.07 30.03 112.07 30.11 112.07 30.18 110.28 30.26 108.16 30.33 108.16 30.41 112.26 30.48 107.64 30.56 107.64 30.63 109.27 30.71 109.27 30.78 99.62 30.86 108.02 30.93 109.35 31.01 109.35 31.08 106.18 31.15 110.18 31.23 110.18 31.3 110.18 31.38 107.32 31.45 110.55 31.53 110.55 31.6 110.55 31.68 106.96 31.75 106.96 31.83 109.8 31.9 109.9 31.98 109.9 32.05 109.9 32.12 110.13 32.2 110.13 32.27 110.13 32.35 111.87 32.42 111.87 32.5 104.13 32.57 111.7 32.65 109.84 32.72 110.56 32.8 111.68 32.87 99.63 32.95 111.1 33.02 112.27 33.1 112.27 33.17 112.27 33.24 112.27 33.32 112.27 33.39 112.27 33.47 112.27 33.54 110.84 33.62 110.84 33.69 108.44 33.77 108.42 33.84 108.42 33.92 108.42 33.99 111.23 34.07 111.23 34.14 111.23 34.21 111.51 34.29 111.51 34.36 111.51 34.44 111.51 34.51 111.51 34.59 111.2 34.66 111.2 34.74 111.2 34.81 111.2 34.89 107.53 34.96 110.17 35.04 110.17 35.11 110.17 35.19 111.53 35.26 112.56 35.33 112.56 35.41 112.56 35.48 112.56 35.56 106.35 35.63 106.35 35.71 104.78 35.78 104.78 35.86 110.32 35.93 108.99 36.01 108.99 36.08 110.18 36.16 91.81 36.23 112.46 36.3 101.12 36.38 111.95 36.45 111.95 36.53 111.16 36.6 111.16 36.68 107.92 36.75 107.92 36.83 108.32 36.9 108.32 36.98 108.97 37.05 109.97 37.13 109.97 37.2 109.97 37.28 109.97 37.35 113 37.42 113 37.5 113 37.57 107.31 37.65 106.67 37.72 86.83 37.8 112.34 37.87 112.34 37.95 108.46 38.02 108.46 38.1 108.46 38.17 112.31 38.25 112.31 38.32 111.09 38.39 111.09 38.47 111.09 38.54 105.31 38.62 105.31 38.69 112.44 38.77 112.44 38.84 112.44 38.92 112.44 38.99 112.44 39.07 110.88 39.14 110.92 39.22 110.92 39.29 110.92 39.37 110.92 39.44 110.92 39.51 106.42 39.59 106.42 39.66 106.8 39.74 106.8 39.81 103.26 39.89 112.84 39.96 106.38 40.04 111.13 40.11 111.13 40.19 109.23 40.26 109.23 40.34 111.75 40.41 111.75 40.48 111.75 40.56 112.51 40.63 111.89 40.71 111.89 40.78 111.89 40.86 111.89 40.93 111.89 41.01 111.89 41.08 110.78 41.16 111.07 41.23 110.26 41.31 105.76 41.38 111.44 41.46 111.44 41.53 111.44 41.6 111.71 41.68 111.71 41.75 110.01 41.83 110.01 41.9 110.01 41.98 111.2 42.05 111.2 42.13 111.2 42.2 105.34 42.28 108.64 42.35 108.64 42.43 111.76 42.5 111.76 42.57 111.76 42.65 112.07 42.72 112.07 42.8 112.07 42.87 112.98 42.95 112.98 43.02 112.98 43.1 112.98 43.17 112.34 43.25 112.34 43.32 112.34 43.4 112.34 43.47 112.34 43.55 111.5 43.62 111.5 43.69 111.5 43.77 111.5 43.84 107.73 43.92 112.15 43.99 112.15 44.07 111.99 44.14 110.18 44.22 109.45 44.29 109.45 44.37 109.45 44.44 110.95 44.52 110.95 44.59 110.95 44.66 110.95 44.74 93.54 44.81 111.14 44.89 111.14 44.96 111.14 45.04 111.14 45.11 110.94 45.19 110.94 45.26 110.94 45.34 110.94 45.41 100.71 45.49 110.2 45.56 111.62 45.64 100.54 45.71 110.92 45.78 110.92 45.86 103.42 45.93 103.42 46.01 108.75 46.08 108.75 46.16 109.55 46.23 109.55 46.31 107.75 46.38 107.75 46.46 111.01 46.53 111.01 46.61 111.56 46.68 111.56 46.75 111.56 46.83 111.56 46.9 111.56 46.98 109.17 47.05 109.17 47.13 109.17 47.2 111.34 47.28 112.72 47.35 112.72 47.43 112.72 47.5 112.72 47.58 112.72 47.65 112.72 47.73 111.53 47.8 111.53 47.87 111.53 47.95 111.53 48.02 111.53 48.1 111.11 48.17 102.61 48.25 102.61 48.32 108.46 48.4 108.46 48.47 108.46 48.55 103.49 48.62 103.49 48.7 109.26 48.77 109.26 48.84 109.26 48.92 110.39 48.99 108.38 49.07 109.61 49.14 109.61 49.22 109.81 49.29 109.81 49.37 109.81 49.44 112.41 49.52 91.25 49.59 105.42 49.67 107.56 49.74 109.58 49.81 111.8 49.89 108.95 49.96 108.95 50.04 112.53 50.11 112.53 50.19 112.53 50.26 112.53 50.34 112.53 50.41 112.53 50.49 112.53 50.56 112.53 50.64 111.23 50.71 111.23 50.79 104.38 50.86 111.31 50.93 111.31 51.01 111.16 51.08 111.16 51.16 111.16 51.23 111.16 51.31 111.16 51.38 111.87 51.46 111.87 51.53 111.87 51.61 111.87 51.68 104.83 51.76 104.83 51.83 103.3 51.9 109.57 51.98 103.87 52.05 109.39 52.13 110.68 52.2 110.43 52.28 110.43 52.35 110.43 52.43 109.1 52.5 109.1 52.58 109.1 52.65 110.58 52.73 110.58 52.8 110.58 52.88 111.04 52.95 111.04 53.02 111.04 53.1 111.04 53.17 110.9 53.25 111.1 53.32 111.1 53.4 111.1 53.47 111.1 53.55 107.35 53.62 107.35 53.7 110.75 53.77 110.75 53.85 102.91 53.92 108.11 53.99 108.11 54.07 112.28 54.14 110.56 54.22 110.56 54.29 110.56 54.37 110.56 54.44 111.72 54.52 111.72 54.59 111.72 54.67 111.72 54.74 99.44 54.82 107.03 54.89 107.03 54.97 110.41 55.04 110.41 55.11 108.95 55.19 108.29 55.26 108.29 55.34 110.32 55.41 110.32 55.49 110.95 55.56 110.95 55.64 110.95 55.71 110.95 55.79 110.95 55.86 104.27 55.94 108.29 56.01 109.47 56.08 105.33 56.16 106.47 56.23 106.47 56.31 112.17 56.38 112.17 56.46 112.17 56.53 112.17 56.61 112.26 56.68 112.26 56.76 112.26 56.83 112.26 56.91 112.26 56.98 107.71 57.06 107.71 57.13 108.04 57.2 99.98 57.28 111.14 57.35 111.14 57.43 111.14 57.5 111.14 57.58 111.14 57.65 112.98 57.73 111.21 57.8 111.21 57.88 111.21 57.95 112.07 58.03 100.69 58.1 107.36 58.17 107.36 58.25 109.48 58.32 109.48 58.4 110.86 58.47 110.86 58.55 110.86 58.62 107.88 58.7 107.88 58.77 110.29 58.85 110.29 58.92 110.29 59 102.54 59.07 112.4 59.15 112.4 59.22 112.4 59.29 112.4 59.37 112.4 59.44 112.4 59.52 112.4 59.59 112.4 59.67 99.87 59.74 102.58 59.82 108.47 59.89 108.47 59.97 104.98 60.04 111.89 60.12 111.89 60.19 111.89 60.26 111.89 60.34 110.92 60.41 111.52 60.49 111.52 60.56 111.52 60.64 101.4 60.71 107.62 60.79 108.38 60.86 108.38 60.94 111.12 61.01 108.14 61.09 108.14 61.16 99.59 61.24 111.04 61.31 110.31 61.38 110.31 61.46 107.69 61.53 107.69 61.61 110.72 61.68 106.86 61.76 112.16 61.83 112.16 61.91 112.16 61.98 105.9 62.06 111.3 62.13 111.3 62.21 111.3 62.28 111.3 62.35 111.3 62.43 110.66 62.5 111.07 62.58 111.69 62.65 111.69 62.73 111.69 62.8 111.69 62.88 111.69 62.95 109.17 63.03 109.17 63.1 109.17 63.18 112.19 63.25 112.19 63.33 112.19 63.4 112.19 63.47 112.19 63.55 112.19 63.62 105.22 63.7 111.76 63.77 107.93 63.85 107.93 63.92 110.91 64 112.58 64.07 107.12 64.15 107.12 64.22 111.54 64.3 95.07 64.37 110.81 64.44 110.81 64.52 108.17 64.59 108.17 64.67 112.2 64.74 107.47 64.82 110.82 64.89 110.82 64.97 108.96 65.04 108.96 65.12 108.96 65.19 110.65 65.27 108.19 65.34 108.19 65.42 110.05 65.49 110.05 65.56 110.05 65.64 107.57 65.71 112.47 65.79 112.47 65.86 103.75 65.94 103.97 66.01 108.75 66.09 108.9 66.16 108.9 66.24 112.53 66.31 110.84 66.39 109.42 66.46 112.05 66.53 111.04 66.61 110.9 66.68 110.9 66.76 110.9 66.83 110.9 66.91 112.7 66.98 106.62 67.06 110.36 67.13 110.36 67.21 111 67.28 105.49 67.36 105.49 67.43 109.24 67.51 109.24 67.58 109.24 67.65 100.31 67.73 106.84 67.8 106.84 67.88 112.93 67.95 112.93 68.03 112.93 68.1 112.93 68.18 112.93 68.25 113.03 68.33 113.03 68.4 113.03 68.48 113.03 68.55 113.03 68.62 110.82 68.7 110.82 68.77 107.13 68.85 110.87 68.92 110.87 69 110.87 69.07 110.87 69.15 110.87 69.22 107.01 69.3 110.72 69.37 110.72 69.45 110.72 69.52 110.72 69.6 100.15 69.67 109.28 69.74 109.28 69.82 105.7 69.89 105.7 69.97 110.34 70.04 110.96 70.12 110.96 70.19 110.96 70.27 110.96 70.34 112.59 70.42 112.59 70.49 112.59 70.57 109.93 70.64 109.93 70.71 109.93 70.79 112.01 70.86 110.5 70.94 110.5 71.01 110.5 71.09 110.5 71.16 110.84 71.24 110.84 71.31 112.61 71.39 112.61 71.46 102.18 71.54 108.15 71.61 108.15 71.69 112 71.76 108.36 71.83 111.2 71.91 99.96 71.98 106.89 72.06 110.38 72.13 104.55 72.21 112.71 72.28 112.71 72.36 112.71 72.43 112.71 72.51 107.5 72.58 108.65 72.66 108.65 72.73 107.09 72.8 107.09 72.88 111.89 72.95 105.21 73.03 111.46 73.1 111.46 73.18 111.38 73.25 111.38 73.33 111.38 73.4 111.38 73.48 111.38 73.55 112.26 73.63 112.26 73.7 112.26 73.77 112.26 73.85 112.26 73.92 112.26 74 112.26 74.07 108.93 74.15 108.93 74.22 111.13 74.3 111.13 74.37 111.13 74.45 110.01 74.52 88.85 74.6 111.21 74.67 111.21 74.75 110.04 74.82 111.49 74.89 111.49 74.97 107.46 75.04 109.41 75.12 109.41 75.19 107.62 75.27 103.28 75.34 103.28 75.42 108.19 75.49 109.74 75.57 109.74 75.64 111.39 75.72 111.39 75.79 111.22 75.86 106.93 75.94 109.94 76.01 109.94 76.09 112.61 76.16 110.99 76.24 110.99 76.31 110.99 76.39 102.96 76.46 102.96 76.54 112.22 76.61 110.5 76.69 110.5 76.76 110.1 76.84 113.16 76.91 113.16 76.98 113.16 77.06 113.16 77.13 113.16 77.21 111.11 77.28 109.93 77.36 111.39 77.43 109.37 77.51 109.37 77.58 109.37 77.66 111.17 77.73 111.17 77.81 111.17 77.88 111.17 77.95 111.17 78.03 107.65 78.1 108.97 78.18 111.64 78.25 111.64 78.33 111.64 78.4 108.28 78.48 108.28 78.55 112.35 78.63 108.44 78.7 108.44 78.78 103.77 78.85 106.05 78.93 112.06 79 112.06 79.07 112.06 79.15 103.75 79.22 108.71 79.3 106.29 79.37 110.79 79.45 110.79 79.52 111.51 79.6 111.51 79.67 111.51 79.75 111.51 79.82 111.51 79.9 111.7 79.97 111.7 80.04 111.7 80.12 111.7 80.19 111.7 80.27 111.7 80.34 111.68 80.42 111.68 80.49 111.68 80.57 111.68 80.64 111.68 80.72 108.16 80.79 108.16 80.87 111.17 80.94 109.05 81.02 109.05 81.09 110.24 81.16 108.88 81.24 108.88 81.31 111.26 81.39 88.01 81.46 111.05 81.54 111.05 81.61 111.05 81.69 111.05 81.76 109.56 81.84 111.8 81.91 110.41 81.99 110.41 82.06 110.41 82.13 111.46 82.21 111.46 82.28 108.76 82.36 108.76 82.43 106.4 82.51 106.4 82.58 112.32 82.66 112.32 82.73 112.32 82.81 112.32 82.88 112.32 82.96 112.32 83.03 112.32 83.11 103.76 83.18 112.68 83.25 112.68 83.33 112.68 83.4 112.68 83.48 112.68 83.55 112.68 83.63 112.68 83.7 108.37 83.78 108.37 83.85 96.09 83.93 105.5 84 110.85 84.08 110.85 84.15 108.75 84.22 113.31 84.3 92.26 84.37 109.35 84.45 112.91 84.52 112.91 84.6 112.91 84.67 110.63 84.75 99.67 84.82 111.2 84.9 111.43 84.97 111.43 85.05 111.43 85.12 111.43 85.2 111.43 85.27 112.69 85.34 112.69 85.42 112.69 85.49 112.69 85.57 112.69 85.64 110.43 85.72 112.6 85.79 112.6 85.87 112.6 85.94 112.6 86.02 112.6 86.09 112.6 86.17 112.6 86.24 112.6 86.31 112.6 86.39 106.34 86.46 108.44 86.54 108.21 86.61 108.21 86.69 108.21 86.76 108.37 86.84 110.44 86.91 108.29 86.99 108.29 87.06 111.08 87.14 111.08 87.21 111.08 87.29 111.08 87.36 103.84 87.43 108.7 87.51 111.01 87.58 111.01 87.66 105.42 87.73 105.01 87.81 105.01 87.88 111.45 87.96 111.45 88.03 110.49 88.11 110.49 88.18 112.42 88.26 112.42 88.33 112.04 88.4 110.25 88.48 108.99 88.55 108.99 88.63 111.14 88.7 111.14 88.78 111.14 88.85 111.14 88.93 111.14 89 108.4 89.08 108.4 89.15 97.17 89.23 110.18 89.3 110.18 89.38 101.65 89.45 112.02 89.52 112.02 89.6 110.54 89.67 109.65 89.75 110.32 89.82 110.32 89.9 110.32 89.97 110.32 90.05 111.67 90.12 111.52 90.2 111.52 90.27 111.5 90.35 111.5 90.42 111.5 90.49 111.5 90.57 111.5 90.64 109.95 90.72 110.15 90.79 110.9 90.87 110.9 90.94 110.9 91.02 110.9 91.09 110.66 91.17 110.66 91.24 110.66 91.32 110.24 91.39 110.24 91.47 112.45 91.54 112.45 91.61 112.45 91.69 112.45 91.76 112.45 91.84 112.45 91.91 112.45 91.99 112.45 92.06 109.82 92.14 109.82 92.21 109.82 92.29 110.86 92.36 110.86 92.44 111.76 92.51 111.76 92.58 111.76 92.66 111.76 92.73 110.25 92.81 110.25 92.88 110.25 92.96 110.25 93.03 110.01 93.11 111.44 93.18 111.36 93.26 111.7 93.33 112.06 93.41 112.07 93.48 112.07 93.56 108.74 93.63 108.74 93.7 108.74 93.78 110.54 93.85 109.58 93.93 109.58 94 109.58 94.08 111.06 94.15 111.06 94.23 98.76 94.3 92.08 94.38 110.24 94.45 110.24 94.53 110.24 94.6 108.88"/>
      </g>
    </g>
  </g>
</g>
  <g class="guide ylabels" font-size="2.82" font-family="'PT Sans Caption','Helvetica Neue','Helvetica',sans-serif" fill="#6C606B" id="img-03fd9847-50">
    <text x="16.96" y="114.18" text-anchor="end" dy="0.35em">0</text>
    <text x="16.96" y="102.9" text-anchor="end" dy="0.35em">5</text>
    <text x="16.96" y="91.62" text-anchor="end" dy="0.35em">10</text>
    <text x="16.96" y="80.34" text-anchor="end" dy="0.35em">15</text>
  </g>
  <g font-size="3.88" font-family="'PT Sans','Helvetica Neue','Helvetica',sans-serif" fill="#564A55" stroke="#000000" stroke-opacity="0.000" id="img-03fd9847-51">
    <text x="8.81" y="95.26" text-anchor="middle" dy="0.35em" transform="rotate(-90, 8.81, 97.26)">Value</text>
  </g>
  <g font-size="3.88" font-family="'PT Sans','Helvetica Neue','Helvetica',sans-serif" fill="#564A55" stroke="#000000" stroke-opacity="0.000" id="img-03fd9847-52">
    <text x="57.28" y="72.73" text-anchor="middle" dy="0.6em">s</text>
  </g>
</g>
<g class="plotroot xscalable yscalable" id="img-03fd9847-53">
  <g font-size="3.88" font-family="'PT Sans','Helvetica Neue','Helvetica',sans-serif" fill="#564A55" stroke="#000000" stroke-opacity="0.000" id="img-03fd9847-54">
    <text x="159.22" y="56.12" text-anchor="middle" dy="0.6em">Value</text>
  </g>
  <g class="guide xlabels" font-size="2.82" font-family="'PT Sans Caption','Helvetica Neue','Helvetica',sans-serif" fill="#6C606B" id="img-03fd9847-55">
    <text x="122.23" y="49.45" text-anchor="middle" dy="0.6em">-2</text>
    <text x="134.56" y="49.45" text-anchor="middle" dy="0.6em">-1</text>
    <text x="146.89" y="49.45" text-anchor="middle" dy="0.6em">0</text>
    <text x="159.22" y="49.45" text-anchor="middle" dy="0.6em">1</text>
    <text x="171.54" y="49.45" text-anchor="middle" dy="0.6em">2</text>
    <text x="183.87" y="49.45" text-anchor="middle" dy="0.6em">3</text>
    <text x="196.2" y="49.45" text-anchor="middle" dy="0.6em">4</text>
  </g>
<g clip-path="url(#img-03fd9847-56)">
  <g id="img-03fd9847-57">
    <g pointer-events="visible" opacity="1" fill="#000000" fill-opacity="0.000" stroke="#000000" stroke-opacity="0.000" class="guide background" id="img-03fd9847-58">
      <rect x="120.23" y="10.61" width="77.97" height="37.84"/>
    </g>
    <g class="guide ygridlines xfixed" stroke-dasharray="0.5,0.5" stroke-width="0.2" stroke="#D0D0E0" id="img-03fd9847-59">
      <path fill="none" d="M120.23,46.45 L 198.2 46.45"/>
      <path fill="none" d="M120.23,37.99 L 198.2 37.99"/>
      <path fill="none" d="M120.23,29.53 L 198.2 29.53"/>
      <path fill="none" d="M120.23,21.07 L 198.2 21.07"/>
      <path fill="none" d="M120.23,12.61 L 198.2 12.61"/>
    </g>
    <g class="guide xgridlines yfixed" stroke-dasharray="0.5,0.5" stroke-width="0.2" stroke="#D0D0E0" id="img-03fd9847-60">
      <path fill="none" d="M122.23,10.61 L 122.23 48.45"/>
      <path fill="none" d="M134.56,10.61 L 134.56 48.45"/>
      <path fill="none" d="M146.89,10.61 L 146.89 48.45"/>
      <path fill="none" d="M159.22,10.61 L 159.22 48.45"/>
      <path fill="none" d="M171.54,10.61 L 171.54 48.45"/>
      <path fill="none" d="M183.87,10.61 L 183.87 48.45"/>
      <path fill="none" d="M196.2,10.61 L 196.2 48.45"/>
    </g>
    <g class="plotpanel" id="img-03fd9847-61">
      <g stroke-width="0.3" fill="#000000" fill-opacity="0.000" class="geometry color_1" stroke-dasharray="none" stroke="#00BFFF" id="img-03fd9847-62">
        <path fill="none" d="M133.64,46.45 L 133.85 46.45 134.07 46.45 134.29 46.45 134.51 46.45 134.72 46.45 134.94 46.45 135.16 46.45 135.38 46.45 135.6 46.44 135.81 46.44 136.03 46.44 136.25 46.44 136.47 46.43 136.68 46.42 136.9 46.42 137.12 46.4 137.34 46.39 137.56 46.37 137.77 46.35 137.99 46.32 138.21 46.28 138.43 46.24 138.64 46.19 138.86 46.13 139.08 46.06 139.3 45.98 139.52 45.89 139.73 45.78 139.95 45.67 140.17 45.54 140.39 45.4 140.61 45.25 140.82 45.08 141.04 44.91 141.26 44.73 141.48 44.54 141.69 44.34 141.91 44.14 142.13 43.94 142.35 43.74 142.57 43.53 142.78 43.33 143 43.14 143.22 42.95 143.44 42.76 143.65 42.58 143.87 42.4 144.09 42.23 144.31 42.06 144.53 41.9 144.74 41.75 144.96 41.59 145.18 41.44 145.4 41.29 145.61 41.13 145.83 40.98 146.05 40.82 146.27 40.66 146.49 40.5 146.7 40.32 146.92 40.14 147.14 39.95 147.36 39.75 147.57 39.53 147.79 39.3 148.01 39.06 148.23 38.8 148.45 38.52 148.66 38.22 148.88 37.91 149.1 37.57 149.32 37.22 149.53 36.86 149.75 36.48 149.97 36.08 150.19 35.68 150.41 35.27 150.62 34.86 150.84 34.45 151.06 34.04 151.28 33.63 151.49 33.24 151.71 32.85 151.93 32.46 152.15 32.09 152.37 31.73 152.58 31.36 152.8 31.01 153.02 30.65 153.24 30.29 153.45 29.92 153.67 29.55 153.89 29.17 154.11 28.77 154.33 28.37 154.54 27.95 154.76 27.53 154.98 27.09 155.2 26.65 155.41 26.21 155.63 25.77 155.85 25.33 156.07 24.89 156.29 24.47 156.5 24.06 156.72 23.67 156.94 23.29 157.16 22.93 157.37 22.59 157.59 22.28 157.81 21.98 158.03 21.72 158.25 21.49 158.46 21.28 158.68 21.11 158.9 20.97 159.12 20.87 159.34 20.8 159.55 20.77 159.77 20.78 159.99 20.83 160.21 20.91 160.42 21.02 160.64 21.16 160.86 21.33 161.08 21.51 161.3 21.72 161.51 21.94 161.73 22.17 161.95 22.41 162.17 22.66 162.38 22.92 162.6 23.18 162.82 23.45 163.04 23.74 163.26 24.04 163.47 24.35 163.69 24.67 163.91 25.01 164.13 25.37 164.34 25.73 164.56 26.09 164.78 26.46 165 26.81 165.22 27.16 165.43 27.47 165.65 27.77 165.87 28.02 166.09 28.24 166.3 28.41 166.52 28.55 166.74 28.64 166.96 28.7 167.18 28.73 167.39 28.73 167.61 28.72 167.83 28.7 168.05 28.69 168.26 28.69 168.48 28.72 168.7 28.79 168.92 28.9 169.14 29.07 169.35 29.29 169.57 29.57 169.79 29.91 170.01 30.31 170.22 30.77 170.44 31.28 170.66 31.83 170.88 32.41 171.1 33.02 171.31 33.65 171.53 34.28 171.75 34.9 171.97 35.51 172.18 36.1 172.4 36.67 172.62 37.19 172.84 37.68 173.06 38.13 173.27 38.53 173.49 38.9 173.71 39.22 173.93 39.51 174.14 39.77 174.36 40 174.58 40.2 174.8 40.39 175.02 40.57 175.23 40.74 175.45 40.91 175.67 41.07 175.89 41.25 176.1 41.43 176.32 41.62 176.54 41.81 176.76 42.01 176.98 42.22 177.19 42.43 177.41 42.64 177.63 42.86 177.85 43.06 178.07 43.27 178.28 43.46 178.5 43.65 178.72 43.83 178.94 43.99 179.15 44.15 179.37 44.29 179.59 44.43 179.81 44.56 180.03 44.67 180.24 44.78 180.46 44.89 180.68 44.99 180.9 45.08 181.11 45.17 181.33 45.26 181.55 45.35 181.77 45.44 181.99 45.52 182.2 45.6 182.42 45.68 182.64 45.76 182.86 45.84 183.07 45.91 183.29 45.98 183.51 46.04 183.73 46.1 183.95 46.16 184.16 46.2 184.38 46.25 184.6 46.28 184.82 46.32 185.03 46.34 185.25 46.37 185.47 46.38 185.69 46.4 185.91 46.41 186.12 46.42 186.34 46.43 186.56 46.43 186.78 46.44 186.99 46.44 187.21 46.44 187.43 46.44 187.65 46.45 187.87 46.45 188.08 46.45 188.3 46.45 188.52 46.45 188.74 46.45 188.95 46.45 189.17 46.45"/>
      </g>
    </g>
  </g>
</g>
  <g class="guide ylabels" font-size="2.82" font-family="'PT Sans Caption','Helvetica Neue','Helvetica',sans-serif" fill="#6C606B" id="img-03fd9847-63">
    <text x="119.23" y="46.45" text-anchor="end" dy="0.35em">0.0</text>
    <text x="119.23" y="37.99" text-anchor="end" dy="0.35em">0.2</text>
    <text x="119.23" y="29.53" text-anchor="end" dy="0.35em">0.4</text>
    <text x="119.23" y="21.07" text-anchor="end" dy="0.35em">0.6</text>
    <text x="119.23" y="12.61" text-anchor="end" dy="0.35em">0.8</text>
  </g>
  <g font-size="3.88" font-family="'PT Sans','Helvetica Neue','Helvetica',sans-serif" fill="#564A55" stroke="#000000" stroke-opacity="0.000" id="img-03fd9847-64">
    <text x="110.41" y="27.53" text-anchor="middle" dy="0.35em" transform="rotate(-90, 110.41, 29.53)">Density</text>
  </g>
  <g font-size="3.88" font-family="'PT Sans','Helvetica Neue','Helvetica',sans-serif" fill="#564A55" stroke="#000000" stroke-opacity="0.000" id="img-03fd9847-65">
    <text x="159.22" y="5" text-anchor="middle" dy="0.6em">m</text>
  </g>
</g>
<g class="plotroot xscalable yscalable" id="img-03fd9847-66">
  <g font-size="3.88" font-family="'PT Sans','Helvetica Neue','Helvetica',sans-serif" fill="#564A55" stroke="#000000" stroke-opacity="0.000" id="img-03fd9847-67">
    <text x="57" y="56.12" text-anchor="middle" dy="0.6em">Iteration</text>
  </g>
  <g class="guide xlabels" font-size="2.82" font-family="'PT Sans Caption','Helvetica Neue','Helvetica',sans-serif" fill="#6C606B" id="img-03fd9847-68">
    <text x="19.4" y="49.45" text-anchor="middle" dy="0.6em">0</text>
    <text x="57" y="49.45" text-anchor="middle" dy="0.6em">500</text>
    <text x="94.6" y="49.45" text-anchor="middle" dy="0.6em">1000</text>
  </g>
<g clip-path="url(#img-03fd9847-69)">
  <g id="img-03fd9847-70">
    <g pointer-events="visible" opacity="1" fill="#000000" fill-opacity="0.000" stroke="#000000" stroke-opacity="0.000" class="guide background" id="img-03fd9847-71">
      <rect x="17.4" y="10.61" width="79.2" height="37.84"/>
    </g>
    <g class="guide ygridlines xfixed" stroke-dasharray="0.5,0.5" stroke-width="0.2" stroke="#D0D0E0" id="img-03fd9847-72">
      <path fill="none" d="M17.4,46.45 L 96.6 46.45"/>
      <path fill="none" d="M17.4,37.99 L 96.6 37.99"/>
      <path fill="none" d="M17.4,29.53 L 96.6 29.53"/>
      <path fill="none" d="M17.4,21.07 L 96.6 21.07"/>
      <path fill="none" d="M17.4,12.61 L 96.6 12.61"/>
    </g>
    <g class="guide xgridlines yfixed" stroke-dasharray="0.5,0.5" stroke-width="0.2" stroke="#D0D0E0" id="img-03fd9847-73">
      <path fill="none" d="M19.4,10.61 L 19.4 48.45"/>
      <path fill="none" d="M57,10.61 L 57 48.45"/>
      <path fill="none" d="M94.6,10.61 L 94.6 48.45"/>
    </g>
    <g class="plotpanel" id="img-03fd9847-74">
      <g stroke-width="0.3" fill="#000000" fill-opacity="0.000" class="geometry color_1" stroke-dasharray="none" stroke="#00BFFF" id="img-03fd9847-75">
        <path fill="none" d="M19.47,34.71 L 19.55 34.71 19.62 34.71 19.7 38.08 19.77 34.89 19.85 34.89 19.92 34.89 20 33.58 20.08 33.58 20.15 33.58 20.23 33.58 20.3 32.71 20.38 32.71 20.45 32.71 20.53 32.71 20.6 20.99 20.68 28.05 20.75 28.05 20.83 28.05 20.9 32.35 20.98 32.35 21.05 35.03 21.13 35.03 21.2 35.03 21.28 36.63 21.35 32.33 21.43 32.33 21.5 32.33 21.58 32.33 21.65 37.44 21.73 33.73 21.8 33.73 21.88 33.73 21.96 33.73 22.03 37.06 22.11 31.81 22.18 31.81 22.26 31.81 22.33 35.99 22.41 35.72 22.48 33.97 22.56 33.97 22.63 33.97 22.71 34.92 22.78 34.92 22.86 34.92 22.93 33.27 23.01 34.73 23.08 34.73 23.16 39.67 23.23 27.2 23.31 27.2 23.38 36.09 23.46 36.09 23.53 34.8 23.61 34.8 23.68 39.45 23.76 36.91 23.84 35.24 23.91 44.37 23.99 36.55 24.06 36.3 24.14 37.57 24.21 38.05 24.29 35.26 24.36 35.26 24.44 34.37 24.51 37.12 24.59 37.63 24.66 34.34 24.74 34.34 24.81 35.62 24.89 36.73 24.96 33.95 25.04 33.95 25.11 33.95 25.19 33.95 25.26 35.25 25.34 35.92 25.41 31.86 25.49 31.86 25.56 31.86 25.64 27.92 25.72 27.92 25.79 27.92 25.87 27.92 25.94 34.8 26.02 34.8 26.09 43.46 26.17 33.23 26.24 33.23 26.32 33.23 26.39 33.23 26.47 34.99 26.54 34.99 26.62 28.48 26.69 30.38 26.77 30.38 26.84 30.38 26.92 28.18 26.99 28.18 27.07 28.18 27.14 32.51 27.22 35.21 27.29 35.21 27.37 39.26 27.44 35.33 27.52 38.74 27.6 34.93 27.67 30.09 27.75 30.09 27.82 30.09 27.9 30.09 27.97 30.09 28.05 30.09 28.12 30.09 28.2 30.09 28.27 30.09 28.35 30.09 28.42 27.36 28.5 27.36 28.57 32.84 28.65 36.69 28.72 25.18 28.8 36.68 28.87 36.13 28.95 35.97 29.02 37.83 29.1 35.13 29.17 35.13 29.25 38.39 29.32 37.6 29.4 28.08 29.48 34.5 29.55 34.5 29.63 34.5 29.7 36.69 29.78 32.91 29.85 32.91 29.93 38.27 30 30.86 30.08 30.86 30.15 35.35 30.23 35.35 30.3 23.83 30.38 36.8 30.45 36.11 30.53 36.11 30.6 31.57 30.68 33.53 30.75 33.53 30.83 33.53 30.9 25 30.98 34.58 31.05 34.58 31.13 34.58 31.2 31.25 31.28 31.25 31.36 37.8 31.43 34.35 31.51 34.35 31.58 34.35 31.66 32.97 31.73 32.97 31.81 32.97 31.88 35.68 31.96 35.68 32.03 33.55 32.11 36.27 32.18 40.12 32.26 36.03 32.33 38.12 32.41 40.15 32.48 36.48 32.56 30.63 32.63 30.63 32.71 30.63 32.78 30.63 32.86 30.63 32.93 30.63 33.01 30.63 33.09 36.18 33.16 36.18 33.24 37.38 33.31 30.46 33.39 30.46 33.46 30.46 33.54 34.13 33.61 34.13 33.69 34.13 33.76 31.91 33.84 31.91 33.91 31.91 33.99 31.91 34.06 31.91 34.14 32.42 34.21 32.42 34.29 32.42 34.36 32.42 34.44 43.58 34.51 32.11 34.59 32.11 34.66 32.11 34.74 36.87 34.81 33.81 34.89 33.81 34.97 33.81 35.04 33.81 35.12 29.81 35.19 29.81 35.27 32.96 35.34 32.96 35.42 39.11 35.49 32.29 35.57 32.29 35.64 38.51 35.72 40.51 35.79 35.41 35.87 34.87 35.94 35.41 36.02 35.41 36.09 26.22 36.17 26.22 36.24 35.55 36.32 35.55 36.39 33.63 36.47 33.63 36.54 35.65 36.62 30.36 36.69 30.36 36.77 30.36 36.85 30.36 36.92 34.15 37 34.15 37.07 34.15 37.15 38.48 37.22 37.63 37.3 30.7 37.37 34.9 37.45 34.9 37.52 30.15 37.6 30.15 37.67 30.15 37.75 34.87 37.82 34.87 37.9 33.51 37.97 33.51 38.05 33.51 38.12 35.29 38.2 35.29 38.27 33.18 38.35 33.18 38.42 33.18 38.5 33.18 38.57 33.18 38.65 36.02 38.73 31.11 38.8 31.11 38.88 31.11 38.95 31.11 39.03 31.11 39.1 28.44 39.18 28.44 39.25 29.92 39.33 29.92 39.4 35.21 39.48 35.06 39.55 24.8 39.63 25.42 39.7 25.42 39.78 34.68 39.85 34.68 39.93 34.56 40 34.56 40.08 34.56 40.15 35.14 40.23 32.39 40.3 32.39 40.38 32.39 40.45 32.39 40.53 32.39 40.61 32.39 40.68 35.58 40.76 39.11 40.83 36.86 40.91 32.13 40.98 34.09 41.06 34.09 41.13 34.09 41.21 36.21 41.28 36.21 41.36 34.02 41.43 34.02 41.51 34.02 41.58 33.64 41.66 33.64 41.73 33.64 41.81 43.75 41.88 33.46 41.96 33.46 42.03 27.01 42.11 27.01 42.18 27.01 42.26 34.13 42.33 34.13 42.41 34.13 42.49 33.74 42.56 33.74 42.64 33.74 42.71 33.74 42.79 33.14 42.86 33.14 42.94 33.14 43.01 33.14 43.09 33.14 43.16 33.3 43.24 33.3 43.31 33.3 43.39 33.3 43.46 36.42 43.54 35.73 43.61 35.73 43.69 35.94 43.76 37.61 43.84 33.49 43.91 33.49 43.99 33.49 44.06 30.84 44.14 30.84 44.21 30.84 44.29 30.84 44.37 37.26 44.44 31.92 44.52 31.92 44.59 31.92 44.67 31.92 44.74 31.88 44.82 31.88 44.89 31.88 44.97 31.88 45.04 26.9 45.12 41 45.19 35.86 45.27 32.32 45.34 36.3 45.42 36.3 45.49 29.33 45.57 29.33 45.64 33.67 45.72 33.67 45.79 35.06 45.87 35.06 45.94 34.23 46.02 34.23 46.09 35.25 46.17 35.25 46.25 28.81 46.32 28.81 46.4 28.81 46.47 28.81 46.55 28.81 46.62 30.12 46.7 30.12 46.77 30.12 46.85 36.72 46.92 32.79 47 32.79 47.07 32.79 47.15 32.79 47.22 32.79 47.3 32.79 47.37 31.66 47.45 31.66 47.52 31.66 47.6 31.66 47.67 31.66 47.75 37.33 47.82 29.49 47.9 29.49 47.97 30.44 48.05 30.44 48.13 30.44 48.2 31.34 48.28 31.34 48.35 30.99 48.43 30.99 48.5 30.99 48.58 37.11 48.65 38.32 48.73 35.06 48.8 35.06 48.88 31.83 48.95 31.83 49.03 31.83 49.1 36.53 49.18 30.23 49.25 28.91 49.33 36.47 49.4 43.65 49.48 36.11 49.55 34.26 49.63 34.26 49.7 30.52 49.78 30.52 49.86 30.52 49.93 30.52 50.01 30.52 50.08 30.52 50.16 30.52 50.23 30.52 50.31 35.42 50.38 35.42 50.46 38.58 50.53 36.22 50.61 36.22 50.68 29.98 50.76 29.98 50.83 29.98 50.91 29.98 50.98 29.98 51.06 28.2 51.13 28.2 51.21 28.2 51.28 28.2 51.36 33.71 51.43 33.71 51.51 20.8 51.58 40.27 51.66 32.24 51.74 36.99 51.81 38.73 51.89 29.05 51.96 29.05 52.04 29.05 52.11 31.67 52.19 31.67 52.26 31.67 52.34 33.91 52.41 33.91 52.49 33.91 52.56 29.3 52.64 29.3 52.71 29.3 52.79 29.3 52.86 36.33 52.94 32.76 53.01 32.76 53.09 32.76 53.16 32.76 53.24 34.63 53.31 34.63 53.39 34.84 53.46 34.84 53.54 40.02 53.62 34.08 53.69 34.08 53.77 38.87 53.84 30.04 53.92 30.04 53.99 30.04 54.07 30.04 54.14 33.32 54.22 33.32 54.29 33.32 54.37 33.32 54.44 29.97 54.52 33.06 54.59 33.06 54.67 36.17 54.74 36.17 54.82 38 54.89 34.08 54.97 34.08 55.04 34.25 55.12 34.25 55.19 30.7 55.27 30.7 55.34 30.7 55.42 30.7 55.5 30.7 55.57 25.56 55.65 25.72 55.72 37.76 55.8 41.64 55.87 31.11 55.95 31.11 56.02 33.69 56.1 33.69 56.17 33.69 56.25 33.69 56.32 33.04 56.4 33.04 56.47 33.04 56.55 33.04 56.62 33.04 56.7 33.19 56.77 33.19 56.85 41.57 56.92 37.38 57 31.88 57.07 31.88 57.15 31.88 57.22 31.88 57.3 31.88 57.38 36.39 57.45 33.5 57.53 33.5 57.6 33.5 57.68 37.79 57.75 40.68 57.83 32.9 57.9 32.9 57.98 34 58.05 34 58.13 27.76 58.2 27.76 58.28 27.76 58.35 27.96 58.43 27.96 58.5 34.69 58.58 34.69 58.65 34.69 58.73 32.6 58.8 30.05 58.88 30.05 58.95 30.05 59.03 30.05 59.1 30.05 59.18 30.05 59.26 30.05 59.33 30.05 59.41 32.96 59.48 24.76 59.56 26.07 59.63 26.07 59.71 21.08 59.78 33.55 59.86 33.55 59.93 33.55 60.01 33.55 60.08 36.06 60.16 34.34 60.23 34.34 60.31 34.34 60.38 36.51 60.46 24.06 60.53 31.98 60.61 31.98 60.68 37.26 60.76 36.2 60.83 36.2 60.91 29.02 60.98 36.61 61.06 35.68 61.14 35.68 61.21 32.32 61.29 32.32 61.36 38.12 61.44 39.14 61.51 34.61 61.59 34.61 61.66 34.61 61.74 30.53 61.81 32.33 61.89 32.33 61.96 32.33 62.04 32.33 62.11 32.33 62.19 37.55 62.26 38.23 62.34 32.58 62.41 32.58 62.49 32.58 62.56 32.58 62.64 32.58 62.71 32.21 62.79 32.21 62.86 32.21 62.94 32.14 63.02 32.14 63.09 32.14 63.17 32.14 63.24 32.14 63.32 32.14 63.39 22.88 63.47 39.56 63.54 33.59 63.62 33.59 63.69 38.16 63.77 36.46 63.84 30.93 63.92 30.93 63.99 37.31 64.07 28.26 64.14 35.83 64.22 35.83 64.29 29.15 64.37 29.15 64.44 38.77 64.52 37.7 64.59 35.25 64.67 35.25 64.74 32.73 64.82 32.73 64.9 32.73 64.97 26 65.05 34.22 65.12 34.22 65.2 34.58 65.27 34.58 65.35 34.58 65.42 37.71 65.5 34.79 65.57 34.79 65.65 35.99 65.72 28.09 65.8 40.41 65.87 26.96 65.95 26.96 66.02 37.1 66.1 36.91 66.17 38.98 66.25 35.48 66.32 39.76 66.4 29.31 66.47 29.31 66.55 29.31 66.62 29.31 66.7 35.72 66.78 36.39 66.85 35.92 66.93 35.92 67 36.43 67.08 34.14 67.15 34.14 67.23 31.04 67.3 31.04 67.38 31.04 67.45 40.12 67.53 30.38 67.6 30.38 67.68 33.72 67.75 33.72 67.83 33.72 67.9 33.72 67.98 33.72 68.05 33.14 68.13 33.14 68.2 33.14 68.28 33.14 68.35 33.14 68.43 35.9 68.51 35.9 68.58 34.26 68.66 29.92 68.73 29.92 68.81 29.92 68.88 29.92 68.96 29.92 69.03 36.47 69.11 31.62 69.18 31.62 69.26 31.62 69.33 31.62 69.41 23.26 69.48 25.15 69.56 25.15 69.63 33.99 69.71 33.99 69.78 36.66 69.86 32.92 69.93 32.92 70.01 32.92 70.08 32.92 70.16 34.21 70.23 34.21 70.31 34.21 70.39 33.59 70.46 33.59 70.54 33.59 70.61 36.44 70.69 28.98 70.76 28.98 70.84 28.98 70.91 28.98 70.99 35.34 71.06 35.34 71.14 35.21 71.21 35.21 71.29 30.05 71.36 28.61 71.44 28.61 71.51 39.97 71.59 36.49 71.66 35.76 71.74 29.45 71.81 41.27 71.89 37.23 71.96 35.66 72.04 33.99 72.11 33.99 72.19 33.99 72.27 33.99 72.34 39.25 72.42 33.38 72.49 33.38 72.57 31.93 72.64 31.93 72.72 35.72 72.79 39.55 72.87 35.69 72.94 35.69 73.02 29.56 73.09 29.56 73.17 29.56 73.24 29.56 73.32 29.56 73.39 30.19 73.47 30.19 73.54 30.19 73.62 30.19 73.69 30.19 73.77 30.19 73.84 30.19 73.92 33.58 73.99 33.58 74.07 33.98 74.15 33.98 74.22 33.98 74.3 38.04 74.37 35.98 74.45 34.69 74.52 34.69 74.6 38.65 74.67 35.31 74.75 35.31 74.82 25.44 74.9 36.2 74.97 36.2 75.05 37.22 75.12 30.79 75.2 30.79 75.27 39.09 75.35 35.74 75.42 35.74 75.5 34.69 75.57 34.69 75.65 38.02 75.72 32.9 75.8 36.83 75.87 36.83 75.95 37.37 76.03 33.13 76.1 33.13 76.18 33.13 76.25 32.11 76.33 32.11 76.4 38.45 76.48 36.62 76.55 37.41 76.63 39.22 76.7 33.19 76.78 33.19 76.85 33.19 76.93 33.19 77 33.19 77.08 41.4 77.15 42.17 77.23 38.86 77.3 32.19 77.38 32.19 77.45 32.19 77.53 30.76 77.6 30.76 77.68 30.76 77.75 30.76 77.83 30.76 77.91 25.83 77.98 38.32 78.06 34.87 78.13 34.87 78.21 34.87 78.28 25.9 78.36 25.9 78.43 36.66 78.51 33.33 78.58 33.33 78.66 37.95 78.73 35.51 78.81 34.77 78.88 34.77 78.96 34.77 79.03 35.75 79.11 36.79 79.18 43.9 79.26 36.56 79.33 36.56 79.41 31.73 79.48 31.73 79.56 31.73 79.63 31.73 79.71 31.73 79.79 29.63 79.86 29.63 79.94 29.63 80.01 29.63 80.09 29.63 80.16 29.63 80.24 32.18 80.31 32.18 80.39 32.18 80.46 32.18 80.54 32.18 80.61 33.99 80.69 33.99 80.76 37.48 80.84 34.98 80.91 34.98 80.99 38.41 81.06 30.89 81.14 30.89 81.21 36.83 81.29 23.08 81.36 31.25 81.44 31.25 81.51 31.25 81.59 31.25 81.67 39.18 81.74 36.99 81.82 34.25 81.89 34.25 81.97 34.25 82.04 35.47 82.12 35.47 82.19 32.96 82.27 32.96 82.34 35.91 82.42 35.91 82.49 31.15 82.57 31.15 82.64 31.15 82.72 31.15 82.79 31.15 82.87 31.15 82.94 31.15 83.02 40.51 83.09 32.42 83.17 32.42 83.24 32.42 83.32 32.42 83.39 32.42 83.47 32.42 83.55 32.42 83.62 34.48 83.7 34.48 83.77 25.76 83.85 39.16 83.92 35.68 84 35.68 84.07 37.17 84.15 34.63 84.22 33.02 84.3 37.16 84.37 34.05 84.45 34.05 84.52 34.05 84.6 37.45 84.67 29.87 84.75 38.09 84.82 31.48 84.9 31.48 84.97 31.48 85.05 31.48 85.12 31.48 85.2 33.6 85.27 33.6 85.35 33.6 85.43 33.6 85.5 33.6 85.58 37.53 85.65 30.98 85.73 30.98 85.8 30.98 85.88 30.98 85.95 30.98 86.03 30.98 86.1 30.98 86.18 30.98 86.25 30.98 86.33 30.85 86.4 36.94 86.48 27.7 86.55 27.7 86.63 27.7 86.7 43.28 86.78 36.21 86.85 33.17 86.93 33.17 87 32.34 87.08 32.34 87.16 32.34 87.23 32.34 87.31 22.78 87.38 25.52 87.46 36.65 87.53 36.65 87.61 30.27 87.68 30.85 87.76 30.85 87.83 35.49 87.91 35.49 87.98 34.74 88.06 34.74 88.13 34.96 88.21 34.96 88.28 36.16 88.36 38.81 88.43 33.27 88.51 33.27 88.58 32.5 88.66 32.5 88.73 32.5 88.81 32.5 88.88 32.5 88.96 33.7 89.04 33.7 89.11 29.01 89.19 35.93 89.26 35.93 89.34 26.39 89.41 34.89 89.49 34.89 89.56 36.28 89.64 40.95 89.71 30.44 89.79 30.44 89.86 30.44 89.94 30.44 90.01 36.55 90.09 34.5 90.16 34.5 90.24 31.97 90.31 31.97 90.39 31.97 90.46 31.97 90.54 31.97 90.61 40.37 90.69 35.2 90.76 28.26 90.84 28.26 90.92 28.26 90.99 28.26 91.07 34.41 91.14 34.41 91.22 34.41 91.29 34.37 91.37 34.37 91.44 30 91.52 30 91.59 30 91.67 30 91.74 30 91.82 30 91.89 30 91.97 30 92.04 31.57 92.12 31.57 92.19 31.57 92.27 35.26 92.34 35.26 92.42 33.23 92.49 33.23 92.57 33.23 92.64 33.23 92.72 32.93 92.8 32.93 92.87 32.93 92.95 32.93 93.02 39.01 93.1 36.55 93.17 39.55 93.25 37.17 93.32 38.16 93.4 34.34 93.47 34.34 93.55 31.34 93.62 31.34 93.7 31.34 93.77 38.44 93.85 29.44 93.92 29.44 94 29.44 94.07 34.53 94.15 34.53 94.22 41.74 94.3 32.01 94.37 32.49 94.45 32.49 94.52 32.49 94.6 41.93"/>
      </g>
    </g>
  </g>
</g>
  <g class="guide ylabels" font-size="2.82" font-family="'PT Sans Caption','Helvetica Neue','Helvetica',sans-serif" fill="#6C606B" id="img-03fd9847-76">
    <text x="16.4" y="46.45" text-anchor="end" dy="0.35em">-2</text>
    <text x="16.4" y="37.99" text-anchor="end" dy="0.35em">0</text>
    <text x="16.4" y="29.53" text-anchor="end" dy="0.35em">2</text>
    <text x="16.4" y="21.07" text-anchor="end" dy="0.35em">4</text>
    <text x="16.4" y="12.61" text-anchor="end" dy="0.35em">6</text>
  </g>
  <g font-size="3.88" font-family="'PT Sans','Helvetica Neue','Helvetica',sans-serif" fill="#564A55" stroke="#000000" stroke-opacity="0.000" id="img-03fd9847-77">
    <text x="8.81" y="27.53" text-anchor="middle" dy="0.35em" transform="rotate(-90, 8.81, 29.53)">Value</text>
  </g>
  <g font-size="3.88" font-family="'PT Sans','Helvetica Neue','Helvetica',sans-serif" fill="#564A55" stroke="#000000" stroke-opacity="0.000" id="img-03fd9847-78">
    <text x="57" y="5" text-anchor="middle" dy="0.6em">m</text>
  </g>
</g>
<defs>
  <clipPath id="img-03fd9847-4">
  <path d="M117.88,146.08 L 198.2 146.08 198.2 183.91 117.88 183.91" />
</clipPath>
  <clipPath id="img-03fd9847-17">
  <path d="M29.78,146.08 L 96.6 146.08 96.6 183.91 29.78 183.91" />
</clipPath>
  <clipPath id="img-03fd9847-30">
  <path d="M120.23,78.34 L 198.2 78.34 198.2 116.18 120.23 116.18" />
</clipPath>
  <clipPath id="img-03fd9847-43">
  <path d="M17.96,78.34 L 96.6 78.34 96.6 116.18 17.96 116.18" />
</clipPath>
  <clipPath id="img-03fd9847-56">
  <path d="M120.23,10.61 L 198.2 10.61 198.2 48.45 120.23 48.45" />
</clipPath>
  <clipPath id="img-03fd9847-69">
  <path d="M17.4,10.61 L 96.6 10.61 96.6 48.45 17.4 48.45" />
</clipPath>
</defs>
</svg>
