<?xml version="1.0" encoding="UTF-8"?>
<svg xmlns="http://www.w3.org/2000/svg"
     xmlns:xlink="http://www.w3.org/1999/xlink"
     xmlns:gadfly="http://www.gadflyjl.org/ns"
     version="1.2"
     width="203.2mm" height="203.2mm" viewBox="0 0 203.2 203.2"
     stroke="none"
     fill="#000000"
     stroke-width="0.3"
     font-size="3.88"
>
<g class="plotroot xscalable yscalable" id="img-49442490-1">
  <g font-size="3.88" font-family="'PT Sans','Helvetica Neue','Helvetica',sans-serif" fill="#564A55" stroke="#000000" stroke-opacity="0.000" id="img-49442490-2">
    <text x="159.22" y="56.12" text-anchor="middle" dy="0.6em">Value</text>
  </g>
  <g class="guide xlabels" font-size="2.82" font-family="'PT Sans Caption','Helvetica Neue','Helvetica',sans-serif" fill="#6C606B" id="img-49442490-3">
    <text x="122.23" y="49.45" text-anchor="middle" dy="0.6em">-1.0</text>
    <text x="140.72" y="49.45" text-anchor="middle" dy="0.6em">-0.5</text>
    <text x="159.22" y="49.45" text-anchor="middle" dy="0.6em">0.0</text>
    <text x="177.71" y="49.45" text-anchor="middle" dy="0.6em">0.5</text>
    <text x="196.2" y="49.45" text-anchor="middle" dy="0.6em">1.0</text>
  </g>
<g clip-path="url(#img-49442490-4)">
  <g id="img-49442490-5">
    <g pointer-events="visible" opacity="1" fill="#000000" fill-opacity="0.000" stroke="#000000" stroke-opacity="0.000" class="guide background" id="img-49442490-6">
      <rect x="120.23" y="10.61" width="77.97" height="37.84"/>
    </g>
    <g class="guide ygridlines xfixed" stroke-dasharray="0.5,0.5" stroke-width="0.2" stroke="#D0D0E0" id="img-49442490-7">
      <path fill="none" d="M120.23,46.45 L 198.2 46.45"/>
      <path fill="none" d="M120.23,37.99 L 198.2 37.99"/>
      <path fill="none" d="M120.23,29.53 L 198.2 29.53"/>
      <path fill="none" d="M120.23,21.07 L 198.2 21.07"/>
      <path fill="none" d="M120.23,12.61 L 198.2 12.61"/>
    </g>
    <g class="guide xgridlines yfixed" stroke-dasharray="0.5,0.5" stroke-width="0.2" stroke="#D0D0E0" id="img-49442490-8">
      <path fill="none" d="M122.23,10.61 L 122.23 48.45"/>
      <path fill="none" d="M140.72,10.61 L 140.72 48.45"/>
      <path fill="none" d="M159.22,10.61 L 159.22 48.45"/>
      <path fill="none" d="M177.71,10.61 L 177.71 48.45"/>
      <path fill="none" d="M196.2,10.61 L 196.2 48.45"/>
    </g>
    <g class="plotpanel" id="img-49442490-9">
      <g stroke-width="0.3" fill="#000000" fill-opacity="0.000" class="geometry color_1" stroke-dasharray="none" stroke="#00BFFF" id="img-49442490-10">
        <path fill="none" d="M125.77,46.43 L 126.03 46.43 126.3 46.43 126.56 46.43 126.82 46.43 127.08 46.43 127.35 46.42 127.61 46.42 127.87 46.42 128.13 46.42 128.39 46.41 128.66 46.41 128.92 46.4 129.18 46.4 129.44 46.39 129.71 46.39 129.97 46.38 130.23 46.37 130.49 46.37 130.76 46.36 131.02 46.35 131.28 46.34 131.54 46.32 131.8 46.31 132.07 46.29 132.33 46.28 132.59 46.26 132.85 46.24 133.12 46.22 133.38 46.2 133.64 46.17 133.9 46.14 134.17 46.11 134.43 46.08 134.69 46.04 134.95 46 135.21 45.96 135.48 45.92 135.74 45.87 136 45.82 136.26 45.76 136.53 45.7 136.79 45.63 137.05 45.56 137.31 45.48 137.58 45.4 137.84 45.31 138.1 45.22 138.36 45.12 138.62 45.01 138.89 44.89 139.15 44.77 139.41 44.64 139.67 44.5 139.94 44.36 140.2 44.2 140.46 44.03 140.72 43.86 140.99 43.68 141.25 43.48 141.51 43.28 141.77 43.06 142.03 42.83 142.3 42.59 142.56 42.34 142.82 42.08 143.08 41.81 143.35 41.52 143.61 41.22 143.87 40.91 144.13 40.58 144.4 40.24 144.66 39.89 144.92 39.53 145.18 39.15 145.44 38.76 145.71 38.35 145.97 37.94 146.23 37.51 146.49 37.06 146.76 36.61 147.02 36.15 147.28 35.67 147.54 35.18 147.81 34.68 148.07 34.17 148.33 33.66 148.59 33.13 148.85 32.59 149.12 32.05 149.38 31.5 149.64 30.95 149.9 30.39 150.17 29.83 150.43 29.26 150.69 28.69 150.95 28.13 151.22 27.56 151.48 26.99 151.74 26.43 152 25.87 152.26 25.32 152.53 24.77 152.79 24.23 153.05 23.7 153.31 23.18 153.58 22.67 153.84 22.17 154.1 21.69 154.36 21.22 154.63 20.77 154.89 20.34 155.15 19.92 155.41 19.53 155.67 19.16 155.94 18.81 156.2 18.48 156.46 18.17 156.72 17.89 156.99 17.64 157.25 17.41 157.51 17.21 157.77 17.04 158.04 16.89 158.3 16.78 158.56 16.69 158.82 16.63 159.08 16.6 159.35 16.6 159.61 16.63 159.87 16.69 160.13 16.78 160.4 16.89 160.66 17.04 160.92 17.21 161.18 17.41 161.45 17.64 161.71 17.89 161.97 18.17 162.23 18.48 162.49 18.81 162.76 19.16 163.02 19.53 163.28 19.92 163.54 20.34 163.81 20.77 164.07 21.22 164.33 21.69 164.59 22.17 164.86 22.67 165.12 23.18 165.38 23.7 165.64 24.23 165.9 24.77 166.17 25.32 166.43 25.87 166.69 26.43 166.95 26.99 167.22 27.56 167.48 28.13 167.74 28.69 168 29.26 168.27 29.83 168.53 30.39 168.79 30.95 169.05 31.5 169.31 32.05 169.58 32.59 169.84 33.13 170.1 33.66 170.36 34.17 170.63 34.68 170.89 35.18 171.15 35.67 171.41 36.15 171.68 36.61 171.94 37.06 172.2 37.51 172.46 37.94 172.72 38.35 172.99 38.76 173.25 39.15 173.51 39.53 173.77 39.89 174.04 40.24 174.3 40.58 174.56 40.91 174.82 41.22 175.09 41.52 175.35 41.81 175.61 42.08 175.87 42.34 176.13 42.59 176.4 42.83 176.66 43.06 176.92 43.28 177.18 43.48 177.45 43.68 177.71 43.86 177.97 44.03 178.23 44.2 178.5 44.36 178.76 44.5 179.02 44.64 179.28 44.77 179.54 44.89 179.81 45.01 180.07 45.12 180.33 45.22 180.59 45.31 180.86 45.4 181.12 45.48 181.38 45.56 181.64 45.63 181.91 45.7 182.17 45.76 182.43 45.82 182.69 45.87 182.95 45.92 183.22 45.96 183.48 46 183.74 46.04 184 46.08 184.27 46.11 184.53 46.14 184.79 46.17 185.05 46.2 185.32 46.22 185.58 46.24 185.84 46.26 186.1 46.28 186.36 46.29 186.63 46.31 186.89 46.32 187.15 46.34 187.41 46.35 187.68 46.36 187.94 46.37 188.2 46.37 188.46 46.38 188.73 46.39 188.99 46.39 189.25 46.4 189.51 46.4 189.77 46.41 190.04 46.41 190.3 46.42 190.56 46.42 190.82 46.42 191.09 46.42 191.35 46.43 191.61 46.43 191.87 46.43 192.14 46.43 192.4 46.43 192.66 46.43"/>
      </g>
    </g>
  </g>
</g>
  <g class="guide ylabels" font-size="2.82" font-family="'PT Sans Caption','Helvetica Neue','Helvetica',sans-serif" fill="#6C606B" id="img-49442490-11">
    <text x="119.23" y="46.45" text-anchor="end" dy="0.35em">0.0</text>
    <text x="119.23" y="37.99" text-anchor="end" dy="0.35em">0.5</text>
    <text x="119.23" y="29.53" text-anchor="end" dy="0.35em">1.0</text>
    <text x="119.23" y="21.07" text-anchor="end" dy="0.35em">1.5</text>
    <text x="119.23" y="12.61" text-anchor="end" dy="0.35em">2.0</text>
  </g>
  <g font-size="3.88" font-family="'PT Sans','Helvetica Neue','Helvetica',sans-serif" fill="#564A55" stroke="#000000" stroke-opacity="0.000" id="img-49442490-12">
    <text x="110.41" y="27.53" text-anchor="middle" dy="0.35em" transform="rotate(-90, 110.41, 29.53)">Density</text>
  </g>
  <g font-size="3.88" font-family="'PT Sans','Helvetica Neue','Helvetica',sans-serif" fill="#564A55" stroke="#000000" stroke-opacity="0.000" id="img-49442490-13">
    <text x="159.22" y="5" text-anchor="middle" dy="0.6em">lp</text>
  </g>
</g>
<g class="plotroot xscalable yscalable" id="img-49442490-14">
  <g font-size="3.88" font-family="'PT Sans','Helvetica Neue','Helvetica',sans-serif" fill="#564A55" stroke="#000000" stroke-opacity="0.000" id="img-49442490-15">
    <text x="56.44" y="56.12" text-anchor="middle" dy="0.6em">Iteration</text>
  </g>
  <g class="guide xlabels" font-size="2.82" font-family="'PT Sans Caption','Helvetica Neue','Helvetica',sans-serif" fill="#6C606B" id="img-49442490-16">
    <text x="18.28" y="49.45" text-anchor="middle" dy="0.6em">0</text>
    <text x="56.44" y="49.45" text-anchor="middle" dy="0.6em">500</text>
    <text x="94.6" y="49.45" text-anchor="middle" dy="0.6em">1000</text>
  </g>
<g clip-path="url(#img-49442490-17)">
  <g id="img-49442490-18">
    <g pointer-events="visible" opacity="1" fill="#000000" fill-opacity="0.000" stroke="#000000" stroke-opacity="0.000" class="guide background" id="img-49442490-19">
      <rect x="16.28" y="10.61" width="80.32" height="37.84"/>
    </g>
    <g class="guide ygridlines xfixed" stroke-dasharray="0.5,0.5" stroke-width="0.2" stroke="#D0D0E0" id="img-49442490-20">
      <path fill="none" d="M16.28,29.53 L 96.6 29.53"/>
    </g>
    <g class="guide xgridlines yfixed" stroke-dasharray="0.5,0.5" stroke-width="0.2" stroke="#D0D0E0" id="img-49442490-21">
      <path fill="none" d="M18.28,10.61 L 18.28 48.45"/>
      <path fill="none" d="M56.44,10.61 L 56.44 48.45"/>
      <path fill="none" d="M94.6,10.61 L 94.6 48.45"/>
    </g>
    <g class="plotpanel" id="img-49442490-22">
      <g stroke-width="0.3" fill="#000000" fill-opacity="0.000" class="geometry color_1" stroke-dasharray="none" stroke="#00BFFF" id="img-49442490-23">
        <path fill="none" d="M18.36,29.53 L 18.44 29.53 18.51 29.53 18.59 29.53 18.67 29.53 18.74 29.53 18.82 29.53 18.9 29.53 18.97 29.53 19.05 29.53 19.12 29.53 19.2 29.53 19.28 29.53 19.35 29.53 19.43 29.53 19.51 29.53 19.58 29.53 19.66 29.53 19.73 29.53 19.81 29.53 19.89 29.53 19.96 29.53 20.04 29.53 20.12 29.53 20.19 29.53 20.27 29.53 20.35 29.53 20.42 29.53 20.5 29.53 20.57 29.53 20.65 29.53 20.73 29.53 20.8 29.53 20.88 29.53 20.96 29.53 21.03 29.53 21.11 29.53 21.18 29.53 21.26 29.53 21.34 29.53 21.41 29.53 21.49 29.53 21.57 29.53 21.64 29.53 21.72 29.53 21.8 29.53 21.87 29.53 21.95 29.53 22.02 29.53 22.1 29.53 22.18 29.53 22.25 29.53 22.33 29.53 22.41 29.53 22.48 29.53 22.56 29.53 22.63 29.53 22.71 29.53 22.79 29.53 22.86 29.53 22.94 29.53 23.02 29.53 23.09 29.53 23.17 29.53 23.25 29.53 23.32 29.53 23.4 29.53 23.47 29.53 23.55 29.53 23.63 29.53 23.7 29.53 23.78 29.53 23.86 29.53 23.93 29.53 24.01 29.53 24.08 29.53 24.16 29.53 24.24 29.53 24.31 29.53 24.39 29.53 24.47 29.53 24.54 29.53 24.62 29.53 24.7 29.53 24.77 29.53 24.85 29.53 24.92 29.53 25 29.53 25.08 29.53 25.15 29.53 25.23 29.53 25.31 29.53 25.38 29.53 25.46 29.53 25.53 29.53 25.61 29.53 25.69 29.53 25.76 29.53 25.84 29.53 25.92 29.53 25.99 29.53 26.07 29.53 26.15 29.53 26.22 29.53 26.3 29.53 26.37 29.53 26.45 29.53 26.53 29.53 26.6 29.53 26.68 29.53 26.76 29.53 26.83 29.53 26.91 29.53 26.98 29.53 27.06 29.53 27.14 29.53 27.21 29.53 27.29 29.53 27.37 29.53 27.44 29.53 27.52 29.53 27.6 29.53 27.67 29.53 27.75 29.53 27.82 29.53 27.9 29.53 27.98 29.53 28.05 29.53 28.13 29.53 28.21 29.53 28.28 29.53 28.36 29.53 28.43 29.53 28.51 29.53 28.59 29.53 28.66 29.53 28.74 29.53 28.82 29.53 28.89 29.53 28.97 29.53 29.05 29.53 29.12 29.53 29.2 29.53 29.27 29.53 29.35 29.53 29.43 29.53 29.5 29.53 29.58 29.53 29.66 29.53 29.73 29.53 29.81 29.53 29.88 29.53 29.96 29.53 30.04 29.53 30.11 29.53 30.19 29.53 30.27 29.53 30.34 29.53 30.42 29.53 30.5 29.53 30.57 29.53 30.65 29.53 30.72 29.53 30.8 29.53 30.88 29.53 30.95 29.53 31.03 29.53 31.11 29.53 31.18 29.53 31.26 29.53 31.33 29.53 31.41 29.53 31.49 29.53 31.56 29.53 31.64 29.53 31.72 29.53 31.79 29.53 31.87 29.53 31.95 29.53 32.02 29.53 32.1 29.53 32.17 29.53 32.25 29.53 32.33 29.53 32.4 29.53 32.48 29.53 32.56 29.53 32.63 29.53 32.71 29.53 32.78 29.53 32.86 29.53 32.94 29.53 33.01 29.53 33.09 29.53 33.17 29.53 33.24 29.53 33.32 29.53 33.4 29.53 33.47 29.53 33.55 29.53 33.62 29.53 33.7 29.53 33.78 29.53 33.85 29.53 33.93 29.53 34.01 29.53 34.08 29.53 34.16 29.53 34.23 29.53 34.31 29.53 34.39 29.53 34.46 29.53 34.54 29.53 34.62 29.53 34.69 29.53 34.77 29.53 34.85 29.53 34.92 29.53 35 29.53 35.07 29.53 35.15 29.53 35.23 29.53 35.3 29.53 35.38 29.53 35.46 29.53 35.53 29.53 35.61 29.53 35.68 29.53 35.76 29.53 35.84 29.53 35.91 29.53 35.99 29.53 36.07 29.53 36.14 29.53 36.22 29.53 36.3 29.53 36.37 29.53 36.45 29.53 36.52 29.53 36.6 29.53 36.68 29.53 36.75 29.53 36.83 29.53 36.91 29.53 36.98 29.53 37.06 29.53 37.13 29.53 37.21 29.53 37.29 29.53 37.36 29.53 37.44 29.53 37.52 29.53 37.59 29.53 37.67 29.53 37.75 29.53 37.82 29.53 37.9 29.53 37.97 29.53 38.05 29.53 38.13 29.53 38.2 29.53 38.28 29.53 38.36 29.53 38.43 29.53 38.51 29.53 38.58 29.53 38.66 29.53 38.74 29.53 38.81 29.53 38.89 29.53 38.97 29.53 39.04 29.53 39.12 29.53 39.2 29.53 39.27 29.53 39.35 29.53 39.42 29.53 39.5 29.53 39.58 29.53 39.65 29.53 39.73 29.53 39.81 29.53 39.88 29.53 39.96 29.53 40.03 29.53 40.11 29.53 40.19 29.53 40.26 29.53 40.34 29.53 40.42 29.53 40.49 29.53 40.57 29.53 40.65 29.53 40.72 29.53 40.8 29.53 40.87 29.53 40.95 29.53 41.03 29.53 41.1 29.53 41.18 29.53 41.26 29.53 41.33 29.53 41.41 29.53 41.48 29.53 41.56 29.53 41.64 29.53 41.71 29.53 41.79 29.53 41.87 29.53 41.94 29.53 42.02 29.53 42.1 29.53 42.17 29.53 42.25 29.53 42.32 29.53 42.4 29.53 42.48 29.53 42.55 29.53 42.63 29.53 42.71 29.53 42.78 29.53 42.86 29.53 42.93 29.53 43.01 29.53 43.09 29.53 43.16 29.53 43.24 29.53 43.32 29.53 43.39 29.53 43.47 29.53 43.55 29.53 43.62 29.53 43.7 29.53 43.77 29.53 43.85 29.53 43.93 29.53 44 29.53 44.08 29.53 44.16 29.53 44.23 29.53 44.31 29.53 44.38 29.53 44.46 29.53 44.54 29.53 44.61 29.53 44.69 29.53 44.77 29.53 44.84 29.53 44.92 29.53 45 29.53 45.07 29.53 45.15 29.53 45.22 29.53 45.3 29.53 45.38 29.53 45.45 29.53 45.53 29.53 45.61 29.53 45.68 29.53 45.76 29.53 45.83 29.53 45.91 29.53 45.99 29.53 46.06 29.53 46.14 29.53 46.22 29.53 46.29 29.53 46.37 29.53 46.45 29.53 46.52 29.53 46.6 29.53 46.67 29.53 46.75 29.53 46.83 29.53 46.9 29.53 46.98 29.53 47.06 29.53 47.13 29.53 47.21 29.53 47.28 29.53 47.36 29.53 47.44 29.53 47.51 29.53 47.59 29.53 47.67 29.53 47.74 29.53 47.82 29.53 47.9 29.53 47.97 29.53 48.05 29.53 48.12 29.53 48.2 29.53 48.28 29.53 48.35 29.53 48.43 29.53 48.51 29.53 48.58 29.53 48.66 29.53 48.73 29.53 48.81 29.53 48.89 29.53 48.96 29.53 49.04 29.53 49.12 29.53 49.19 29.53 49.27 29.53 49.35 29.53 49.42 29.53 49.5 29.53 49.57 29.53 49.65 29.53 49.73 29.53 49.8 29.53 49.88 29.53 49.96 29.53 50.03 29.53 50.11 29.53 50.18 29.53 50.26 29.53 50.34 29.53 50.41 29.53 50.49 29.53 50.57 29.53 50.64 29.53 50.72 29.53 50.8 29.53 50.87 29.53 50.95 29.53 51.02 29.53 51.1 29.53 51.18 29.53 51.25 29.53 51.33 29.53 51.41 29.53 51.48 29.53 51.56 29.53 51.63 29.53 51.71 29.53 51.79 29.53 51.86 29.53 51.94 29.53 52.02 29.53 52.09 29.53 52.17 29.53 52.25 29.53 52.32 29.53 52.4 29.53 52.47 29.53 52.55 29.53 52.63 29.53 52.7 29.53 52.78 29.53 52.86 29.53 52.93 29.53 53.01 29.53 53.08 29.53 53.16 29.53 53.24 29.53 53.31 29.53 53.39 29.53 53.47 29.53 53.54 29.53 53.62 29.53 53.7 29.53 53.77 29.53 53.85 29.53 53.92 29.53 54 29.53 54.08 29.53 54.15 29.53 54.23 29.53 54.31 29.53 54.38 29.53 54.46 29.53 54.53 29.53 54.61 29.53 54.69 29.53 54.76 29.53 54.84 29.53 54.92 29.53 54.99 29.53 55.07 29.53 55.15 29.53 55.22 29.53 55.3 29.53 55.37 29.53 55.45 29.53 55.53 29.53 55.6 29.53 55.68 29.53 55.76 29.53 55.83 29.53 55.91 29.53 55.98 29.53 56.06 29.53 56.14 29.53 56.21 29.53 56.29 29.53 56.37 29.53 56.44 29.53 56.52 29.53 56.6 29.53 56.67 29.53 56.75 29.53 56.82 29.53 56.9 29.53 56.98 29.53 57.05 29.53 57.13 29.53 57.21 29.53 57.28 29.53 57.36 29.53 57.43 29.53 57.51 29.53 57.59 29.53 57.66 29.53 57.74 29.53 57.82 29.53 57.89 29.53 57.97 29.53 58.05 29.53 58.12 29.53 58.2 29.53 58.27 29.53 58.35 29.53 58.43 29.53 58.5 29.53 58.58 29.53 58.66 29.53 58.73 29.53 58.81 29.53 58.88 29.53 58.96 29.53 59.04 29.53 59.11 29.53 59.19 29.53 59.27 29.53 59.34 29.53 59.42 29.53 59.5 29.53 59.57 29.53 59.65 29.53 59.72 29.53 59.8 29.53 59.88 29.53 59.95 29.53 60.03 29.53 60.11 29.53 60.18 29.53 60.26 29.53 60.33 29.53 60.41 29.53 60.49 29.53 60.56 29.53 60.64 29.53 60.72 29.53 60.79 29.53 60.87 29.53 60.95 29.53 61.02 29.53 61.1 29.53 61.17 29.53 61.25 29.53 61.33 29.53 61.4 29.53 61.48 29.53 61.56 29.53 61.63 29.53 61.71 29.53 61.78 29.53 61.86 29.53 61.94 29.53 62.01 29.53 62.09 29.53 62.17 29.53 62.24 29.53 62.32 29.53 62.4 29.53 62.47 29.53 62.55 29.53 62.62 29.53 62.7 29.53 62.78 29.53 62.85 29.53 62.93 29.53 63.01 29.53 63.08 29.53 63.16 29.53 63.23 29.53 63.31 29.53 63.39 29.53 63.46 29.53 63.54 29.53 63.62 29.53 63.69 29.53 63.77 29.53 63.85 29.53 63.92 29.53 64 29.53 64.07 29.53 64.15 29.53 64.23 29.53 64.3 29.53 64.38 29.53 64.46 29.53 64.53 29.53 64.61 29.53 64.68 29.53 64.76 29.53 64.84 29.53 64.91 29.53 64.99 29.53 65.07 29.53 65.14 29.53 65.22 29.53 65.3 29.53 65.37 29.53 65.45 29.53 65.52 29.53 65.6 29.53 65.68 29.53 65.75 29.53 65.83 29.53 65.91 29.53 65.98 29.53 66.06 29.53 66.13 29.53 66.21 29.53 66.29 29.53 66.36 29.53 66.44 29.53 66.52 29.53 66.59 29.53 66.67 29.53 66.75 29.53 66.82 29.53 66.9 29.53 66.97 29.53 67.05 29.53 67.13 29.53 67.2 29.53 67.28 29.53 67.36 29.53 67.43 29.53 67.51 29.53 67.58 29.53 67.66 29.53 67.74 29.53 67.81 29.53 67.89 29.53 67.97 29.53 68.04 29.53 68.12 29.53 68.2 29.53 68.27 29.53 68.35 29.53 68.42 29.53 68.5 29.53 68.58 29.53 68.65 29.53 68.73 29.53 68.81 29.53 68.88 29.53 68.96 29.53 69.03 29.53 69.11 29.53 69.19 29.53 69.26 29.53 69.34 29.53 69.42 29.53 69.49 29.53 69.57 29.53 69.64 29.53 69.72 29.53 69.8 29.53 69.87 29.53 69.95 29.53 70.03 29.53 70.1 29.53 70.18 29.53 70.26 29.53 70.33 29.53 70.41 29.53 70.48 29.53 70.56 29.53 70.64 29.53 70.71 29.53 70.79 29.53 70.87 29.53 70.94 29.53 71.02 29.53 71.09 29.53 71.17 29.53 71.25 29.53 71.32 29.53 71.4 29.53 71.48 29.53 71.55 29.53 71.63 29.53 71.71 29.53 71.78 29.53 71.86 29.53 71.93 29.53 72.01 29.53 72.09 29.53 72.16 29.53 72.24 29.53 72.32 29.53 72.39 29.53 72.47 29.53 72.54 29.53 72.62 29.53 72.7 29.53 72.77 29.53 72.85 29.53 72.93 29.53 73 29.53 73.08 29.53 73.16 29.53 73.23 29.53 73.31 29.53 73.38 29.53 73.46 29.53 73.54 29.53 73.61 29.53 73.69 29.53 73.77 29.53 73.84 29.53 73.92 29.53 73.99 29.53 74.07 29.53 74.15 29.53 74.22 29.53 74.3 29.53 74.38 29.53 74.45 29.53 74.53 29.53 74.61 29.53 74.68 29.53 74.76 29.53 74.83 29.53 74.91 29.53 74.99 29.53 75.06 29.53 75.14 29.53 75.22 29.53 75.29 29.53 75.37 29.53 75.44 29.53 75.52 29.53 75.6 29.53 75.67 29.53 75.75 29.53 75.83 29.53 75.9 29.53 75.98 29.53 76.06 29.53 76.13 29.53 76.21 29.53 76.28 29.53 76.36 29.53 76.44 29.53 76.51 29.53 76.59 29.53 76.67 29.53 76.74 29.53 76.82 29.53 76.89 29.53 76.97 29.53 77.05 29.53 77.12 29.53 77.2 29.53 77.28 29.53 77.35 29.53 77.43 29.53 77.51 29.53 77.58 29.53 77.66 29.53 77.73 29.53 77.81 29.53 77.89 29.53 77.96 29.53 78.04 29.53 78.12 29.53 78.19 29.53 78.27 29.53 78.34 29.53 78.42 29.53 78.5 29.53 78.57 29.53 78.65 29.53 78.73 29.53 78.8 29.53 78.88 29.53 78.96 29.53 79.03 29.53 79.11 29.53 79.18 29.53 79.26 29.53 79.34 29.53 79.41 29.53 79.49 29.53 79.57 29.53 79.64 29.53 79.72 29.53 79.79 29.53 79.87 29.53 79.95 29.53 80.02 29.53 80.1 29.53 80.18 29.53 80.25 29.53 80.33 29.53 80.41 29.53 80.48 29.53 80.56 29.53 80.63 29.53 80.71 29.53 80.79 29.53 80.86 29.53 80.94 29.53 81.02 29.53 81.09 29.53 81.17 29.53 81.24 29.53 81.32 29.53 81.4 29.53 81.47 29.53 81.55 29.53 81.63 29.53 81.7 29.53 81.78 29.53 81.86 29.53 81.93 29.53 82.01 29.53 82.08 29.53 82.16 29.53 82.24 29.53 82.31 29.53 82.39 29.53 82.47 29.53 82.54 29.53 82.62 29.53 82.69 29.53 82.77 29.53 82.85 29.53 82.92 29.53 83 29.53 83.08 29.53 83.15 29.53 83.23 29.53 83.31 29.53 83.38 29.53 83.46 29.53 83.53 29.53 83.61 29.53 83.69 29.53 83.76 29.53 83.84 29.53 83.92 29.53 83.99 29.53 84.07 29.53 84.14 29.53 84.22 29.53 84.3 29.53 84.37 29.53 84.45 29.53 84.53 29.53 84.6 29.53 84.68 29.53 84.76 29.53 84.83 29.53 84.91 29.53 84.98 29.53 85.06 29.53 85.14 29.53 85.21 29.53 85.29 29.53 85.37 29.53 85.44 29.53 85.52 29.53 85.59 29.53 85.67 29.53 85.75 29.53 85.82 29.53 85.9 29.53 85.98 29.53 86.05 29.53 86.13 29.53 86.21 29.53 86.28 29.53 86.36 29.53 86.43 29.53 86.51 29.53 86.59 29.53 86.66 29.53 86.74 29.53 86.82 29.53 86.89 29.53 86.97 29.53 87.04 29.53 87.12 29.53 87.2 29.53 87.27 29.53 87.35 29.53 87.43 29.53 87.5 29.53 87.58 29.53 87.66 29.53 87.73 29.53 87.81 29.53 87.88 29.53 87.96 29.53 88.04 29.53 88.11 29.53 88.19 29.53 88.27 29.53 88.34 29.53 88.42 29.53 88.49 29.53 88.57 29.53 88.65 29.53 88.72 29.53 88.8 29.53 88.88 29.53 88.95 29.53 89.03 29.53 89.11 29.53 89.18 29.53 89.26 29.53 89.33 29.53 89.41 29.53 89.49 29.53 89.56 29.53 89.64 29.53 89.72 29.53 89.79 29.53 89.87 29.53 89.94 29.53 90.02 29.53 90.1 29.53 90.17 29.53 90.25 29.53 90.33 29.53 90.4 29.53 90.48 29.53 90.56 29.53 90.63 29.53 90.71 29.53 90.78 29.53 90.86 29.53 90.94 29.53 91.01 29.53 91.09 29.53 91.17 29.53 91.24 29.53 91.32 29.53 91.39 29.53 91.47 29.53 91.55 29.53 91.62 29.53 91.7 29.53 91.78 29.53 91.85 29.53 91.93 29.53 92.01 29.53 92.08 29.53 92.16 29.53 92.23 29.53 92.31 29.53 92.39 29.53 92.46 29.53 92.54 29.53 92.62 29.53 92.69 29.53 92.77 29.53 92.84 29.53 92.92 29.53 93 29.53 93.07 29.53 93.15 29.53 93.23 29.53 93.3 29.53 93.38 29.53 93.46 29.53 93.53 29.53 93.61 29.53 93.68 29.53 93.76 29.53 93.84 29.53 93.91 29.53 93.99 29.53 94.07 29.53 94.14 29.53 94.22 29.53 94.29 29.53 94.37 29.53 94.45 29.53 94.52 29.53 94.6 29.53"/>
      </g>
    </g>
  </g>
</g>
  <g class="guide ylabels" font-size="2.82" font-family="'PT Sans Caption','Helvetica Neue','Helvetica',sans-serif" fill="#6C606B" id="img-49442490-24">
    <text x="15.28" y="29.53" text-anchor="end" dy="0.35em">0</text>
  </g>
  <g font-size="3.88" font-family="'PT Sans','Helvetica Neue','Helvetica',sans-serif" fill="#564A55" stroke="#000000" stroke-opacity="0.000" id="img-49442490-25">
    <text x="8.81" y="27.53" text-anchor="middle" dy="0.35em" transform="rotate(-90, 8.81, 29.53)">Value</text>
  </g>
  <g font-size="3.88" font-family="'PT Sans','Helvetica Neue','Helvetica',sans-serif" fill="#564A55" stroke="#000000" stroke-opacity="0.000" id="img-49442490-26">
    <text x="56.44" y="5" text-anchor="middle" dy="0.6em">lp</text>
  </g>
</g>
<defs>
  <clipPath id="img-49442490-4">
  <path d="M120.23,10.61 L 198.2 10.61 198.2 48.45 120.23 48.45" />
</clipPath>
  <clipPath id="img-49442490-17">
  <path d="M16.28,10.61 L 96.6 10.61 96.6 48.45 16.28 48.45" />
</clipPath>
</defs>
</svg>
