<?xml version="1.0" encoding="UTF-8"?>
<svg xmlns="http://www.w3.org/2000/svg"
     xmlns:xlink="http://www.w3.org/1999/xlink"
     xmlns:gadfly="http://www.gadflyjl.org/ns"
     version="1.2"
     width="203.2mm" height="203.2mm" viewBox="0 0 203.2 203.2"
     stroke="none"
     fill="#000000"
     stroke-width="0.3"
     font-size="3.88"
>
<g class="plotroot xscalable yscalable" id="img-cf5bc5ab-1">
  <g font-size="3.88" font-family="'PT Sans','Helvetica Neue','Helvetica',sans-serif" fill="#564A55" stroke="#000000" stroke-opacity="0.000" id="img-cf5bc5ab-2">
    <text x="159.22" y="191.59" text-anchor="middle" dy="0.6em">Value</text>
  </g>
  <g class="guide xlabels" font-size="2.82" font-family="'PT Sans Caption','Helvetica Neue','Helvetica',sans-serif" fill="#6C606B" id="img-cf5bc5ab-3">
    <text x="122.23" y="184.91" text-anchor="middle" dy="0.6em">-1</text>
    <text x="131.48" y="184.91" text-anchor="middle" dy="0.6em">0</text>
    <text x="140.72" y="184.91" text-anchor="middle" dy="0.6em">1</text>
    <text x="149.97" y="184.91" text-anchor="middle" dy="0.6em">2</text>
    <text x="159.22" y="184.91" text-anchor="middle" dy="0.6em">3</text>
    <text x="168.46" y="184.91" text-anchor="middle" dy="0.6em">4</text>
    <text x="177.71" y="184.91" text-anchor="middle" dy="0.6em">5</text>
    <text x="186.95" y="184.91" text-anchor="middle" dy="0.6em">6</text>
    <text x="196.2" y="184.91" text-anchor="middle" dy="0.6em">7</text>
  </g>
<g clip-path="url(#img-cf5bc5ab-4)">
  <g id="img-cf5bc5ab-5">
    <g pointer-events="visible" opacity="1" fill="#000000" fill-opacity="0.000" stroke="#000000" stroke-opacity="0.000" class="guide background" id="img-cf5bc5ab-6">
      <rect x="120.23" y="146.08" width="77.97" height="37.84"/>
    </g>
    <g class="guide ygridlines xfixed" stroke-dasharray="0.5,0.5" stroke-width="0.2" stroke="#D0D0E0" id="img-cf5bc5ab-7">
      <path fill="none" d="M120.23,181.91 L 198.2 181.91"/>
      <path fill="none" d="M120.23,176.28 L 198.2 176.28"/>
      <path fill="none" d="M120.23,170.64 L 198.2 170.64"/>
      <path fill="none" d="M120.23,165 L 198.2 165"/>
      <path fill="none" d="M120.23,159.36 L 198.2 159.36"/>
      <path fill="none" d="M120.23,153.72 L 198.2 153.72"/>
      <path fill="none" d="M120.23,148.08 L 198.2 148.08"/>
    </g>
    <g class="guide xgridlines yfixed" stroke-dasharray="0.5,0.5" stroke-width="0.2" stroke="#D0D0E0" id="img-cf5bc5ab-8">
      <path fill="none" d="M122.23,146.08 L 122.23 183.91"/>
      <path fill="none" d="M131.48,146.08 L 131.48 183.91"/>
      <path fill="none" d="M140.72,146.08 L 140.72 183.91"/>
      <path fill="none" d="M149.97,146.08 L 149.97 183.91"/>
      <path fill="none" d="M159.22,146.08 L 159.22 183.91"/>
      <path fill="none" d="M168.46,146.08 L 168.46 183.91"/>
      <path fill="none" d="M177.71,146.08 L 177.71 183.91"/>
      <path fill="none" d="M186.95,146.08 L 186.95 183.91"/>
      <path fill="none" d="M196.2,146.08 L 196.2 183.91"/>
    </g>
    <g class="plotpanel" id="img-cf5bc5ab-9">
      <g stroke-width="0.3" fill="#000000" fill-opacity="0.000" class="geometry color_1" stroke-dasharray="none" stroke="#00BFFF" id="img-cf5bc5ab-10">
        <path fill="none" d="M128.72,181.91 L 128.98 181.91 129.24 181.91 129.5 181.91 129.75 181.91 130.01 181.91 130.27 181.91 130.53 181.9 130.79 181.89 131.05 181.88 131.31 181.87 131.56 181.84 131.82 181.81 132.08 181.77 132.34 181.71 132.6 181.63 132.86 181.52 133.12 181.39 133.37 181.21 133.63 180.99 133.89 180.71 134.15 180.37 134.41 179.95 134.67 179.46 134.93 178.88 135.18 178.2 135.44 177.43 135.7 176.57 135.96 175.6 136.22 174.54 136.48 173.4 136.74 172.18 137 170.89 137.25 169.56 137.51 168.2 137.77 166.83 138.03 165.47 138.29 164.13 138.55 162.84 138.81 161.61 139.06 160.45 139.32 159.39 139.58 158.41 139.84 157.53 140.1 156.76 140.36 156.08 140.62 155.5 140.87 155.01 141.13 154.6 141.39 154.27 141.65 154.01 141.91 153.81 142.17 153.67 142.43 153.58 142.68 153.54 142.94 153.55 143.2 153.61 143.46 153.73 143.72 153.89 143.98 154.1 144.24 154.36 144.5 154.68 144.75 155.04 145.01 155.45 145.27 155.9 145.53 156.39 145.79 156.91 146.05 157.45 146.31 158 146.56 158.55 146.82 159.1 147.08 159.63 147.34 160.14 147.6 160.62 147.86 161.07 148.12 161.49 148.37 161.88 148.63 162.23 148.89 162.56 149.15 162.87 149.41 163.16 149.67 163.44 149.93 163.72 150.18 164 150.44 164.29 150.7 164.59 150.96 164.9 151.22 165.23 151.48 165.58 151.74 165.95 152 166.33 152.25 166.73 152.51 167.14 152.77 167.56 153.03 167.99 153.29 168.42 153.55 168.86 153.81 169.29 154.06 169.71 154.32 170.12 154.58 170.52 154.84 170.9 155.1 171.26 155.36 171.6 155.62 171.91 155.87 172.19 156.13 172.45 156.39 172.68 156.65 172.89 156.91 173.08 157.17 173.25 157.43 173.41 157.68 173.55 157.94 173.69 158.2 173.82 158.46 173.95 158.72 174.09 158.98 174.22 159.24 174.35 159.5 174.49 159.75 174.62 160.01 174.74 160.27 174.87 160.53 174.98 160.79 175.09 161.05 175.18 161.31 175.27 161.56 175.34 161.82 175.41 162.08 175.47 162.34 175.52 162.6 175.57 162.86 175.62 163.12 175.67 163.37 175.72 163.63 175.78 163.89 175.85 164.15 175.93 164.41 176.01 164.67 176.1 164.93 176.21 165.19 176.31 165.44 176.43 165.7 176.54 165.96 176.66 166.22 176.77 166.48 176.89 166.74 177 167 177.1 167.25 177.2 167.51 177.3 167.77 177.39 168.03 177.48 168.29 177.57 168.55 177.66 168.81 177.75 169.06 177.84 169.32 177.94 169.58 178.04 169.84 178.14 170.1 178.24 170.36 178.35 170.62 178.46 170.87 178.57 171.13 178.68 171.39 178.8 171.65 178.91 171.91 179.01 172.17 179.12 172.43 179.21 172.69 179.31 172.94 179.4 173.2 179.48 173.46 179.56 173.72 179.63 173.98 179.7 174.24 179.76 174.5 179.82 174.75 179.88 175.01 179.93 175.27 179.99 175.53 180.04 175.79 180.09 176.05 180.14 176.31 180.18 176.56 180.23 176.82 180.28 177.08 180.32 177.34 180.36 177.6 180.4 177.86 180.43 178.12 180.47 178.37 180.49 178.63 180.52 178.89 180.54 179.15 180.56 179.41 180.57 179.67 180.59 179.93 180.59 180.19 180.6 180.44 180.6 180.7 180.6 180.96 180.6 181.22 180.59 181.48 180.59 181.74 180.58 182 180.58 182.25 180.58 182.51 180.58 182.77 180.58 183.03 180.59 183.29 180.6 183.55 180.62 183.81 180.64 184.06 180.67 184.32 180.7 184.58 180.74 184.84 180.78 185.1 180.83 185.36 180.88 185.62 180.93 185.87 180.99 186.13 181.06 186.39 181.12 186.65 181.19 186.91 181.26 187.17 181.33 187.43 181.39 187.69 181.46 187.94 181.52 188.2 181.58 188.46 181.63 188.72 181.68 188.98 181.72 189.24 181.75 189.5 181.79 189.75 181.81 190.01 181.84 190.27 181.85 190.53 181.87 190.79 181.88 191.05 181.89 191.31 181.9 191.56 181.9 191.82 181.91 192.08 181.91 192.34 181.91 192.6 181.91 192.86 181.91 193.12 181.91 193.37 181.91 193.63 181.91 193.89 181.91 194.15 181.91 194.41 181.91 194.67 181.91"/>
      </g>
    </g>
  </g>
</g>
  <g class="guide ylabels" font-size="2.82" font-family="'PT Sans Caption','Helvetica Neue','Helvetica',sans-serif" fill="#6C606B" id="img-cf5bc5ab-11">
    <text x="119.23" y="181.91" text-anchor="end" dy="0.35em">0.0</text>
    <text x="119.23" y="176.28" text-anchor="end" dy="0.35em">0.1</text>
    <text x="119.23" y="170.64" text-anchor="end" dy="0.35em">0.2</text>
    <text x="119.23" y="165" text-anchor="end" dy="0.35em">0.3</text>
    <text x="119.23" y="159.36" text-anchor="end" dy="0.35em">0.4</text>
    <text x="119.23" y="153.72" text-anchor="end" dy="0.35em">0.5</text>
    <text x="119.23" y="148.08" text-anchor="end" dy="0.35em">0.6</text>
  </g>
  <g font-size="3.88" font-family="'PT Sans','Helvetica Neue','Helvetica',sans-serif" fill="#564A55" stroke="#000000" stroke-opacity="0.000" id="img-cf5bc5ab-12">
    <text x="110.41" y="163" text-anchor="middle" dy="0.35em" transform="rotate(-90, 110.41, 165)">Density</text>
  </g>
  <g font-size="3.88" font-family="'PT Sans','Helvetica Neue','Helvetica',sans-serif" fill="#564A55" stroke="#000000" stroke-opacity="0.000" id="img-cf5bc5ab-13">
    <text x="159.22" y="140.47" text-anchor="middle" dy="0.6em">s</text>
  </g>
</g>
<g class="plotroot xscalable yscalable" id="img-cf5bc5ab-14">
  <g font-size="3.88" font-family="'PT Sans','Helvetica Neue','Helvetica',sans-serif" fill="#564A55" stroke="#000000" stroke-opacity="0.000" id="img-cf5bc5ab-15">
    <text x="57.28" y="191.59" text-anchor="middle" dy="0.6em">Iteration</text>
  </g>
  <g class="guide xlabels" font-size="2.82" font-family="'PT Sans Caption','Helvetica Neue','Helvetica',sans-serif" fill="#6C606B" id="img-cf5bc5ab-16">
    <text x="19.96" y="184.91" text-anchor="middle" dy="0.6em">0</text>
    <text x="57.28" y="184.91" text-anchor="middle" dy="0.6em">500</text>
    <text x="94.6" y="184.91" text-anchor="middle" dy="0.6em">1000</text>
  </g>
<g clip-path="url(#img-cf5bc5ab-17)">
  <g id="img-cf5bc5ab-18">
    <g pointer-events="visible" opacity="1" fill="#000000" fill-opacity="0.000" stroke="#000000" stroke-opacity="0.000" class="guide background" id="img-cf5bc5ab-19">
      <rect x="17.96" y="146.08" width="78.64" height="37.84"/>
    </g>
    <g class="guide ygridlines xfixed" stroke-dasharray="0.5,0.5" stroke-width="0.2" stroke="#D0D0E0" id="img-cf5bc5ab-20">
      <path fill="none" d="M17.96,181.91 L 96.6 181.91"/>
      <path fill="none" d="M17.96,173.46 L 96.6 173.46"/>
      <path fill="none" d="M17.96,165 L 96.6 165"/>
      <path fill="none" d="M17.96,156.54 L 96.6 156.54"/>
      <path fill="none" d="M17.96,148.08 L 96.6 148.08"/>
    </g>
    <g class="guide xgridlines yfixed" stroke-dasharray="0.5,0.5" stroke-width="0.2" stroke="#D0D0E0" id="img-cf5bc5ab-21">
      <path fill="none" d="M19.96,146.08 L 19.96 183.91"/>
      <path fill="none" d="M57.28,146.08 L 57.28 183.91"/>
      <path fill="none" d="M94.6,146.08 L 94.6 183.91"/>
    </g>
    <g class="plotpanel" id="img-cf5bc5ab-22">
      <g stroke-width="0.3" fill="#000000" fill-opacity="0.000" class="geometry color_1" stroke-dasharray="none" stroke="#00BFFF" id="img-cf5bc5ab-23">
        <path fill="none" d="M20.03,179.39 L 20.11 177.84 20.18 175.84 20.26 178.25 20.33 177.69 20.41 180.12 20.48 179.96 20.56 177.23 20.63 178.82 20.7 178.37 20.78 180.08 20.85 179.23 20.93 180.2 21 180.05 21.08 179.52 21.15 178.99 21.23 177.78 21.3 179.91 21.38 179.86 21.45 175.06 21.53 176.37 21.6 173.51 21.68 176.38 21.75 178.87 21.82 180.76 21.9 181.04 21.97 180.83 22.05 180.41 22.12 179.36 22.2 179.29 22.27 177.63 22.35 173.71 22.42 172.81 22.5 178.99 22.57 179.34 22.65 180.54 22.72 180.77 22.79 177.72 22.87 179.41 22.94 178.58 23.02 176.85 23.09 177.3 23.17 178.07 23.24 179.81 23.32 180.7 23.39 179.77 23.47 180.2 23.54 180.36 23.62 178.85 23.69 179.23 23.77 178.01 23.84 179.21 23.91 179.45 23.99 178.44 24.06 177.09 24.14 170.12 24.21 174.68 24.29 178.52 24.36 178.57 24.44 179.89 24.51 177.28 24.59 177.11 24.66 178.69 24.74 177.71 24.81 178.41 24.88 177.18 24.96 179.37 25.03 178.25 25.11 179.36 25.18 176.27 25.26 179.01 25.33 179.24 25.41 178.33 25.48 178.32 25.56 179.73 25.63 180.07 25.71 180.52 25.78 180.95 25.86 180.8 25.93 180.32 26 180.07 26.08 180.95 26.15 178.81 26.23 179.18 26.3 179.9 26.38 179.6 26.45 178.69 26.53 179.12 26.6 178.16 26.68 179.19 26.75 178.39 26.83 171.07 26.9 171.49 26.97 176.54 27.05 168.13 27.12 175.34 27.2 170.89 27.27 170.37 27.35 173.69 27.42 177.74 27.5 176.78 27.57 179.4 27.65 178.92 27.72 179.2 27.8 179.62 27.87 180.31 27.94 179.54 28.02 178.66 28.09 180.18 28.17 178.42 28.24 179.46 28.32 179.49 28.39 177.91 28.47 179.98 28.54 179.32 28.62 179.63 28.69 179.66 28.77 180.59 28.84 179.51 28.92 178.13 28.99 179.71 29.06 178.72 29.14 175.32 29.21 178.6 29.29 180.32 29.36 180.03 29.44 180.08 29.51 180.44 29.59 180.9 29.66 180.7 29.74 180.13 29.81 179.56 29.89 175.68 29.96 169.48 30.03 172.49 30.11 176.91 30.18 177.17 30.26 179.26 30.33 173.96 30.41 172.67 30.48 169.7 30.56 167.57 30.63 174.53 30.71 176.27 30.78 167.26 30.86 176.77 30.93 176.17 31.01 176.01 31.08 176.91 31.15 177.45 31.23 176.09 31.3 174.72 31.38 172.75 31.45 166.38 31.53 169.77 31.6 171.78 31.68 175.35 31.75 174.26 31.83 175.11 31.9 178.87 31.98 173.2 32.05 175.11 32.12 176.34 32.2 176.75 32.27 176.64 32.35 171.51 32.42 172.57 32.5 177.63 32.57 178.14 32.65 179.53 32.72 179.43 32.8 179.39 32.87 179.81 32.95 179.35 33.02 179.97 33.1 179.73 33.17 180.55 33.24 180.8 33.32 180.78 33.39 180.15 33.47 180.85 33.54 181.28 33.62 180.9 33.69 179.77 33.77 180.28 33.84 180.66 33.92 178.94 33.99 180.45 34.07 181.06 34.14 180.25 34.21 180.71 34.29 180.06 34.36 179.93 34.44 178 34.51 180.46 34.59 179.78 34.66 179.36 34.74 178.14 34.81 179.56 34.89 180.05 34.96 178.95 35.04 178.93 35.11 179.76 35.19 177.55 35.26 179.38 35.33 180.39 35.41 179.66 35.48 179.75 35.56 180.33 35.63 180.13 35.71 180.28 35.78 179.85 35.86 179.88 35.93 180.35 36.01 180.18 36.08 179.01 36.16 179.35 36.23 179.35 36.3 177.88 36.38 175.05 36.45 177.6 36.53 177.78 36.6 178.71 36.68 179.79 36.75 177.33 36.83 171.95 36.9 174.11 36.98 177.6 37.05 178.92 37.13 180.23 37.2 177.92 37.28 179.55 37.35 179.11 37.42 179.65 37.5 178.97 37.57 179.89 37.65 179.18 37.72 176.55 37.8 174.44 37.87 176.23 37.95 177.9 38.02 175.04 38.1 176.68 38.17 177.13 38.25 175 38.32 173.01 38.39 177.99 38.47 180.39 38.54 180.04 38.62 179.39 38.69 180.55 38.77 180.31 38.84 180.21 38.92 180.27 38.99 179.86 39.07 178.01 39.14 179.85 39.22 179.71 39.29 180.32 39.37 180.24 39.44 180.03 39.51 179.44 39.59 180.58 39.66 179.73 39.74 179.35 39.81 178.94 39.89 175.24 39.96 178.7 40.04 178.29 40.11 179.6 40.19 177.83 40.26 180.11 40.34 179.64 40.41 179.5 40.48 175.57 40.56 175.73 40.63 175.42 40.71 173.96 40.78 179.68 40.86 180.82 40.93 180.92 41.01 179.61 41.08 179.44 41.16 179.06 41.23 179.86 41.31 178.07 41.38 178.91 41.46 176.87 41.53 177.04 41.6 179.62 41.68 175.73 41.75 177.02 41.83 179.35 41.9 180.59 41.98 180.68 42.05 180.27 42.13 177.77 42.2 177.01 42.28 177.83 42.35 179.32 42.43 177.1 42.5 176.1 42.57 177.44 42.65 177.35 42.72 179.31 42.8 178.12 42.87 179.13 42.95 179.49 43.02 179.82 43.1 179.44 43.17 178.74 43.25 180.45 43.32 180.43 43.4 178.25 43.47 172.42 43.55 175.88 43.62 178.69 43.69 179.21 43.77 179.39 43.84 179.84 43.92 179.08 43.99 179.73 44.07 180 44.14 179.03 44.22 180.59 44.29 179.26 44.37 179.09 44.44 180.81 44.52 181 44.59 180.15 44.66 180.15 44.74 180.67 44.81 180.1 44.89 179.25 44.96 179.14 45.04 177.29 45.11 180.53 45.19 179 45.26 179.89 45.34 179.68 45.41 178.6 45.49 179.9 45.56 181.24 45.64 180.55 45.71 180.7 45.78 180.48 45.86 180.99 45.93 179.26 46.01 179.23 46.08 179.66 46.16 179.65 46.23 179.56 46.31 179.79 46.38 179.99 46.46 176.76 46.53 177.79 46.61 178.33 46.68 179.17 46.75 180.25 46.83 180.5 46.9 179.4 46.98 177.51 47.05 180.6 47.13 180.21 47.2 179.74 47.28 178.72 47.35 179.87 47.43 180.52 47.5 179.24 47.58 178.84 47.65 180.52 47.73 181.16 47.8 179.49 47.87 179.5 47.95 178.45 48.02 178.6 48.1 178.26 48.17 179.73 48.25 179.52 48.32 180.58 48.4 180.83 48.47 179.42 48.55 177.73 48.62 178.09 48.7 176.24 48.77 177.6 48.84 178.92 48.92 178.61 48.99 178.47 49.07 179.38 49.14 177.52 49.22 178.54 49.29 180.27 49.37 178.57 49.44 178.44 49.52 177.15 49.59 179.01 49.67 178.84 49.74 180.11 49.81 178.06 49.89 179.26 49.96 180.26 50.04 179.56 50.11 177.05 50.19 178.34 50.26 176.66 50.34 179.88 50.41 179.98 50.49 178.55 50.56 179.92 50.64 178.16 50.71 179.86 50.79 180.38 50.86 179.75 50.93 176.87 51.01 178.11 51.08 179.22 51.16 178.43 51.23 180.35 51.31 179 51.38 179.87 51.46 180.44 51.53 179.73 51.61 179.78 51.68 179.94 51.76 180.56 51.83 180.99 51.9 181.1 51.98 180.02 52.05 181.13 52.13 180.91 52.2 179.88 52.28 180.51 52.35 180.32 52.43 177.87 52.5 178.2 52.58 176.06 52.65 177.68 52.73 179.61 52.8 178.33 52.88 179.02 52.95 180.17 53.02 180.08 53.1 179.36 53.17 178.94 53.25 180.01 53.32 180.74 53.4 180.36 53.47 180.63 53.55 178.4 53.62 179.39 53.7 179.96 53.77 179.88 53.85 180.06 53.92 179.88 53.99 181.07 54.07 180.56 54.14 179.64 54.22 179.15 54.29 180.79 54.37 178.04 54.44 174.02 54.52 178.42 54.59 176.21 54.67 173.81 54.74 177.91 54.82 176.3 54.89 178.76 54.97 178.79 55.04 179.92 55.11 175.26 55.19 175.01 55.26 173.52 55.34 178.23 55.41 179.34 55.49 174.69 55.56 172.32 55.64 177.61 55.71 174.09 55.79 178.04 55.86 177.95 55.94 178.77 56.01 179.03 56.08 175.75 56.16 174.88 56.23 178.18 56.31 176.16 56.38 179.54 56.46 177.94 56.53 179.3 56.61 177.4 56.68 179.53 56.76 179.5 56.83 180.7 56.91 180.44 56.98 180.19 57.06 180.09 57.13 179.46 57.2 179.14 57.28 180.11 57.35 178.31 57.43 178.53 57.5 179.24 57.58 179.2 57.65 176.56 57.73 180.3 57.8 179.73 57.88 178.39 57.95 178.14 58.03 178.86 58.1 178.56 58.17 178.31 58.25 179.56 58.32 178.47 58.4 177.47 58.47 176.95 58.55 176.7 58.62 175.77 58.7 177.19 58.77 174.61 58.85 175.56 58.92 174.73 59 174.5 59.07 178.43 59.15 179.57 59.22 178.24 59.29 180.33 59.37 180.34 59.44 180.41 59.52 180.73 59.59 180.55 59.67 179.55 59.74 179.64 59.82 180.37 59.89 180.9 59.97 179.21 60.04 179.38 60.12 176.99 60.19 178.07 60.26 177.87 60.34 175.78 60.41 175.7 60.49 173.92 60.56 178.28 60.64 171.99 60.71 173.29 60.79 175.97 60.86 179.09 60.94 180.09 61.01 179.65 61.09 178.14 61.16 179.6 61.24 179.89 61.31 180.36 61.38 180.54 61.46 178.78 61.53 180.44 61.61 177.97 61.68 176.72 61.76 175.24 61.83 177.85 61.91 179.89 61.98 177.29 62.06 175.83 62.13 179.85 62.21 181.19 62.28 180.47 62.35 180.68 62.43 180.4 62.5 179.89 62.58 180.21 62.65 176.56 62.73 179.07 62.8 179.62 62.88 179.15 62.95 180.39 63.03 180.72 63.1 180.29 63.18 180.69 63.25 180.49 63.33 179.52 63.4 179.93 63.47 178.35 63.55 178.35 63.62 178.42 63.7 179.24 63.77 180.27 63.85 180.02 63.92 177.76 64 179.91 64.07 177.06 64.15 179.37 64.22 180.15 64.3 180.29 64.37 179.75 64.44 179.85 64.52 180.23 64.59 180.64 64.67 180.31 64.74 180.55 64.82 180.09 64.89 179.19 64.97 179.91 65.04 180.34 65.12 180.38 65.19 180.66 65.27 179.87 65.34 178.5 65.42 178.2 65.49 179.05 65.56 176.74 65.64 176.98 65.71 174.36 65.79 170.38 65.86 175.27 65.94 163.69 66.01 151.02 66.09 170.12 66.16 174.32 66.24 175.87 66.31 179.07 66.39 181.12 66.46 180.35 66.53 180.81 66.61 181.06 66.68 180.26 66.76 179.28 66.83 179.84 66.91 180.77 66.98 179.47 67.06 180.38 67.13 179.85 67.21 180.39 67.28 180.29 67.36 179.62 67.43 179.94 67.51 178.58 67.58 178.85 67.65 179.57 67.73 178.59 67.8 179.89 67.88 180.29 67.95 179.79 68.03 178.39 68.1 178.97 68.18 173.11 68.25 173.33 68.33 174.6 68.4 178.97 68.48 173.39 68.55 176.65 68.62 178.83 68.7 178.6 68.77 176.89 68.85 176.83 68.92 177.55 69 178.46 69.07 180.03 69.15 180.55 69.22 180.24 69.3 179.56 69.37 179.17 69.45 177.77 69.52 178.73 69.6 180.11 69.67 179.31 69.74 179.34 69.82 180.34 69.89 179.96 69.97 179.81 70.04 179.97 70.12 180.52 70.19 180.73 70.27 179.61 70.34 179.18 70.42 178.79 70.49 179.07 70.57 175.79 70.64 173.69 70.71 179.61 70.79 181.23 70.86 180.5 70.94 180.54 71.01 179.53 71.09 177.05 71.16 175.64 71.24 176.66 71.31 177.25 71.39 174.65 71.46 176.47 71.54 175.11 71.61 175.81 71.69 179.46 71.76 180.35 71.83 178.74 71.91 180.19 71.98 177.04 72.06 175.65 72.13 171.66 72.21 176.96 72.28 179.65 72.36 180.52 72.43 180.67 72.51 180.17 72.58 179.67 72.66 179.34 72.73 179.4 72.8 180.74 72.88 180.43 72.95 180.28 73.03 180.22 73.1 180.56 73.18 179.16 73.25 179.54 73.33 177.2 73.4 178.07 73.48 179.8 73.55 180.01 73.63 179.22 73.7 180.61 73.77 180.5 73.85 180.43 73.92 179.14 74 179.51 74.07 175.85 74.15 178.56 74.22 179.47 74.3 180.09 74.37 178.5 74.45 176.77 74.52 175.53 74.6 177.93 74.67 180.25 74.75 179.41 74.82 178.59 74.89 177.88 74.97 177.08 75.04 178.27 75.12 178.39 75.19 178.83 75.27 180.23 75.34 179.67 75.42 177.72 75.49 180.15 75.57 175.12 75.64 177.54 75.72 179.53 75.79 178.98 75.86 179.67 75.94 180.55 76.01 178.41 76.09 180.42 76.16 180.83 76.24 180.3 76.31 178.11 76.39 177.98 76.46 179.46 76.54 178.41 76.61 172.59 76.69 176.49 76.76 174.4 76.84 174.1 76.91 175.19 76.98 177.03 77.06 178.88 77.13 175.46 77.21 176.12 77.28 177.07 77.36 174.94 77.43 176.43 77.51 179.23 77.58 175.54 77.66 178.52 77.73 178.37 77.81 178.6 77.88 180.18 77.95 180.13 78.03 180.62 78.1 180.61 78.18 180.33 78.25 181.18 78.33 180.88 78.4 179.48 78.48 178.71 78.55 176.45 78.63 176.13 78.7 178.52 78.78 177.49 78.85 178.7 78.93 180.13 79 180.16 79.07 179.7 79.15 177.94 79.22 174.9 79.3 173.98 79.37 176.11 79.45 178.54 79.52 178.99 79.6 179.87 79.67 180.36 79.75 181.03 79.82 180.35 79.9 180.95 79.97 178.78 80.04 179.79 80.12 179.72 80.19 180.4 80.27 178.49 80.34 170.54 80.42 178.07 80.49 180.54 80.57 180.45 80.64 178.52 80.72 180.66 80.79 179.52 80.87 178.29 80.94 179.18 81.02 179.81 81.09 180.47 81.16 179.85 81.24 178.72 81.31 176.19 81.39 177.18 81.46 175.94 81.54 177.1 81.61 176.66 81.69 180.17 81.76 180.08 81.84 179.97 81.91 180.34 81.99 179.91 82.06 179.74 82.13 180.69 82.21 180.37 82.28 179.99 82.36 179.65 82.43 181.09 82.51 179.92 82.58 180.93 82.66 179.44 82.73 178.86 82.81 176.56 82.88 176.98 82.96 177.29 83.03 176.28 83.11 174.91 83.18 175.28 83.25 178.1 83.33 178.34 83.4 178.92 83.48 177.65 83.55 178.95 83.63 179.57 83.7 178.43 83.78 179.95 83.85 179.61 83.93 179.74 84 180.32 84.08 180.4 84.15 181.26 84.22 180.82 84.3 180.75 84.37 180.4 84.45 179.39 84.52 178.58 84.6 179.5 84.67 179.84 84.75 178.61 84.82 179 84.9 178.55 84.97 179.56 85.05 179.26 85.12 180.62 85.2 179.23 85.27 180.77 85.34 181.02 85.42 180.73 85.49 180.33 85.57 179.31 85.64 180.32 85.72 180.29 85.79 180.53 85.87 179.72 85.94 179.8 86.02 180.03 86.09 179.18 86.17 179.88 86.24 178.53 86.31 180.41 86.39 178.61 86.46 179.27 86.54 180.14 86.61 180.16 86.69 179.41 86.76 180.61 86.84 178.49 86.91 174.97 86.99 177.37 87.06 177.79 87.14 178.46 87.21 177.62 87.29 176.13 87.36 171.78 87.43 171.97 87.51 169.7 87.58 178.01 87.66 175.94 87.73 175.33 87.81 168.78 87.88 171.86 87.96 167.46 88.03 172.22 88.11 172.42 88.18 161 88.26 174.56 88.33 176.57 88.4 176.08 88.48 176.63 88.55 177.5 88.63 180.2 88.7 179.48 88.78 178.8 88.85 176.89 88.93 179.79 89 178.39 89.08 179.57 89.15 177.26 89.23 177.78 89.3 175.77 89.38 175.47 89.45 175.78 89.52 175.6 89.6 177.86 89.67 177.66 89.75 178.47 89.82 177.65 89.9 178.63 89.97 178 90.05 177.76 90.12 176.26 90.2 178.08 90.27 179.07 90.35 178.8 90.42 179.43 90.49 179 90.57 177.79 90.64 172.96 90.72 175.93 90.79 177.99 90.87 177.95 90.94 178.42 91.02 176.13 91.09 179.26 91.17 180.28 91.24 178.26 91.32 177.87 91.39 178.26 91.47 179.63 91.54 178.44 91.61 179.16 91.69 179.37 91.76 180.86 91.84 180.58 91.91 179.75 91.99 179.41 92.06 178 92.14 172.04 92.21 174.97 92.29 177.27 92.36 177.7 92.44 175.73 92.51 178.69 92.58 177.8 92.66 178.61 92.73 176.91 92.81 177.33 92.88 179.16 92.96 180.55 93.03 180.7 93.11 179.73 93.18 178.29 93.26 177.78 93.33 176.95 93.41 177.36 93.48 178.18 93.56 178.5 93.63 178.09 93.7 176.08 93.78 176.06 93.85 176.06 93.93 178.86 94 178.93 94.08 178.73 94.15 174.97 94.23 178.48 94.3 179.01 94.38 178.8 94.45 178.59 94.53 174.68 94.6 176.32"/>
      </g>
    </g>
  </g>
</g>
  <g class="guide ylabels" font-size="2.82" font-family="'PT Sans Caption','Helvetica Neue','Helvetica',sans-serif" fill="#6C606B" id="img-cf5bc5ab-24">
    <text x="16.96" y="181.91" text-anchor="end" dy="0.35em">0</text>
    <text x="16.96" y="173.46" text-anchor="end" dy="0.35em">5</text>
    <text x="16.96" y="165" text-anchor="end" dy="0.35em">10</text>
    <text x="16.96" y="156.54" text-anchor="end" dy="0.35em">15</text>
    <text x="16.96" y="148.08" text-anchor="end" dy="0.35em">20</text>
  </g>
  <g font-size="3.88" font-family="'PT Sans','Helvetica Neue','Helvetica',sans-serif" fill="#564A55" stroke="#000000" stroke-opacity="0.000" id="img-cf5bc5ab-25">
    <text x="8.81" y="163" text-anchor="middle" dy="0.35em" transform="rotate(-90, 8.81, 165)">Value</text>
  </g>
  <g font-size="3.88" font-family="'PT Sans','Helvetica Neue','Helvetica',sans-serif" fill="#564A55" stroke="#000000" stroke-opacity="0.000" id="img-cf5bc5ab-26">
    <text x="57.28" y="140.47" text-anchor="middle" dy="0.6em">s</text>
  </g>
</g>
<g class="plotroot xscalable yscalable" id="img-cf5bc5ab-27">
  <g font-size="3.88" font-family="'PT Sans','Helvetica Neue','Helvetica',sans-serif" fill="#564A55" stroke="#000000" stroke-opacity="0.000" id="img-cf5bc5ab-28">
    <text x="159.22" y="123.85" text-anchor="middle" dy="0.6em">Value</text>
  </g>
  <g class="guide xlabels" font-size="2.82" font-family="'PT Sans Caption','Helvetica Neue','Helvetica',sans-serif" fill="#6C606B" id="img-cf5bc5ab-29">
    <text x="122.23" y="117.18" text-anchor="middle" dy="0.6em">4.0</text>
    <text x="140.72" y="117.18" text-anchor="middle" dy="0.6em">4.5</text>
    <text x="159.22" y="117.18" text-anchor="middle" dy="0.6em">5.0</text>
    <text x="177.71" y="117.18" text-anchor="middle" dy="0.6em">5.5</text>
    <text x="196.2" y="117.18" text-anchor="middle" dy="0.6em">6.0</text>
  </g>
<g clip-path="url(#img-cf5bc5ab-30)">
  <g id="img-cf5bc5ab-31">
    <g pointer-events="visible" opacity="1" fill="#000000" fill-opacity="0.000" stroke="#000000" stroke-opacity="0.000" class="guide background" id="img-cf5bc5ab-32">
      <rect x="120.23" y="78.34" width="77.97" height="37.84"/>
    </g>
    <g class="guide ygridlines xfixed" stroke-dasharray="0.5,0.5" stroke-width="0.2" stroke="#D0D0E0" id="img-cf5bc5ab-33">
      <path fill="none" d="M120.23,114.18 L 198.2 114.18"/>
      <path fill="none" d="M120.23,105.72 L 198.2 105.72"/>
      <path fill="none" d="M120.23,97.26 L 198.2 97.26"/>
      <path fill="none" d="M120.23,88.8 L 198.2 88.8"/>
      <path fill="none" d="M120.23,80.34 L 198.2 80.34"/>
    </g>
    <g class="guide xgridlines yfixed" stroke-dasharray="0.5,0.5" stroke-width="0.2" stroke="#D0D0E0" id="img-cf5bc5ab-34">
      <path fill="none" d="M122.23,78.34 L 122.23 116.18"/>
      <path fill="none" d="M140.72,78.34 L 140.72 116.18"/>
      <path fill="none" d="M159.22,78.34 L 159.22 116.18"/>
      <path fill="none" d="M177.71,78.34 L 177.71 116.18"/>
      <path fill="none" d="M196.2,78.34 L 196.2 116.18"/>
    </g>
    <g class="plotpanel" id="img-cf5bc5ab-35">
      <g stroke-width="0.3" fill="#000000" fill-opacity="0.000" class="geometry color_1" stroke-dasharray="none" stroke="#00BFFF" id="img-cf5bc5ab-36">
        <path fill="none" d="M125.77,114.16 L 126.03 114.16 126.29 114.16 126.55 114.16 126.81 114.16 127.08 114.16 127.34 114.16 127.6 114.15 127.86 114.15 128.13 114.15 128.39 114.15 128.65 114.14 128.91 114.14 129.18 114.13 129.44 114.13 129.7 114.12 129.96 114.11 130.23 114.11 130.49 114.1 130.75 114.09 131.01 114.08 131.27 114.07 131.54 114.06 131.8 114.04 132.06 114.03 132.32 114.01 132.59 113.99 132.85 113.97 133.11 113.95 133.37 113.93 133.64 113.9 133.9 113.88 134.16 113.85 134.42 113.81 134.69 113.78 134.95 113.74 135.21 113.7 135.47 113.65 135.73 113.6 136 113.55 136.26 113.49 136.52 113.43 136.78 113.36 137.05 113.29 137.31 113.22 137.57 113.13 137.83 113.05 138.1 112.95 138.36 112.85 138.62 112.74 138.88 112.63 139.15 112.51 139.41 112.37 139.67 112.24 139.93 112.09 140.19 111.93 140.46 111.77 140.72 111.59 140.98 111.41 141.24 111.21 141.51 111.01 141.77 110.79 142.03 110.57 142.29 110.33 142.56 110.08 142.82 109.81 143.08 109.54 143.34 109.25 143.61 108.95 143.87 108.64 144.13 108.31 144.39 107.98 144.65 107.62 144.92 107.26 145.18 106.88 145.44 106.49 145.7 106.09 145.97 105.67 146.23 105.24 146.49 104.8 146.75 104.35 147.02 103.88 147.28 103.4 147.54 102.92 147.8 102.42 148.07 101.91 148.33 101.39 148.59 100.86 148.85 100.33 149.12 99.79 149.38 99.24 149.64 98.69 149.9 98.13 150.16 97.56 150.43 97 150.69 96.43 150.95 95.86 151.21 95.3 151.48 94.73 151.74 94.17 152 93.61 152.26 93.05 152.53 92.51 152.79 91.97 153.05 91.44 153.31 90.92 153.58 90.41 153.84 89.91 154.1 89.43 154.36 88.96 154.62 88.51 154.89 88.08 155.15 87.66 155.41 87.27 155.67 86.9 155.94 86.54 156.2 86.22 156.46 85.91 156.72 85.63 156.99 85.38 157.25 85.15 157.51 84.95 157.77 84.78 158.04 84.63 158.3 84.52 158.56 84.43 158.82 84.37 159.08 84.34 159.35 84.34 159.61 84.37 159.87 84.43 160.13 84.52 160.4 84.63 160.66 84.78 160.92 84.95 161.18 85.15 161.45 85.38 161.71 85.63 161.97 85.91 162.23 86.22 162.5 86.54 162.76 86.9 163.02 87.27 163.28 87.66 163.54 88.08 163.81 88.51 164.07 88.96 164.33 89.43 164.59 89.91 164.86 90.41 165.12 90.92 165.38 91.44 165.64 91.97 165.91 92.51 166.17 93.05 166.43 93.61 166.69 94.17 166.96 94.73 167.22 95.3 167.48 95.86 167.74 96.43 168 97 168.27 97.56 168.53 98.13 168.79 98.69 169.05 99.24 169.32 99.79 169.58 100.33 169.84 100.86 170.1 101.39 170.37 101.91 170.63 102.42 170.89 102.92 171.15 103.4 171.42 103.88 171.68 104.35 171.94 104.8 172.2 105.24 172.46 105.67 172.73 106.09 172.99 106.49 173.25 106.88 173.51 107.26 173.78 107.62 174.04 107.98 174.3 108.31 174.56 108.64 174.83 108.95 175.09 109.25 175.35 109.54 175.61 109.81 175.88 110.08 176.14 110.33 176.4 110.57 176.66 110.79 176.93 111.01 177.19 111.21 177.45 111.41 177.71 111.59 177.97 111.77 178.24 111.93 178.5 112.09 178.76 112.24 179.02 112.37 179.29 112.51 179.55 112.63 179.81 112.74 180.07 112.85 180.34 112.95 180.6 113.05 180.86 113.13 181.12 113.22 181.39 113.29 181.65 113.36 181.91 113.43 182.17 113.49 182.43 113.55 182.7 113.6 182.96 113.65 183.22 113.7 183.48 113.74 183.75 113.78 184.01 113.81 184.27 113.85 184.53 113.88 184.8 113.9 185.06 113.93 185.32 113.95 185.58 113.97 185.85 113.99 186.11 114.01 186.37 114.03 186.63 114.04 186.89 114.06 187.16 114.07 187.42 114.08 187.68 114.09 187.94 114.1 188.21 114.11 188.47 114.11 188.73 114.12 188.99 114.13 189.26 114.13 189.52 114.14 189.78 114.14 190.04 114.15 190.31 114.15 190.57 114.15 190.83 114.15 191.09 114.16 191.35 114.16 191.62 114.16 191.88 114.16 192.14 114.16 192.4 114.16 192.67 114.16"/>
      </g>
    </g>
  </g>
</g>
  <g class="guide ylabels" font-size="2.82" font-family="'PT Sans Caption','Helvetica Neue','Helvetica',sans-serif" fill="#6C606B" id="img-cf5bc5ab-37">
    <text x="119.23" y="114.18" text-anchor="end" dy="0.35em">0.0</text>
    <text x="119.23" y="105.72" text-anchor="end" dy="0.35em">0.5</text>
    <text x="119.23" y="97.26" text-anchor="end" dy="0.35em">1.0</text>
    <text x="119.23" y="88.8" text-anchor="end" dy="0.35em">1.5</text>
    <text x="119.23" y="80.34" text-anchor="end" dy="0.35em">2.0</text>
  </g>
  <g font-size="3.88" font-family="'PT Sans','Helvetica Neue','Helvetica',sans-serif" fill="#564A55" stroke="#000000" stroke-opacity="0.000" id="img-cf5bc5ab-38">
    <text x="110.41" y="95.26" text-anchor="middle" dy="0.35em" transform="rotate(-90, 110.41, 97.26)">Density</text>
  </g>
  <g font-size="3.88" font-family="'PT Sans','Helvetica Neue','Helvetica',sans-serif" fill="#564A55" stroke="#000000" stroke-opacity="0.000" id="img-cf5bc5ab-39">
    <text x="159.22" y="72.73" text-anchor="middle" dy="0.6em">lf_num</text>
  </g>
</g>
<g class="plotroot xscalable yscalable" id="img-cf5bc5ab-40">
  <g font-size="3.88" font-family="'PT Sans','Helvetica Neue','Helvetica',sans-serif" fill="#564A55" stroke="#000000" stroke-opacity="0.000" id="img-cf5bc5ab-41">
    <text x="56.44" y="123.85" text-anchor="middle" dy="0.6em">Iteration</text>
  </g>
  <g class="guide xlabels" font-size="2.82" font-family="'PT Sans Caption','Helvetica Neue','Helvetica',sans-serif" fill="#6C606B" id="img-cf5bc5ab-42">
    <text x="18.28" y="117.18" text-anchor="middle" dy="0.6em">0</text>
    <text x="56.44" y="117.18" text-anchor="middle" dy="0.6em">500</text>
    <text x="94.6" y="117.18" text-anchor="middle" dy="0.6em">1000</text>
  </g>
<g clip-path="url(#img-cf5bc5ab-43)">
  <g id="img-cf5bc5ab-44">
    <g pointer-events="visible" opacity="1" fill="#000000" fill-opacity="0.000" stroke="#000000" stroke-opacity="0.000" class="guide background" id="img-cf5bc5ab-45">
      <rect x="16.28" y="78.34" width="80.32" height="37.84"/>
    </g>
    <g class="guide ygridlines xfixed" stroke-dasharray="0.5,0.5" stroke-width="0.2" stroke="#D0D0E0" id="img-cf5bc5ab-46">
      <path fill="none" d="M16.28,114.18 L 96.6 114.18"/>
      <path fill="none" d="M16.28,107.41 L 96.6 107.41"/>
      <path fill="none" d="M16.28,100.65 L 96.6 100.65"/>
      <path fill="none" d="M16.28,93.88 L 96.6 93.88"/>
      <path fill="none" d="M16.28,87.11 L 96.6 87.11"/>
      <path fill="none" d="M16.28,80.34 L 96.6 80.34"/>
    </g>
    <g class="guide xgridlines yfixed" stroke-dasharray="0.5,0.5" stroke-width="0.2" stroke="#D0D0E0" id="img-cf5bc5ab-47">
      <path fill="none" d="M18.28,78.34 L 18.28 116.18"/>
      <path fill="none" d="M56.44,78.34 L 56.44 116.18"/>
      <path fill="none" d="M94.6,78.34 L 94.6 116.18"/>
    </g>
    <g class="plotpanel" id="img-cf5bc5ab-48">
      <g stroke-width="0.3" fill="#000000" fill-opacity="0.000" class="geometry color_1" stroke-dasharray="none" stroke="#00BFFF" id="img-cf5bc5ab-49">
        <path fill="none" d="M18.36,114.18 L 18.44 80.34 18.51 80.34 18.59 80.34 18.67 80.34 18.74 80.34 18.82 80.34 18.9 80.34 18.97 80.34 19.05 80.34 19.12 80.34 19.2 80.34 19.28 80.34 19.35 80.34 19.43 80.34 19.51 80.34 19.58 80.34 19.66 80.34 19.73 80.34 19.81 80.34 19.89 80.34 19.96 80.34 20.04 80.34 20.12 80.34 20.19 80.34 20.27 80.34 20.35 80.34 20.42 80.34 20.5 80.34 20.57 80.34 20.65 80.34 20.73 80.34 20.8 80.34 20.88 80.34 20.96 80.34 21.03 80.34 21.11 80.34 21.18 80.34 21.26 80.34 21.34 80.34 21.41 80.34 21.49 80.34 21.57 80.34 21.64 80.34 21.72 80.34 21.8 80.34 21.87 80.34 21.95 80.34 22.02 80.34 22.1 80.34 22.18 80.34 22.25 80.34 22.33 80.34 22.41 80.34 22.48 80.34 22.56 80.34 22.63 80.34 22.71 80.34 22.79 80.34 22.86 80.34 22.94 80.34 23.02 80.34 23.09 80.34 23.17 80.34 23.25 80.34 23.32 80.34 23.4 80.34 23.47 80.34 23.55 80.34 23.63 80.34 23.7 80.34 23.78 80.34 23.86 80.34 23.93 80.34 24.01 80.34 24.08 80.34 24.16 80.34 24.24 80.34 24.31 80.34 24.39 80.34 24.47 80.34 24.54 80.34 24.62 80.34 24.7 80.34 24.77 80.34 24.85 80.34 24.92 80.34 25 80.34 25.08 80.34 25.15 80.34 25.23 80.34 25.31 80.34 25.38 80.34 25.46 80.34 25.53 80.34 25.61 80.34 25.69 80.34 25.76 80.34 25.84 80.34 25.92 80.34 25.99 80.34 26.07 80.34 26.15 80.34 26.22 80.34 26.3 80.34 26.37 80.34 26.45 80.34 26.53 80.34 26.6 80.34 26.68 80.34 26.76 80.34 26.83 80.34 26.91 80.34 26.98 80.34 27.06 80.34 27.14 80.34 27.21 80.34 27.29 80.34 27.37 80.34 27.44 80.34 27.52 80.34 27.6 80.34 27.67 80.34 27.75 80.34 27.82 80.34 27.9 80.34 27.98 80.34 28.05 80.34 28.13 80.34 28.21 80.34 28.28 80.34 28.36 80.34 28.43 80.34 28.51 80.34 28.59 80.34 28.66 80.34 28.74 80.34 28.82 80.34 28.89 80.34 28.97 80.34 29.05 80.34 29.12 80.34 29.2 80.34 29.27 80.34 29.35 80.34 29.43 80.34 29.5 80.34 29.58 80.34 29.66 80.34 29.73 80.34 29.81 80.34 29.88 80.34 29.96 80.34 30.04 80.34 30.11 80.34 30.19 80.34 30.27 80.34 30.34 80.34 30.42 80.34 30.5 80.34 30.57 80.34 30.65 80.34 30.72 80.34 30.8 80.34 30.88 80.34 30.95 80.34 31.03 80.34 31.11 80.34 31.18 80.34 31.26 80.34 31.33 80.34 31.41 80.34 31.49 80.34 31.56 80.34 31.64 80.34 31.72 80.34 31.79 80.34 31.87 80.34 31.95 80.34 32.02 80.34 32.1 80.34 32.17 80.34 32.25 80.34 32.33 80.34 32.4 80.34 32.48 80.34 32.56 80.34 32.63 80.34 32.71 80.34 32.78 80.34 32.86 80.34 32.94 80.34 33.01 80.34 33.09 80.34 33.17 80.34 33.24 80.34 33.32 80.34 33.4 80.34 33.47 80.34 33.55 80.34 33.62 80.34 33.7 80.34 33.78 80.34 33.85 80.34 33.93 80.34 34.01 80.34 34.08 80.34 34.16 80.34 34.23 80.34 34.31 80.34 34.39 80.34 34.46 80.34 34.54 80.34 34.62 80.34 34.69 80.34 34.77 80.34 34.85 80.34 34.92 80.34 35 80.34 35.07 80.34 35.15 80.34 35.23 80.34 35.3 80.34 35.38 80.34 35.46 80.34 35.53 80.34 35.61 80.34 35.68 80.34 35.76 80.34 35.84 80.34 35.91 80.34 35.99 80.34 36.07 80.34 36.14 80.34 36.22 80.34 36.3 80.34 36.37 80.34 36.45 80.34 36.52 80.34 36.6 80.34 36.68 80.34 36.75 80.34 36.83 80.34 36.91 80.34 36.98 80.34 37.06 80.34 37.13 80.34 37.21 80.34 37.29 80.34 37.36 80.34 37.44 80.34 37.52 80.34 37.59 80.34 37.67 80.34 37.75 80.34 37.82 80.34 37.9 80.34 37.97 80.34 38.05 80.34 38.13 80.34 38.2 80.34 38.28 80.34 38.36 80.34 38.43 80.34 38.51 80.34 38.58 80.34 38.66 80.34 38.74 80.34 38.81 80.34 38.89 80.34 38.97 80.34 39.04 80.34 39.12 80.34 39.2 80.34 39.27 80.34 39.35 80.34 39.42 80.34 39.5 80.34 39.58 80.34 39.65 80.34 39.73 80.34 39.81 80.34 39.88 80.34 39.96 80.34 40.03 80.34 40.11 80.34 40.19 80.34 40.26 80.34 40.34 80.34 40.42 80.34 40.49 80.34 40.57 80.34 40.65 80.34 40.72 80.34 40.8 80.34 40.87 80.34 40.95 80.34 41.03 80.34 41.1 80.34 41.18 80.34 41.26 80.34 41.33 80.34 41.41 80.34 41.48 80.34 41.56 80.34 41.64 80.34 41.71 80.34 41.79 80.34 41.87 80.34 41.94 80.34 42.02 80.34 42.1 80.34 42.17 80.34 42.25 80.34 42.32 80.34 42.4 80.34 42.48 80.34 42.55 80.34 42.63 80.34 42.71 80.34 42.78 80.34 42.86 80.34 42.93 80.34 43.01 80.34 43.09 80.34 43.16 80.34 43.24 80.34 43.32 80.34 43.39 80.34 43.47 80.34 43.55 80.34 43.62 80.34 43.7 80.34 43.77 80.34 43.85 80.34 43.93 80.34 44 80.34 44.08 80.34 44.16 80.34 44.23 80.34 44.31 80.34 44.38 80.34 44.46 80.34 44.54 80.34 44.61 80.34 44.69 80.34 44.77 80.34 44.84 80.34 44.92 80.34 45 80.34 45.07 80.34 45.15 80.34 45.22 80.34 45.3 80.34 45.38 80.34 45.45 80.34 45.53 80.34 45.61 80.34 45.68 80.34 45.76 80.34 45.83 80.34 45.91 80.34 45.99 80.34 46.06 80.34 46.14 80.34 46.22 80.34 46.29 80.34 46.37 80.34 46.45 80.34 46.52 80.34 46.6 80.34 46.67 80.34 46.75 80.34 46.83 80.34 46.9 80.34 46.98 80.34 47.06 80.34 47.13 80.34 47.21 80.34 47.28 80.34 47.36 80.34 47.44 80.34 47.51 80.34 47.59 80.34 47.67 80.34 47.74 80.34 47.82 80.34 47.9 80.34 47.97 80.34 48.05 80.34 48.12 80.34 48.2 80.34 48.28 80.34 48.35 80.34 48.43 80.34 48.51 80.34 48.58 80.34 48.66 80.34 48.73 80.34 48.81 80.34 48.89 80.34 48.96 80.34 49.04 80.34 49.12 80.34 49.19 80.34 49.27 80.34 49.35 80.34 49.42 80.34 49.5 80.34 49.57 80.34 49.65 80.34 49.73 80.34 49.8 80.34 49.88 80.34 49.96 80.34 50.03 80.34 50.11 80.34 50.18 80.34 50.26 80.34 50.34 80.34 50.41 80.34 50.49 80.34 50.57 80.34 50.64 80.34 50.72 80.34 50.8 80.34 50.87 80.34 50.95 80.34 51.02 80.34 51.1 80.34 51.18 80.34 51.25 80.34 51.33 80.34 51.41 80.34 51.48 80.34 51.56 80.34 51.63 80.34 51.71 80.34 51.79 80.34 51.86 80.34 51.94 80.34 52.02 80.34 52.09 80.34 52.17 80.34 52.25 80.34 52.32 80.34 52.4 80.34 52.47 80.34 52.55 80.34 52.63 80.34 52.7 80.34 52.78 80.34 52.86 80.34 52.93 80.34 53.01 80.34 53.08 80.34 53.16 80.34 53.24 80.34 53.31 80.34 53.39 80.34 53.47 80.34 53.54 80.34 53.62 80.34 53.7 80.34 53.77 80.34 53.85 80.34 53.92 80.34 54 80.34 54.08 80.34 54.15 80.34 54.23 80.34 54.31 80.34 54.38 80.34 54.46 80.34 54.53 80.34 54.61 80.34 54.69 80.34 54.76 80.34 54.84 80.34 54.92 80.34 54.99 80.34 55.07 80.34 55.15 80.34 55.22 80.34 55.3 80.34 55.37 80.34 55.45 80.34 55.53 80.34 55.6 80.34 55.68 80.34 55.76 80.34 55.83 80.34 55.91 80.34 55.98 80.34 56.06 80.34 56.14 80.34 56.21 80.34 56.29 80.34 56.37 80.34 56.44 80.34 56.52 80.34 56.6 80.34 56.67 80.34 56.75 80.34 56.82 80.34 56.9 80.34 56.98 80.34 57.05 80.34 57.13 80.34 57.21 80.34 57.28 80.34 57.36 80.34 57.43 80.34 57.51 80.34 57.59 80.34 57.66 80.34 57.74 80.34 57.82 80.34 57.89 80.34 57.97 80.34 58.05 80.34 58.12 80.34 58.2 80.34 58.27 80.34 58.35 80.34 58.43 80.34 58.5 80.34 58.58 80.34 58.66 80.34 58.73 80.34 58.81 80.34 58.88 80.34 58.96 80.34 59.04 80.34 59.11 80.34 59.19 80.34 59.27 80.34 59.34 80.34 59.42 80.34 59.5 80.34 59.57 80.34 59.65 80.34 59.72 80.34 59.8 80.34 59.88 80.34 59.95 80.34 60.03 80.34 60.11 80.34 60.18 80.34 60.26 80.34 60.33 80.34 60.41 80.34 60.49 80.34 60.56 80.34 60.64 80.34 60.72 80.34 60.79 80.34 60.87 80.34 60.95 80.34 61.02 80.34 61.1 80.34 61.17 80.34 61.25 80.34 61.33 80.34 61.4 80.34 61.48 80.34 61.56 80.34 61.63 80.34 61.71 80.34 61.78 80.34 61.86 80.34 61.94 80.34 62.01 80.34 62.09 80.34 62.17 80.34 62.24 80.34 62.32 80.34 62.4 80.34 62.47 80.34 62.55 80.34 62.62 80.34 62.7 80.34 62.78 80.34 62.85 80.34 62.93 80.34 63.01 80.34 63.08 80.34 63.16 80.34 63.23 80.34 63.31 80.34 63.39 80.34 63.46 80.34 63.54 80.34 63.62 80.34 63.69 80.34 63.77 80.34 63.85 80.34 63.92 80.34 64 80.34 64.07 80.34 64.15 80.34 64.23 80.34 64.3 80.34 64.38 80.34 64.46 80.34 64.53 80.34 64.61 80.34 64.68 80.34 64.76 80.34 64.84 80.34 64.91 80.34 64.99 80.34 65.07 80.34 65.14 80.34 65.22 80.34 65.3 80.34 65.37 80.34 65.45 80.34 65.52 80.34 65.6 80.34 65.68 80.34 65.75 80.34 65.83 80.34 65.91 80.34 65.98 80.34 66.06 80.34 66.13 80.34 66.21 80.34 66.29 80.34 66.36 80.34 66.44 80.34 66.52 80.34 66.59 80.34 66.67 80.34 66.75 80.34 66.82 80.34 66.9 80.34 66.97 80.34 67.05 80.34 67.13 80.34 67.2 80.34 67.28 80.34 67.36 80.34 67.43 80.34 67.51 80.34 67.58 80.34 67.66 80.34 67.74 80.34 67.81 80.34 67.89 80.34 67.97 80.34 68.04 80.34 68.12 80.34 68.2 80.34 68.27 80.34 68.35 80.34 68.42 80.34 68.5 80.34 68.58 80.34 68.65 80.34 68.73 80.34 68.81 80.34 68.88 80.34 68.96 80.34 69.03 80.34 69.11 80.34 69.19 80.34 69.26 80.34 69.34 80.34 69.42 80.34 69.49 80.34 69.57 80.34 69.64 80.34 69.72 80.34 69.8 80.34 69.87 80.34 69.95 80.34 70.03 80.34 70.1 80.34 70.18 80.34 70.26 80.34 70.33 80.34 70.41 80.34 70.48 80.34 70.56 80.34 70.64 80.34 70.71 80.34 70.79 80.34 70.87 80.34 70.94 80.34 71.02 80.34 71.09 80.34 71.17 80.34 71.25 80.34 71.32 80.34 71.4 80.34 71.48 80.34 71.55 80.34 71.63 80.34 71.71 80.34 71.78 80.34 71.86 80.34 71.93 80.34 72.01 80.34 72.09 80.34 72.16 80.34 72.24 80.34 72.32 80.34 72.39 80.34 72.47 80.34 72.54 80.34 72.62 80.34 72.7 80.34 72.77 80.34 72.85 80.34 72.93 80.34 73 80.34 73.08 80.34 73.16 80.34 73.23 80.34 73.31 80.34 73.38 80.34 73.46 80.34 73.54 80.34 73.61 80.34 73.69 80.34 73.77 80.34 73.84 80.34 73.92 80.34 73.99 80.34 74.07 80.34 74.15 80.34 74.22 80.34 74.3 80.34 74.38 80.34 74.45 80.34 74.53 80.34 74.61 80.34 74.68 80.34 74.76 80.34 74.83 80.34 74.91 80.34 74.99 80.34 75.06 80.34 75.14 80.34 75.22 80.34 75.29 80.34 75.37 80.34 75.44 80.34 75.52 80.34 75.6 80.34 75.67 80.34 75.75 80.34 75.83 80.34 75.9 80.34 75.98 80.34 76.06 80.34 76.13 80.34 76.21 80.34 76.28 80.34 76.36 80.34 76.44 80.34 76.51 80.34 76.59 80.34 76.67 80.34 76.74 80.34 76.82 80.34 76.89 80.34 76.97 80.34 77.05 80.34 77.12 80.34 77.2 80.34 77.28 80.34 77.35 80.34 77.43 80.34 77.51 80.34 77.58 80.34 77.66 80.34 77.73 80.34 77.81 80.34 77.89 80.34 77.96 80.34 78.04 80.34 78.12 80.34 78.19 80.34 78.27 80.34 78.34 80.34 78.42 80.34 78.5 80.34 78.57 80.34 78.65 80.34 78.73 80.34 78.8 80.34 78.88 80.34 78.96 80.34 79.03 80.34 79.11 80.34 79.18 80.34 79.26 80.34 79.34 80.34 79.41 80.34 79.49 80.34 79.57 80.34 79.64 80.34 79.72 80.34 79.79 80.34 79.87 80.34 79.95 80.34 80.02 80.34 80.1 80.34 80.18 80.34 80.25 80.34 80.33 80.34 80.41 80.34 80.48 80.34 80.56 80.34 80.63 80.34 80.71 80.34 80.79 80.34 80.86 80.34 80.94 80.34 81.02 80.34 81.09 80.34 81.17 80.34 81.24 80.34 81.32 80.34 81.4 80.34 81.47 80.34 81.55 80.34 81.63 80.34 81.7 80.34 81.78 80.34 81.86 80.34 81.93 80.34 82.01 80.34 82.08 80.34 82.16 80.34 82.24 80.34 82.31 80.34 82.39 80.34 82.47 80.34 82.54 80.34 82.62 80.34 82.69 80.34 82.77 80.34 82.85 80.34 82.92 80.34 83 80.34 83.08 80.34 83.15 80.34 83.23 80.34 83.31 80.34 83.38 80.34 83.46 80.34 83.53 80.34 83.61 80.34 83.69 80.34 83.76 80.34 83.84 80.34 83.92 80.34 83.99 80.34 84.07 80.34 84.14 80.34 84.22 80.34 84.3 80.34 84.37 80.34 84.45 80.34 84.53 80.34 84.6 80.34 84.68 80.34 84.76 80.34 84.83 80.34 84.91 80.34 84.98 80.34 85.06 80.34 85.14 80.34 85.21 80.34 85.29 80.34 85.37 80.34 85.44 80.34 85.52 80.34 85.59 80.34 85.67 80.34 85.75 80.34 85.82 80.34 85.9 80.34 85.98 80.34 86.05 80.34 86.13 80.34 86.21 80.34 86.28 80.34 86.36 80.34 86.43 80.34 86.51 80.34 86.59 80.34 86.66 80.34 86.74 80.34 86.82 80.34 86.89 80.34 86.97 80.34 87.04 80.34 87.12 80.34 87.2 80.34 87.27 80.34 87.35 80.34 87.43 80.34 87.5 80.34 87.58 80.34 87.66 80.34 87.73 80.34 87.81 80.34 87.88 80.34 87.96 80.34 88.04 80.34 88.11 80.34 88.19 80.34 88.27 80.34 88.34 80.34 88.42 80.34 88.49 80.34 88.57 80.34 88.65 80.34 88.72 80.34 88.8 80.34 88.88 80.34 88.95 80.34 89.03 80.34 89.11 80.34 89.18 80.34 89.26 80.34 89.33 80.34 89.41 80.34 89.49 80.34 89.56 80.34 89.64 80.34 89.72 80.34 89.79 80.34 89.87 80.34 89.94 80.34 90.02 80.34 90.1 80.34 90.17 80.34 90.25 80.34 90.33 80.34 90.4 80.34 90.48 80.34 90.56 80.34 90.63 80.34 90.71 80.34 90.78 80.34 90.86 80.34 90.94 80.34 91.01 80.34 91.09 80.34 91.17 80.34 91.24 80.34 91.32 80.34 91.39 80.34 91.47 80.34 91.55 80.34 91.62 80.34 91.7 80.34 91.78 80.34 91.85 80.34 91.93 80.34 92.01 80.34 92.08 80.34 92.16 80.34 92.23 80.34 92.31 80.34 92.39 80.34 92.46 80.34 92.54 80.34 92.62 80.34 92.69 80.34 92.77 80.34 92.84 80.34 92.92 80.34 93 80.34 93.07 80.34 93.15 80.34 93.23 80.34 93.3 80.34 93.38 80.34 93.46 80.34 93.53 80.34 93.61 80.34 93.68 80.34 93.76 80.34 93.84 80.34 93.91 80.34 93.99 80.34 94.07 80.34 94.14 80.34 94.22 80.34 94.29 80.34 94.37 80.34 94.45 80.34 94.52 80.34 94.6 80.34"/>
      </g>
    </g>
  </g>
</g>
  <g class="guide ylabels" font-size="2.82" font-family="'PT Sans Caption','Helvetica Neue','Helvetica',sans-serif" fill="#6C606B" id="img-cf5bc5ab-50">
    <text x="15.28" y="114.18" text-anchor="end" dy="0.35em">0</text>
    <text x="15.28" y="107.41" text-anchor="end" dy="0.35em">1</text>
    <text x="15.28" y="100.65" text-anchor="end" dy="0.35em">2</text>
    <text x="15.28" y="93.88" text-anchor="end" dy="0.35em">3</text>
    <text x="15.28" y="87.11" text-anchor="end" dy="0.35em">4</text>
    <text x="15.28" y="80.34" text-anchor="end" dy="0.35em">5</text>
  </g>
  <g font-size="3.88" font-family="'PT Sans','Helvetica Neue','Helvetica',sans-serif" fill="#564A55" stroke="#000000" stroke-opacity="0.000" id="img-cf5bc5ab-51">
    <text x="8.81" y="95.26" text-anchor="middle" dy="0.35em" transform="rotate(-90, 8.81, 97.26)">Value</text>
  </g>
  <g font-size="3.88" font-family="'PT Sans','Helvetica Neue','Helvetica',sans-serif" fill="#564A55" stroke="#000000" stroke-opacity="0.000" id="img-cf5bc5ab-52">
    <text x="56.44" y="72.73" text-anchor="middle" dy="0.6em">lf_num</text>
  </g>
</g>
<g class="plotroot xscalable yscalable" id="img-cf5bc5ab-53">
  <g font-size="3.88" font-family="'PT Sans','Helvetica Neue','Helvetica',sans-serif" fill="#564A55" stroke="#000000" stroke-opacity="0.000" id="img-cf5bc5ab-54">
    <text x="159.22" y="56.12" text-anchor="middle" dy="0.6em">Value</text>
  </g>
  <g class="guide xlabels" font-size="2.82" font-family="'PT Sans Caption','Helvetica Neue','Helvetica',sans-serif" fill="#6C606B" id="img-cf5bc5ab-55">
    <text x="122.23" y="49.45" text-anchor="middle" dy="0.6em">-2</text>
    <text x="134.56" y="49.45" text-anchor="middle" dy="0.6em">-1</text>
    <text x="146.89" y="49.45" text-anchor="middle" dy="0.6em">0</text>
    <text x="159.22" y="49.45" text-anchor="middle" dy="0.6em">1</text>
    <text x="171.54" y="49.45" text-anchor="middle" dy="0.6em">2</text>
    <text x="183.87" y="49.45" text-anchor="middle" dy="0.6em">3</text>
    <text x="196.2" y="49.45" text-anchor="middle" dy="0.6em">4</text>
  </g>
<g clip-path="url(#img-cf5bc5ab-56)">
  <g id="img-cf5bc5ab-57">
    <g pointer-events="visible" opacity="1" fill="#000000" fill-opacity="0.000" stroke="#000000" stroke-opacity="0.000" class="guide background" id="img-cf5bc5ab-58">
      <rect x="120.23" y="10.61" width="77.97" height="37.84"/>
    </g>
    <g class="guide ygridlines xfixed" stroke-dasharray="0.5,0.5" stroke-width="0.2" stroke="#D0D0E0" id="img-cf5bc5ab-59">
      <path fill="none" d="M120.23,46.45 L 198.2 46.45"/>
      <path fill="none" d="M120.23,40.81 L 198.2 40.81"/>
      <path fill="none" d="M120.23,35.17 L 198.2 35.17"/>
      <path fill="none" d="M120.23,29.53 L 198.2 29.53"/>
      <path fill="none" d="M120.23,23.89 L 198.2 23.89"/>
      <path fill="none" d="M120.23,18.25 L 198.2 18.25"/>
      <path fill="none" d="M120.23,12.61 L 198.2 12.61"/>
    </g>
    <g class="guide xgridlines yfixed" stroke-dasharray="0.5,0.5" stroke-width="0.2" stroke="#D0D0E0" id="img-cf5bc5ab-60">
      <path fill="none" d="M122.23,10.61 L 122.23 48.45"/>
      <path fill="none" d="M134.56,10.61 L 134.56 48.45"/>
      <path fill="none" d="M146.89,10.61 L 146.89 48.45"/>
      <path fill="none" d="M159.22,10.61 L 159.22 48.45"/>
      <path fill="none" d="M171.54,10.61 L 171.54 48.45"/>
      <path fill="none" d="M183.87,10.61 L 183.87 48.45"/>
      <path fill="none" d="M196.2,10.61 L 196.2 48.45"/>
    </g>
    <g class="plotpanel" id="img-cf5bc5ab-61">
      <g stroke-width="0.3" fill="#000000" fill-opacity="0.000" class="geometry color_1" stroke-dasharray="none" stroke="#00BFFF" id="img-cf5bc5ab-62">
        <path fill="none" d="M132.41,46.45 L 132.65 46.45 132.89 46.45 133.12 46.45 133.36 46.45 133.6 46.45 133.84 46.45 134.07 46.44 134.31 46.44 134.55 46.44 134.78 46.44 135.02 46.43 135.26 46.43 135.5 46.42 135.73 46.4 135.97 46.39 136.21 46.37 136.44 46.34 136.68 46.31 136.92 46.26 137.16 46.21 137.39 46.15 137.63 46.07 137.87 45.98 138.1 45.87 138.34 45.75 138.58 45.61 138.82 45.45 139.05 45.28 139.29 45.09 139.53 44.89 139.77 44.67 140 44.44 140.24 44.2 140.48 43.95 140.71 43.7 140.95 43.45 141.19 43.21 141.43 42.97 141.66 42.73 141.9 42.51 142.14 42.3 142.37 42.1 142.61 41.91 142.85 41.74 143.09 41.58 143.32 41.44 143.56 41.3 143.8 41.17 144.03 41.05 144.27 40.92 144.51 40.8 144.75 40.67 144.98 40.53 145.22 40.37 145.46 40.2 145.69 40.02 145.93 39.81 146.17 39.58 146.41 39.32 146.64 39.05 146.88 38.75 147.12 38.44 147.36 38.1 147.59 37.76 147.83 37.41 148.07 37.05 148.3 36.69 148.54 36.34 148.78 35.99 149.02 35.64 149.25 35.31 149.49 34.99 149.73 34.68 149.96 34.37 150.2 34.07 150.44 33.77 150.68 33.46 150.91 33.15 151.15 32.83 151.39 32.49 151.62 32.14 151.86 31.77 152.1 31.37 152.34 30.96 152.57 30.52 152.81 30.07 153.05 29.59 153.28 29.09 153.52 28.58 153.76 28.05 154 27.5 154.23 26.94 154.47 26.36 154.71 25.78 154.95 25.19 155.18 24.59 155.42 23.99 155.66 23.38 155.89 22.78 156.13 22.18 156.37 21.59 156.61 21 156.84 20.42 157.08 19.85 157.32 19.29 157.55 18.74 157.79 18.21 158.03 17.69 158.27 17.19 158.5 16.7 158.74 16.24 158.98 15.8 159.21 15.4 159.45 15.03 159.69 14.71 159.93 14.43 160.16 14.2 160.4 14.03 160.64 13.91 160.87 13.85 161.11 13.84 161.35 13.89 161.59 13.98 161.82 14.11 162.06 14.28 162.3 14.48 162.54 14.71 162.77 14.95 163.01 15.2 163.25 15.47 163.48 15.74 163.72 16.02 163.96 16.3 164.2 16.58 164.43 16.87 164.67 17.16 164.91 17.46 165.14 17.77 165.38 18.09 165.62 18.41 165.86 18.74 166.09 19.08 166.33 19.42 166.57 19.77 166.8 20.12 167.04 20.47 167.28 20.82 167.52 21.18 167.75 21.53 167.99 21.9 168.23 22.26 168.46 22.63 168.7 23.02 168.94 23.41 169.18 23.82 169.41 24.24 169.65 24.67 169.89 25.13 170.13 25.59 170.36 26.08 170.6 26.58 170.84 27.09 171.07 27.61 171.31 28.14 171.55 28.67 171.79 29.22 172.02 29.76 172.26 30.31 172.5 30.87 172.73 31.42 172.97 31.98 173.21 32.53 173.45 33.08 173.68 33.63 173.92 34.17 174.16 34.71 174.39 35.23 174.63 35.74 174.87 36.24 175.11 36.71 175.34 37.16 175.58 37.59 175.82 38 176.05 38.37 176.29 38.72 176.53 39.04 176.77 39.34 177 39.62 177.24 39.87 177.48 40.11 177.71 40.33 177.95 40.55 178.19 40.75 178.43 40.95 178.66 41.15 178.9 41.34 179.14 41.54 179.38 41.73 179.61 41.92 179.85 42.1 180.09 42.29 180.32 42.47 180.56 42.64 180.8 42.8 181.04 42.96 181.27 43.1 181.51 43.24 181.75 43.37 181.98 43.48 182.22 43.59 182.46 43.69 182.7 43.79 182.93 43.89 183.17 43.98 183.41 44.08 183.64 44.18 183.88 44.28 184.12 44.39 184.36 44.51 184.59 44.63 184.83 44.76 185.07 44.9 185.3 45.03 185.54 45.17 185.78 45.3 186.02 45.44 186.25 45.56 186.49 45.68 186.73 45.79 186.97 45.9 187.2 45.99 187.44 46.07 187.68 46.14 187.91 46.2 188.15 46.25 188.39 46.29 188.63 46.33 188.86 46.36 189.1 46.38 189.34 46.4 189.57 46.41 189.81 46.42 190.05 46.43 190.29 46.43 190.52 46.44 190.76 46.44 191 46.44 191.23 46.45 191.47 46.45 191.71 46.45 191.95 46.45 192.18 46.45 192.42 46.45 192.66 46.45 192.89 46.45"/>
      </g>
    </g>
  </g>
</g>
  <g class="guide ylabels" font-size="2.82" font-family="'PT Sans Caption','Helvetica Neue','Helvetica',sans-serif" fill="#6C606B" id="img-cf5bc5ab-63">
    <text x="119.23" y="46.45" text-anchor="end" dy="0.35em">0.0</text>
    <text x="119.23" y="40.81" text-anchor="end" dy="0.35em">0.1</text>
    <text x="119.23" y="35.17" text-anchor="end" dy="0.35em">0.2</text>
    <text x="119.23" y="29.53" text-anchor="end" dy="0.35em">0.3</text>
    <text x="119.23" y="23.89" text-anchor="end" dy="0.35em">0.4</text>
    <text x="119.23" y="18.25" text-anchor="end" dy="0.35em">0.5</text>
    <text x="119.23" y="12.61" text-anchor="end" dy="0.35em">0.6</text>
  </g>
  <g font-size="3.88" font-family="'PT Sans','Helvetica Neue','Helvetica',sans-serif" fill="#564A55" stroke="#000000" stroke-opacity="0.000" id="img-cf5bc5ab-64">
    <text x="110.41" y="27.53" text-anchor="middle" dy="0.35em" transform="rotate(-90, 110.41, 29.53)">Density</text>
  </g>
  <g font-size="3.88" font-family="'PT Sans','Helvetica Neue','Helvetica',sans-serif" fill="#564A55" stroke="#000000" stroke-opacity="0.000" id="img-cf5bc5ab-65">
    <text x="159.22" y="5" text-anchor="middle" dy="0.6em">m</text>
  </g>
</g>
<g class="plotroot xscalable yscalable" id="img-cf5bc5ab-66">
  <g font-size="3.88" font-family="'PT Sans','Helvetica Neue','Helvetica',sans-serif" fill="#564A55" stroke="#000000" stroke-opacity="0.000" id="img-cf5bc5ab-67">
    <text x="58.17" y="56.12" text-anchor="middle" dy="0.6em">Iteration</text>
  </g>
  <g class="guide xlabels" font-size="2.82" font-family="'PT Sans Caption','Helvetica Neue','Helvetica',sans-serif" fill="#6C606B" id="img-cf5bc5ab-68">
    <text x="21.75" y="49.45" text-anchor="middle" dy="0.6em">0</text>
    <text x="58.17" y="49.45" text-anchor="middle" dy="0.6em">500</text>
    <text x="94.6" y="49.45" text-anchor="middle" dy="0.6em">1000</text>
  </g>
<g clip-path="url(#img-cf5bc5ab-69)">
  <g id="img-cf5bc5ab-70">
    <g pointer-events="visible" opacity="1" fill="#000000" fill-opacity="0.000" stroke="#000000" stroke-opacity="0.000" class="guide background" id="img-cf5bc5ab-71">
      <rect x="19.75" y="10.61" width="76.85" height="37.84"/>
    </g>
    <g class="guide ygridlines xfixed" stroke-dasharray="0.5,0.5" stroke-width="0.2" stroke="#D0D0E0" id="img-cf5bc5ab-72">
      <path fill="none" d="M19.75,46.45 L 96.6 46.45"/>
      <path fill="none" d="M19.75,35.17 L 96.6 35.17"/>
      <path fill="none" d="M19.75,23.89 L 96.6 23.89"/>
      <path fill="none" d="M19.75,12.61 L 96.6 12.61"/>
    </g>
    <g class="guide xgridlines yfixed" stroke-dasharray="0.5,0.5" stroke-width="0.2" stroke="#D0D0E0" id="img-cf5bc5ab-73">
      <path fill="none" d="M21.75,10.61 L 21.75 48.45"/>
      <path fill="none" d="M58.17,10.61 L 58.17 48.45"/>
      <path fill="none" d="M94.6,10.61 L 94.6 48.45"/>
    </g>
    <g class="plotpanel" id="img-cf5bc5ab-74">
      <g stroke-width="0.3" fill="#000000" fill-opacity="0.000" class="geometry color_1" stroke-dasharray="none" stroke="#00BFFF" id="img-cf5bc5ab-75">
        <path fill="none" d="M21.82,30.45 L 21.89 31.72 21.96 34.44 22.04 32.6 22.11 31.98 22.18 34.09 22.25 36.23 22.33 37.56 22.4 35.17 22.47 31.45 22.55 30.3 22.62 29.66 22.69 32.67 22.76 29.9 22.84 30.27 22.91 35.31 22.98 31.47 23.06 31.84 23.13 30.26 23.2 30.64 23.27 32.34 23.35 29.86 23.42 26.92 23.49 30.04 23.57 32.42 23.64 31.26 23.71 28.7 23.78 26.33 23.86 27.67 23.93 27.35 24 27.49 24.08 29.62 24.15 27.31 24.22 28.77 24.29 29.86 24.37 26.29 24.44 28.02 24.51 29.07 24.59 26.45 24.66 28.51 24.73 28.33 24.8 26.66 24.88 27.1 24.95 28.07 25.02 30.02 25.1 28.98 25.17 27.18 25.24 30.73 25.31 31.01 25.39 34.56 25.46 32.08 25.53 32.04 25.61 31.25 25.68 24.61 25.75 27.96 25.82 26.28 25.9 28.32 25.97 26.73 26.04 27.04 26.12 27.42 26.19 26.98 26.26 27.22 26.33 27.89 26.41 28.86 26.48 28.47 26.55 28.06 26.63 30.54 26.7 30.8 26.77 36.07 26.84 35.22 26.92 38.77 26.99 37.09 27.06 32.5 27.14 30.59 27.21 33.23 27.28 34.12 27.35 33.21 27.43 31.35 27.5 31.46 27.57 28.1 27.65 27.21 27.72 27.59 27.79 27.55 27.86 27.57 27.94 30.84 28.01 31.74 28.08 36.73 28.16 41.74 28.23 41.05 28.3 38.89 28.37 39.64 28.45 37.13 28.52 37.85 28.59 40.79 28.67 41.47 28.74 42.33 28.81 44.99 28.88 46.21 28.96 42.55 29.03 42.75 29.1 39.23 29.18 35.13 29.25 31.34 29.32 26.58 29.39 26.28 29.47 29.01 29.54 29.92 29.61 26.82 29.69 31.45 29.76 30.23 29.83 29.26 29.9 32.38 29.98 31.3 30.05 26.21 30.12 27.2 30.2 29.54 30.27 30.5 30.34 30.75 30.41 32.78 30.49 32.64 30.56 30.87 30.63 26.32 30.71 29.76 30.78 32.18 30.85 34.1 30.92 31.52 31 31.48 31.07 32.5 31.14 31.37 31.22 31.52 31.29 30.79 31.36 31.58 31.43 31.11 31.51 30.55 31.58 27.26 31.65 22.53 31.73 21.57 31.8 16.92 31.87 14.87 31.94 14.07 32.02 12.69 32.09 18.67 32.16 15.83 32.24 17.65 32.31 21.07 32.38 20.01 32.45 21.17 32.53 20.1 32.6 18.23 32.67 17.82 32.75 21 32.82 22.14 32.89 23.52 32.96 23.2 33.04 25.43 33.11 25.13 33.18 22.56 33.26 20.35 33.33 18.97 33.4 19.53 33.47 21.42 33.55 21.59 33.62 19.48 33.69 21.66 33.77 21.46 33.84 21.82 33.91 26.13 33.98 26.15 34.06 28.09 34.13 26.7 34.2 27 34.28 24.96 34.35 27.67 34.42 30.53 34.49 31.18 34.57 30.36 34.64 29.72 34.71 30.21 34.79 30.17 34.86 29.41 34.93 30 35 27.84 35.08 29.37 35.15 32.61 35.22 32.71 35.3 31.29 35.37 30.25 35.44 28.39 35.51 30.01 35.59 30.18 35.66 28.26 35.73 27.96 35.81 29.14 35.88 30.87 35.95 31.08 36.02 31.44 36.1 34.59 36.17 36.41 36.24 37.15 36.32 33.84 36.39 32.66 36.46 30.86 36.53 29.86 36.61 28.63 36.68 30.3 36.75 27.22 36.83 29.69 36.9 28.31 36.97 26.84 37.04 27.43 37.12 29.87 37.19 27.62 37.26 26.44 37.34 27.47 37.41 30.05 37.48 22.82 37.55 25.8 37.63 27.26 37.7 30.24 37.77 25.32 37.85 26.16 37.92 27.12 37.99 25.73 38.06 25.77 38.14 25.38 38.21 26.75 38.28 27.92 38.36 23.99 38.43 27.84 38.5 28.78 38.57 31.13 38.65 28.9 38.72 27.49 38.79 27.71 38.87 25.67 38.94 26.32 39.01 26.4 39.08 28.52 39.16 27.33 39.23 26.29 39.3 28.77 39.38 31.11 39.45 28.22 39.52 28.99 39.59 28.61 39.67 31.66 39.74 37.4 39.81 35.91 39.89 32.76 39.96 28.56 40.03 28.27 40.1 28.48 40.18 26.67 40.25 25.48 40.32 26.08 40.4 25.19 40.47 24.11 40.54 28.3 40.61 28.01 40.69 26.85 40.76 30.57 40.83 29.86 40.91 28.86 40.98 30.23 41.05 27.78 41.12 24.02 41.2 23.92 41.27 25.58 41.34 26.38 41.42 27.34 41.49 26.89 41.56 27.45 41.63 25.39 41.71 22.88 41.78 24.71 41.85 24.93 41.93 26.6 42 28.9 42.07 28.17 42.14 30.3 42.22 30.03 42.29 29.34 42.36 26.73 42.44 27.21 42.51 32.42 42.58 34.25 42.65 31.5 42.73 31.78 42.8 29.73 42.87 33.38 42.95 29.54 43.02 29.94 43.09 32.98 43.16 33.15 43.24 32.25 43.31 30.4 43.38 28.16 43.46 32.22 43.53 30.09 43.6 30.75 43.67 31.01 43.75 30.85 43.82 32.29 43.89 27.88 43.97 27.48 44.04 26.91 44.11 25.21 44.18 25.16 44.26 25.5 44.33 23.26 44.4 27.69 44.48 25.59 44.55 29.93 44.62 31.72 44.69 32.67 44.77 30.16 44.84 28.81 44.91 29.21 44.99 28.24 45.06 30.33 45.13 33.07 45.2 29.81 45.28 30.02 45.35 31.28 45.42 31.22 45.5 32.34 45.57 31.14 45.64 31.39 45.71 29.43 45.79 27.97 45.86 32.6 45.93 28.73 46.01 29.99 46.08 32.25 46.15 31.6 46.22 29.22 46.3 31.23 46.37 32.65 46.44 31.75 46.52 32.92 46.59 30.82 46.66 30.83 46.73 29.7 46.81 29.04 46.88 30.27 46.95 30.29 47.03 28.67 47.1 29.29 47.17 29.17 47.24 30.12 47.32 29.56 47.39 29.18 47.46 31.98 47.54 32.61 47.61 34.34 47.68 30.87 47.75 32.9 47.83 31.84 47.9 32.03 47.97 30.14 48.05 31.83 48.12 32.37 48.19 31.42 48.26 26.92 48.34 28.64 48.41 29.27 48.48 27.82 48.56 28.44 48.63 29.24 48.7 31.4 48.77 28.23 48.85 30.28 48.92 31.23 48.99 29.87 49.07 30.11 49.14 31.26 49.21 28.77 49.28 29.7 49.36 29.2 49.43 28.8 49.5 27.19 49.58 26.29 49.65 30.82 49.72 28.21 49.79 25.46 49.87 24.98 49.94 23.73 50.01 26.09 50.09 27.93 50.16 26.61 50.23 25.65 50.3 24.83 50.38 24.86 50.45 25.63 50.52 28.36 50.6 27 50.67 28.52 50.74 30.73 50.81 30.26 50.89 28.65 50.96 30.41 51.03 33.21 51.11 34.95 51.18 34.35 51.25 34 51.32 31.82 51.4 32.59 51.47 33.55 51.54 29.38 51.62 28.45 51.69 29.37 51.76 29.44 51.83 29.76 51.91 32.18 51.98 34.93 52.05 33.91 52.13 32.75 52.2 28.5 52.27 30.13 52.34 33.88 52.42 32.83 52.49 32.15 52.56 28.34 52.64 27.86 52.71 28.36 52.78 30.75 52.85 30.08 52.93 31.72 53 28.98 53.07 33.76 53.15 30.61 53.22 29.42 53.29 28.46 53.36 28.03 53.44 26.1 53.51 26.35 53.58 29.8 53.66 28.46 53.73 29.1 53.8 29.45 53.87 30.4 53.95 30.67 54.02 28.39 54.09 29.4 54.17 30.67 54.24 30.31 54.31 31.74 54.38 34.56 54.46 30.54 54.53 29.07 54.6 29.54 54.68 28.92 54.75 29.67 54.82 31.89 54.89 31.76 54.97 31.64 55.04 27.85 55.11 32.03 55.19 33.14 55.26 31.78 55.33 33.2 55.4 32.85 55.48 34.29 55.55 33.94 55.62 35.65 55.7 37.51 55.77 33.51 55.84 34.23 55.91 34.2 55.99 33.24 56.06 34.06 56.13 29.88 56.21 31.32 56.28 28.55 56.35 27.92 56.42 28.82 56.5 27.37 56.57 28.77 56.64 26.36 56.72 29.57 56.79 34.14 56.86 33.15 56.93 28.94 57.01 32.51 57.08 30.48 57.15 29.17 57.23 28.85 57.3 28.64 57.37 31.25 57.44 27.63 57.52 26.99 57.59 24.75 57.66 30.15 57.74 31.75 57.81 28.99 57.88 29.22 57.95 30.42 58.03 30.59 58.1 30.2 58.17 29.38 58.25 30.42 58.32 30.81 58.39 27.96 58.46 26.82 58.54 30.27 58.61 29.93 58.68 31.4 58.76 32.05 58.83 32.76 58.9 29.38 58.97 31.51 59.05 30.48 59.12 30.48 59.19 30.4 59.27 35.47 59.34 34.33 59.41 33.71 59.48 31.69 59.56 33.48 59.63 30.96 59.7 30.25 59.78 28.28 59.85 29.74 59.92 29.85 59.99 28.07 60.07 32.17 60.14 29.24 60.21 28.2 60.29 28.97 60.36 29.89 60.43 31.09 60.5 29.35 60.58 31.86 60.65 30.75 60.72 28.89 60.8 28.21 60.87 27.22 60.94 27.67 61.01 26.4 61.09 22.65 61.16 21.87 61.23 22.96 61.31 23.8 61.38 27.35 61.45 28.34 61.52 26.2 61.6 26.62 61.67 25.29 61.74 30.42 61.82 34.64 61.89 36.69 61.96 33.96 62.03 34.38 62.11 31.59 62.18 32.79 62.25 32.29 62.33 34.58 62.4 36.37 62.47 36.38 62.54 34.52 62.62 32.64 62.69 34.55 62.76 32.47 62.84 30.06 62.91 28.94 62.98 30.36 63.05 32.21 63.13 33.71 63.2 32.95 63.27 33.74 63.35 34.19 63.42 33.81 63.49 29.37 63.56 28.52 63.64 28.83 63.71 27.42 63.78 27.27 63.86 27.1 63.93 26.58 64 26.97 64.07 33.89 64.15 34.69 64.22 33.84 64.29 34.39 64.37 34.57 64.44 32.33 64.51 32.28 64.58 28.11 64.66 26.46 64.73 29.32 64.8 27.49 64.88 29.37 64.95 27.65 65.02 26.25 65.09 29.3 65.17 27.42 65.24 27.48 65.31 28.77 65.39 30.29 65.46 33.38 65.53 34.28 65.6 31.23 65.68 32.27 65.75 35.04 65.82 31.32 65.9 29.21 65.97 32.65 66.04 28.24 66.11 26.36 66.19 21.48 66.26 23.04 66.33 18.42 66.41 20.12 66.48 16.58 66.55 13.34 66.62 17.81 66.7 22.08 66.77 26.06 66.84 25.76 66.92 30.57 66.99 30.56 67.06 28.82 67.13 28.3 67.21 30.96 67.28 28.1 67.35 30.01 67.43 31.4 67.5 31.84 67.57 30.81 67.64 30.45 67.72 29.05 67.79 31.05 67.86 27.7 67.94 29.52 68.01 30.64 68.08 30.47 68.15 27.9 68.23 26.86 68.3 29.34 68.37 26.78 68.45 26.93 68.52 29.04 68.59 26.05 68.66 26.27 68.74 23.78 68.81 25.32 68.88 25.7 68.96 23.56 69.03 23.07 69.1 20.52 69.17 23.85 69.25 26.67 69.32 28.98 69.39 32.08 69.47 30.43 69.54 29.76 69.61 29.47 69.68 28.56 69.76 28.04 69.83 25 69.9 25.19 69.98 21.63 70.05 20.11 70.12 21.24 70.19 25.34 70.27 25.36 70.34 26.22 70.41 26.89 70.48 27.04 70.56 26.99 70.63 26.95 70.7 26.6 70.78 27.31 70.85 30.32 70.92 28.59 70.99 24.5 71.07 25.23 71.14 27.33 71.21 30.03 71.29 32.03 71.36 30.63 71.43 32.29 71.5 27.92 71.58 29.25 71.65 27.28 71.72 25.52 71.8 25.33 71.87 26.55 71.94 23.67 72.01 24.99 72.09 28 72.16 30.52 72.23 31.9 72.31 34.15 72.38 36.41 72.45 37.08 72.52 37.36 72.6 34.86 72.67 30.03 72.74 32.9 72.82 31.34 72.89 29.37 72.96 26.87 73.03 23.82 73.11 26.99 73.18 28.73 73.25 28.31 73.33 27.08 73.4 28.22 73.47 29.56 73.54 32.9 73.62 30.88 73.69 30.57 73.76 30.22 73.84 29.89 73.91 27.95 73.98 28.8 74.05 29.63 74.13 31.36 74.2 29.8 74.27 28.26 74.35 32.1 74.42 32.52 74.49 32.91 74.56 34.06 74.64 38.4 74.71 34.74 74.78 35.38 74.86 34.13 74.93 34.49 75 33.25 75.07 34.08 75.15 32.62 75.22 30.15 75.29 31.56 75.37 27.33 75.44 26.11 75.51 24.22 75.58 28.22 75.66 27.87 75.73 25.94 75.8 25.4 75.88 24.27 75.95 25.7 76.02 27.02 76.09 31.49 76.17 30.34 76.24 31.45 76.31 33.03 76.39 37 76.46 34.94 76.53 31.83 76.6 31.2 76.68 33.52 76.75 33.25 76.82 36.94 76.9 35.96 76.97 38.51 77.04 35.79 77.11 36.96 77.19 36.52 77.26 36.59 77.33 39.07 77.41 39.49 77.48 37.12 77.55 39.57 77.62 40.08 77.7 38.88 77.77 35.58 77.84 35.14 77.92 35.11 77.99 31.82 78.06 29.41 78.13 31.66 78.21 33.52 78.28 30.55 78.35 34.76 78.43 32.42 78.5 31.46 78.57 30.83 78.64 31.06 78.72 30.89 78.79 28.58 78.86 27.53 78.94 32.92 79.01 30.94 79.08 35.35 79.15 30.26 79.23 30.16 79.3 30.28 79.37 29.01 79.45 25.67 79.52 24.62 79.59 26.31 79.66 30.23 79.74 28.12 79.81 27.87 79.88 24.97 79.96 26.44 80.03 29.09 80.1 30.38 80.17 30.26 80.25 32.42 80.32 30.22 80.39 32.37 80.47 32.67 80.54 29.62 80.61 31.46 80.68 29.13 80.76 29.72 80.83 29.72 80.9 28.65 80.98 29.23 81.05 31.29 81.12 31.63 81.19 32 81.27 28.85 81.34 30.81 81.41 29.68 81.49 27.13 81.56 26.57 81.63 26.95 81.7 25.02 81.78 27.81 81.85 27.35 81.92 30.21 82 30.46 82.07 25.44 82.14 29.66 82.21 26.01 82.29 28.35 82.36 28.81 82.43 32.79 82.51 28.29 82.58 26.02 82.65 27.92 82.72 28.52 82.8 29.98 82.87 26.86 82.94 31.57 83.02 27.47 83.09 25.97 83.16 28.35 83.23 31.26 83.31 34.41 83.38 31.64 83.45 32.96 83.53 31.94 83.6 30.21 83.67 29.63 83.74 26.64 83.82 23.04 83.89 25.84 83.96 25.97 84.04 28.28 84.11 27.75 84.18 31.11 84.25 30.52 84.33 31.72 84.4 30.57 84.47 28.97 84.55 27.86 84.62 25.4 84.69 24.66 84.76 24.1 84.84 23.82 84.91 25.64 84.98 23.15 85.06 23.61 85.13 24.43 85.2 24.41 85.27 29.2 85.35 28.37 85.42 33.29 85.49 31.78 85.57 31.52 85.64 31.3 85.71 35.77 85.78 30.98 85.86 31.05 85.93 27.39 86 25.78 86.08 28.79 86.15 28.69 86.22 26.14 86.29 27.07 86.37 24.22 86.44 26.05 86.51 26.3 86.59 30.29 86.66 29.49 86.73 28.19 86.8 31.62 86.88 33.29 86.95 29.57 87.02 29.36 87.1 25.83 87.17 24.51 87.24 22.6 87.31 25.96 87.39 27.9 87.46 27.09 87.53 25.25 87.61 29.68 87.68 28.63 87.75 29.73 87.82 33.2 87.9 33.81 87.97 35.33 88.04 31.71 88.12 28.27 88.19 27.29 88.26 25.48 88.33 25.65 88.41 26.76 88.48 27.33 88.55 23.58 88.63 23.58 88.7 24.94 88.77 27.07 88.84 28.9 88.92 31.55 88.99 33.87 89.06 29.73 89.14 29.37 89.21 30.03 89.28 32.34 89.35 31.57 89.43 26.73 89.5 27.82 89.57 28.75 89.65 29.55 89.72 31.24 89.79 29.7 89.86 31 89.94 31.76 90.01 29.49 90.08 30.94 90.16 30.56 90.23 31.11 90.3 29.59 90.37 30.37 90.45 29.76 90.52 35.67 90.59 34.59 90.67 36.43 90.74 35.73 90.81 36.46 90.88 29.93 90.96 33.99 91.03 28.98 91.1 29.73 91.18 30.69 91.25 33.45 91.32 33.6 91.39 33.49 91.47 33.37 91.54 34.61 91.61 32.98 91.69 36.01 91.76 35.21 91.83 33.52 91.9 28.84 91.98 31.14 92.05 30.08 92.12 31.82 92.2 25.3 92.27 27.22 92.34 23.46 92.41 24.18 92.49 26.79 92.56 23.68 92.63 24.82 92.71 26.27 92.78 29.63 92.85 30.11 92.92 28.8 93 30.97 93.07 28.57 93.14 27.06 93.22 28.36 93.29 29.93 93.36 28.9 93.43 32.76 93.51 32.97 93.58 34.42 93.65 36.34 93.73 36.84 93.8 38.36 93.87 38.36 93.94 35.8 94.02 35.99 94.09 38.57 94.16 36.44 94.24 36.18 94.31 33.23 94.38 34.07 94.45 38 94.53 33.02 94.6 31.67"/>
      </g>
    </g>
  </g>
</g>
  <g class="guide ylabels" font-size="2.82" font-family="'PT Sans Caption','Helvetica Neue','Helvetica',sans-serif" fill="#6C606B" id="img-cf5bc5ab-76">
    <text x="18.74" y="46.45" text-anchor="end" dy="0.35em">-2.5</text>
    <text x="18.74" y="35.17" text-anchor="end" dy="0.35em">0.0</text>
    <text x="18.74" y="23.89" text-anchor="end" dy="0.35em">2.5</text>
    <text x="18.74" y="12.61" text-anchor="end" dy="0.35em">5.0</text>
  </g>
  <g font-size="3.88" font-family="'PT Sans','Helvetica Neue','Helvetica',sans-serif" fill="#564A55" stroke="#000000" stroke-opacity="0.000" id="img-cf5bc5ab-77">
    <text x="8.81" y="27.53" text-anchor="middle" dy="0.35em" transform="rotate(-90, 8.81, 29.53)">Value</text>
  </g>
  <g font-size="3.88" font-family="'PT Sans','Helvetica Neue','Helvetica',sans-serif" fill="#564A55" stroke="#000000" stroke-opacity="0.000" id="img-cf5bc5ab-78">
    <text x="58.17" y="5" text-anchor="middle" dy="0.6em">m</text>
  </g>
</g>
<defs>
  <clipPath id="img-cf5bc5ab-4">
  <path d="M120.23,146.08 L 198.2 146.08 198.2 183.91 120.23 183.91" />
</clipPath>
  <clipPath id="img-cf5bc5ab-17">
  <path d="M17.96,146.08 L 96.6 146.08 96.6 183.91 17.96 183.91" />
</clipPath>
  <clipPath id="img-cf5bc5ab-30">
  <path d="M120.23,78.34 L 198.2 78.34 198.2 116.18 120.23 116.18" />
</clipPath>
  <clipPath id="img-cf5bc5ab-43">
  <path d="M16.28,78.34 L 96.6 78.34 96.6 116.18 16.28 116.18" />
</clipPath>
  <clipPath id="img-cf5bc5ab-56">
  <path d="M120.23,10.61 L 198.2 10.61 198.2 48.45 120.23 48.45" />
</clipPath>
  <clipPath id="img-cf5bc5ab-69">
  <path d="M19.75,10.61 L 96.6 10.61 96.6 48.45 19.75 48.45" />
</clipPath>
</defs>
</svg>
